<svg width="20" height="20" viewBox="0 0 20 20" fill="none" xmlns="http://www.w3.org/2000/svg">
    <g id="UniPass">
        <g id="Group 270">
            <path id="&#232;&#183;&#175;&#229;&#190;&#132;" fill-rule="evenodd" clip-rule="evenodd"
                d="M3.42116 3.81641C4.86 3.81641 6.02641 4.98281 6.02641 6.42165L6.02161 10.4212C6.02161 12.1046 7.3863 13.4693 9.06973 13.4693C9.45112 13.4693 9.82374 13.4409 10.1604 13.3137C7.43272 14.6407 2.44069 13.9844 0.886243 10.5081L0.815918 10.3431V6.42165C0.815918 4.98281 1.98233 3.81641 3.42116 3.81641Z"
                fill="url(#paint0_linear_765_10325)" />
            <path id="&#232;&#183;&#175;&#229;&#190;&#132;_2"
                d="M15.6507 0.833008C17.5598 0.833008 19.1153 2.34698 19.182 4.23978L19.1842 4.36652V10.3692C19.1842 12.0353 18.7809 13.5503 17.9722 14.8852C17.1736 16.2035 16.0827 17.2527 14.7185 18.0172C13.3466 18.7861 11.7706 19.1663 10.0136 19.1663C8.27659 19.1663 6.70354 18.7868 5.31711 18.0219C3.93011 17.2566 2.826 16.1999 2.02535 14.8679C1.2186 13.5257 0.815918 12.0079 0.815918 10.3431C2.49257 14.4774 8.91309 14.8007 11.1823 12.6184C11.7316 12.0902 12.0832 11.358 12.1154 10.5437L12.1178 10.4211L12.1172 4.36652C12.1172 2.41501 13.6992 0.833008 15.6507 0.833008Z"
                fill="url(#paint1_linear_765_10325)" />
        </g>
    </g>
    <defs>
        <linearGradient id="paint0_linear_765_10325" x1="3.13844" y1="7.19793" x2="4.22637" y2="13.1426"
            gradientUnits="userSpaceOnUse">
            <stop stop-color="#6D50CC" />
            <stop offset="1" stop-color="#523C99" />
        </linearGradient>
        <linearGradient id="paint1_linear_765_10325" x1="16.1088" y1="0.576441" x2="6.40837" y2="17.76"
            gradientUnits="userSpaceOnUse">
            <stop stop-color="#A083FF" />
            <stop offset="1" stop-color="#8864FF" />
        </linearGradient>
    </defs>
</svg>