<svg xmlns="http://www.w3.org/2000/svg" fill="none" viewBox="0 0 41 40"><circle fill="#28A0F0" r="20" cy="20" cx="20.997"/><path fill="#2D374B" d="m24.86 18.566 2.517-4.272 6.787 10.57.003 2.029-.022-13.96a1.052 1.052 0 0 0-.486-.837L21.44 5.067a1.077 1.077 0 0 0-1.043.068l-.042.027-11.86 6.873-.047.021a1.048 1.048 0 0 0-.613.893l.019 11.375 6.322-9.798c.795-1.299 2.53-1.718 4.14-1.695l1.889.05L9.073 30.734l1.312.755L21.65 12.9l4.98-.018-11.237 19.06 4.683 2.693.56.321c.236.096.515.101.754.015l12.39-7.18-2.369 1.372-6.552-10.596Zm.96 13.837-4.73-7.423 2.888-4.9 6.211 9.79-4.369 2.533Z"/><path fill="#28A0F0" d="m21.09 24.98 4.73 7.423 4.369-2.531-6.211-9.79-2.887 4.899Zm13.08 1.913-.004-2.028-6.787-10.57-2.518 4.272 6.552 10.596 2.37-1.373a1.05 1.05 0 0 0 .387-.764v-.133Z"/><path fill="#fff" d="m5.728 28.807 3.345 1.927 11.133-17.852-1.89-.05c-1.61-.023-3.344.395-4.14 1.695l-6.321 9.798-2.127 3.267v1.215Zm20.903-15.925-4.98.018-11.265 18.59 3.938 2.267 1.07-1.816 11.237-19.06Z"/><path fill="#96BEDC" d="M36.267 12.856a3.171 3.171 0 0 0-1.49-2.55L22.4 3.187a3.22 3.22 0 0 0-2.84 0c-.104.052-12.039 6.974-12.039 6.974a3.148 3.148 0 0 0-1.792 2.688v14.744l2.127-3.268-.019-11.376a1.048 1.048 0 0 1 .438-.79c.056-.04 12.195-7.067 12.233-7.087.286-.143.648-.145.934-.004l12.219 7.028c.289.184.47.496.486.838v14.092a1.027 1.027 0 0 1-.365.764l-2.37 1.373-1.222.708-4.368 2.532-4.43 2.567a1.074 1.074 0 0 1-.755-.014l-5.242-3.015-1.07 1.816 4.71 2.712.408.231c.177.099.297.165.34.186.334.162.816.257 1.25.257.398 0 .786-.073 1.153-.217l12.87-7.452a3.146 3.146 0 0 0 1.212-2.37V12.855Z"/></svg>