<svg width="21" height="21" viewBox="0 0 21 21" fill="none" xmlns="http://www.w3.org/2000/svg">
<path fill-rule="evenodd" clip-rule="evenodd" d="M4.53185 14.4783C4.27096 13.6977 4.12964 12.8624 4.12964 11.994C4.12964 7.66844 7.63622 4.16187 11.9618 4.16187C12.8302 4.16187 13.6656 4.3032 14.4462 4.5641C13.2165 3.50966 11.6185 2.87262 9.87158 2.87262C5.98838 2.87262 2.84041 6.02058 2.84041 9.90379C2.84041 11.6506 3.47744 13.2487 4.53185 14.4783Z" fill="#8864FF"/>
<path fill-rule="evenodd" clip-rule="evenodd" d="M11.9618 19.0252C15.845 19.0252 18.993 15.8772 18.993 11.994C18.993 8.11079 15.845 4.96283 11.9618 4.96283C8.07858 4.96283 4.93062 8.11079 4.93062 11.994C4.93062 15.8772 8.07858 19.0252 11.9618 19.0252ZM11.7036 15.5331V16.2853H12.2534V15.5328C12.6714 15.5073 13.0357 15.4229 13.3464 15.2795C13.7263 15.1052 14.0158 14.8672 14.2147 14.5654C14.4159 14.2637 14.5164 13.9184 14.5164 13.5295C14.5164 13.221 14.455 12.9562 14.332 12.7349C14.2113 12.5136 14.0526 12.3281 13.856 12.1783C13.6593 12.0286 13.4458 11.9079 13.2156 11.8163C12.9854 11.7246 12.7608 11.652 12.5417 11.5983L12.2534 11.5234V9.37511C12.5366 9.40555 12.7791 9.48951 12.9809 9.62698C13.2402 9.80132 13.3877 10.0472 13.4235 10.3646H14.4226C14.4136 9.99577 14.3063 9.66945 14.1007 9.38559C13.8951 9.0995 13.6135 8.87487 13.2558 8.71171C12.9597 8.57575 12.6256 8.49644 12.2534 8.47377V7.70256H11.7036V8.48112C11.3702 8.51118 11.064 8.58917 10.7849 8.71506C10.4184 8.87822 10.1278 9.10732 9.91325 9.40235C9.69868 9.69739 9.5914 10.0427 9.5914 10.4383C9.5914 10.9166 9.75121 11.3011 10.0708 11.5916C10.3927 11.8822 10.8285 12.1023 11.3784 12.2521L11.7036 12.3408V14.6188C11.5379 14.6012 11.3814 14.5667 11.2342 14.5151C11.0129 14.4347 10.8308 14.3129 10.6877 14.1497C10.5469 13.9843 10.4664 13.7776 10.4463 13.5295H9.407C9.42935 13.9429 9.5467 14.3006 9.75903 14.6023C9.97137 14.9018 10.2653 15.1331 10.6408 15.2963C10.9485 15.43 11.3028 15.5089 11.7036 15.5331ZM12.2534 14.6169C12.433 14.5964 12.5984 14.5558 12.7496 14.495C12.9798 14.4011 13.1608 14.2715 13.2927 14.1061C13.4246 13.9385 13.4905 13.7429 13.4905 13.5194C13.4905 13.316 13.4324 13.1495 13.3162 13.0199C13.2022 12.8902 13.0469 12.7829 12.8502 12.698C12.6727 12.6205 12.4737 12.5513 12.2534 12.4906V14.6169ZM11.7036 11.3783V9.38066C11.5444 9.40155 11.4002 9.44007 11.2711 9.49623C11.0654 9.5834 10.9056 9.70409 10.7916 9.85831C10.6799 10.0103 10.624 10.1835 10.624 10.378C10.624 10.5411 10.662 10.6819 10.738 10.8004C10.8162 10.9189 10.9179 11.0183 11.0431 11.0988C11.1705 11.177 11.3068 11.243 11.4521 11.2966C11.5379 11.3269 11.6217 11.3542 11.7036 11.3783Z" fill="#8864FF"/>
</svg>
