<svg width="300" height="140" viewBox="0 0 300 140" fill="none" xmlns="http://www.w3.org/2000/svg">
<g opacity="0.6">
<circle opacity="0.78" cx="44.253" cy="78.2536" r="4.95" transform="rotate(-93 44.253 78.2536)" stroke="url(#paint0_linear_858_19333)" stroke-width="2"/>
<circle opacity="0.79" cx="209.455" cy="19.4554" r="2.4" transform="rotate(-135 209.455 19.4554)" stroke="#CFC1FF" stroke-width="1.5"/>
<circle opacity="0.88" cx="99.1989" cy="52.2093" r="3.4" transform="rotate(-40 99.1989 52.2093)" stroke="url(#paint1_linear_858_19333)" stroke-width="2"/>
<circle opacity="0.82" cx="234.589" cy="73.8289" r="4.55" transform="rotate(-138 234.589 73.8289)" stroke="#CFC1FF" stroke-width="2"/>
<circle opacity="0.97" cx="148.902" cy="99.4311" r="2" transform="rotate(60 148.902 99.4311)" stroke="#CFC1FF" stroke-width="2"/>
<circle opacity="0.82" cx="219.758" cy="114.509" r="3.4" transform="rotate(38 219.758 114.509)" stroke="url(#paint2_linear_858_19333)" stroke-width="2"/>
<path opacity="0.81" fill-rule="evenodd" clip-rule="evenodd" d="M113.392 55.7776C113.569 55.9891 113.884 56.0167 114.096 55.8392C114.307 55.6617 114.335 55.3463 114.158 55.1348L113.46 54.3031L114.291 53.6052C114.503 53.4277 114.531 53.1123 114.353 52.9008C114.176 52.6892 113.86 52.6617 113.649 52.8392L112.817 53.537L112.119 52.7053C111.941 52.4938 111.626 52.4662 111.415 52.6437C111.203 52.8212 111.175 53.1366 111.353 53.3481L112.051 54.1798L111.219 54.8777C111.008 55.0552 110.98 55.3706 111.158 55.5821C111.335 55.7937 111.65 55.8213 111.862 55.6438L112.694 54.9459L113.392 55.7776Z" fill="url(#paint3_linear_858_19333)"/>
<path fill-rule="evenodd" clip-rule="evenodd" d="M197.945 47.9202C198.017 47.6535 197.859 47.3793 197.592 47.3078C197.325 47.2364 197.051 47.3947 196.979 47.6614L196.46 49.6002L194.521 49.0807C194.255 49.0092 193.98 49.1675 193.909 49.4342C193.837 49.701 193.996 49.9751 194.262 50.0466L196.201 50.5661L195.682 52.5048C195.61 52.7716 195.769 53.0457 196.035 53.1172C196.302 53.1887 196.576 53.0304 196.648 52.7636L197.167 50.8249L199.106 51.3444C199.373 51.4159 199.647 51.2576 199.718 50.9908C199.79 50.7241 199.631 50.4499 199.365 50.3785L197.426 49.859L197.945 47.9202Z" fill="url(#paint4_linear_858_19333)"/>
<path opacity="0.78" fill-rule="evenodd" clip-rule="evenodd" d="M18.7947 91.1226C18.9795 91.3278 19.2956 91.3444 19.5009 91.1596C19.7061 90.9749 19.7226 90.6587 19.5379 90.4535L18.4386 89.2326L19.6595 88.1333C19.8647 87.9486 19.8812 87.6324 19.6965 87.4272C19.5117 87.222 19.1955 87.2054 18.9903 87.3902L17.7694 88.4895L16.6702 87.2686C16.4854 87.0634 16.1692 87.0468 15.964 87.2316C15.7588 87.4164 15.7422 87.7325 15.927 87.9377L17.0263 89.1586L15.8054 90.2579C15.6002 90.4427 15.5836 90.7588 15.7684 90.964C15.9532 91.1692 16.2693 91.1858 16.4746 91.001L17.6954 89.9017L18.7947 91.1226Z" fill="url(#paint5_linear_858_19333)"/>
<path opacity="0.72" fill-rule="evenodd" clip-rule="evenodd" d="M261.346 87.1078C261.418 87.3745 261.692 87.5328 261.959 87.4613C262.226 87.3899 262.384 87.1157 262.312 86.849L261.882 85.2414L263.489 84.8106C263.756 84.7392 263.914 84.465 263.843 84.1983C263.771 83.9315 263.497 83.7732 263.23 83.8447L261.623 84.2755L261.192 82.6679C261.121 82.4012 260.846 82.2429 260.58 82.3143C260.313 82.3858 260.155 82.66 260.226 82.9267L260.657 84.5343L259.049 84.965C258.783 85.0365 258.624 85.3107 258.696 85.5774C258.767 85.8441 259.041 86.0024 259.308 85.931L260.916 85.5002L261.346 87.1078Z" fill="url(#paint6_linear_858_19333)"/>
<rect opacity="0.92" x="75" y="35" width="2.64" height="2.64" transform="rotate(-63 75 35)" fill="url(#paint7_linear_858_19333)"/>
<rect opacity="0.87" x="101.022" y="89.8652" width="3.09" height="3.09" transform="rotate(158 101.022 89.8652)" fill="url(#paint8_linear_858_19333)"/>
<rect opacity="0.76" x="253" y="35" width="2.31" height="2.31" transform="rotate(-76 253 35)" fill="url(#paint9_linear_858_19333)"/>
<rect opacity="0.87" x="17" y="62.667" width="2.22" height="2.22" transform="rotate(-137 17 62.667)" fill="url(#paint10_linear_858_19333)"/>
<rect opacity="0.86" x="193" y="75.667" width="2.85" height="2.85" transform="rotate(-29 193 75.667)" fill="url(#paint11_linear_858_19333)"/>
<rect x="213" y="63.667" width="2.19" height="2.19" transform="rotate(-24 213 63.667)" fill="url(#paint12_linear_858_19333)"/>
<rect opacity="0.79" x="58" y="121.333" width="2.94" height="2.94" transform="rotate(10 58 121.333)" fill="url(#paint13_linear_858_19333)"/>
<rect opacity="0.96" x="162" y="127.333" width="3.15" height="3.15" transform="rotate(84 162 127.333)" fill="url(#paint14_linear_858_19333)"/>
<rect opacity="0.85" x="291" y="128.333" width="2.64" height="2.64" transform="rotate(28 291 128.333)" fill="url(#paint15_linear_858_19333)"/>
</g>
<defs>
<linearGradient id="paint0_linear_858_19333" x1="44.253" y1="72.3036" x2="44.253" y2="84.2036" gradientUnits="userSpaceOnUse">
<stop stop-color="#B29BFF"/>
<stop offset="1" stop-color="#CA87FF"/>
</linearGradient>
<linearGradient id="paint1_linear_858_19333" x1="99.1989" y1="56.6093" x2="99.1989" y2="47.8093" gradientUnits="userSpaceOnUse">
<stop stop-color="#FABD9B"/>
<stop offset="1" stop-color="#FF94B4"/>
</linearGradient>
<linearGradient id="paint2_linear_858_19333" x1="219.758" y1="118.909" x2="219.758" y2="110.109" gradientUnits="userSpaceOnUse">
<stop stop-color="#FB9EE6"/>
<stop offset="1" stop-color="#FF8CAF"/>
</linearGradient>
<linearGradient id="paint3_linear_858_19333" x1="114.096" y1="55.8392" x2="111.415" y2="52.6437" gradientUnits="userSpaceOnUse">
<stop stop-color="#FB9EE6"/>
<stop offset="1" stop-color="#FF8CAF"/>
</linearGradient>
<linearGradient id="paint4_linear_858_19333" x1="196.035" y1="53.1172" x2="197.843" y2="46.371" gradientUnits="userSpaceOnUse">
<stop stop-color="#F89FE4"/>
<stop offset="1" stop-color="#CA86FF"/>
</linearGradient>
<linearGradient id="paint5_linear_858_19333" x1="15.964" y1="87.2316" x2="20.0713" y2="91.7931" gradientUnits="userSpaceOnUse">
<stop stop-color="#F89FE4"/>
<stop offset="1" stop-color="#CA86FF"/>
</linearGradient>
<linearGradient id="paint6_linear_858_19333" x1="261.959" y1="87.4613" x2="260.58" y2="82.3143" gradientUnits="userSpaceOnUse">
<stop stop-color="#FABD9B"/>
<stop offset="1" stop-color="#FF94B4"/>
</linearGradient>
<linearGradient id="paint7_linear_858_19333" x1="76.32" y1="37.64" x2="76.32" y2="35" gradientUnits="userSpaceOnUse">
<stop stop-color="#FB9EE6"/>
<stop offset="1" stop-color="#FF8CAF"/>
</linearGradient>
<linearGradient id="paint8_linear_858_19333" x1="102.567" y1="92.9552" x2="102.567" y2="89.8652" gradientUnits="userSpaceOnUse">
<stop stop-color="#FB9EE6"/>
<stop offset="1" stop-color="#FF8CAF"/>
</linearGradient>
<linearGradient id="paint9_linear_858_19333" x1="254.155" y1="37.31" x2="254.155" y2="35" gradientUnits="userSpaceOnUse">
<stop stop-color="#FB9EE6"/>
<stop offset="1" stop-color="#FF8CAF"/>
</linearGradient>
<linearGradient id="paint10_linear_858_19333" x1="18.11" y1="64.887" x2="18.11" y2="62.667" gradientUnits="userSpaceOnUse">
<stop stop-color="#FB9EE6"/>
<stop offset="1" stop-color="#FF8CAF"/>
</linearGradient>
<linearGradient id="paint11_linear_858_19333" x1="194.425" y1="78.517" x2="194.425" y2="75.667" gradientUnits="userSpaceOnUse">
<stop stop-color="#FB9EE6"/>
<stop offset="1" stop-color="#FF8CAF"/>
</linearGradient>
<linearGradient id="paint12_linear_858_19333" x1="214.095" y1="65.857" x2="214.095" y2="63.667" gradientUnits="userSpaceOnUse">
<stop stop-color="#FB9EE6"/>
<stop offset="1" stop-color="#FF8CAF"/>
</linearGradient>
<linearGradient id="paint13_linear_858_19333" x1="59.47" y1="124.273" x2="59.47" y2="121.333" gradientUnits="userSpaceOnUse">
<stop stop-color="#FB9EE6"/>
<stop offset="1" stop-color="#FF8CAF"/>
</linearGradient>
<linearGradient id="paint14_linear_858_19333" x1="163.575" y1="130.483" x2="163.575" y2="127.333" gradientUnits="userSpaceOnUse">
<stop stop-color="#FB9EE6"/>
<stop offset="1" stop-color="#FF8CAF"/>
</linearGradient>
<linearGradient id="paint15_linear_858_19333" x1="292.32" y1="130.973" x2="292.32" y2="128.333" gradientUnits="userSpaceOnUse">
<stop stop-color="#FB9EE6"/>
<stop offset="1" stop-color="#FF8CAF"/>
</linearGradient>
</defs>
</svg>
