<svg width="24" height="24" viewBox="0 0 24 24" fill="none" xmlns="http://www.w3.org/2000/svg">
<g id="L/Close">
<path id="Union" fill-rule="evenodd" clip-rule="evenodd" d="M6.16656 5.10541C5.87367 4.81252 5.39879 4.81252 5.1059 5.10541C4.81301 5.39831 4.81301 5.87318 5.1059 6.16607L10.9396 11.9998L5.10601 17.8333C4.81311 18.1262 4.81311 18.6011 5.10601 18.894C5.3989 19.1869 5.87377 19.1869 6.16667 18.894L12.0002 13.0604L17.8338 18.894C18.1267 19.1869 18.6016 19.1869 18.8945 18.894C19.1874 18.6011 19.1874 18.1262 18.8945 17.8333L13.0609 11.9998L18.8946 6.16607C19.1875 5.87318 19.1875 5.39831 18.8946 5.10541C18.6017 4.81252 18.1268 4.81252 17.8339 5.10541L12.0002 10.9391L6.16656 5.10541Z" fill="#5E5F6E"/>
</g>
</svg>
