<svg width="21" height="20" viewBox="0 0 21 20" fill="none" xmlns="http://www.w3.org/2000/svg">
<g id="&#233;&#147;&#190;&#230;&#142;&#165;_Connect">
<path id="&#229;&#189;&#162;&#231;&#138;&#182;&#231;&#187;&#147;&#229;&#144;&#136;" d="M12.5036 8.32274C13.6883 9.50759 13.7932 11.3774 12.7876 12.684L12.6502 12.8511L12.5036 13.0074L9.55449 15.9564L9.42595 16.0793C8.53564 16.8882 7.29407 17.1909 6.12963 16.8801C4.90412 16.553 3.94692 15.5959 3.61984 14.3704C3.33451 13.3013 3.56612 12.1663 4.2354 11.2959L4.38549 11.1135L4.54501 10.9441L5.51182 9.97741L5.58435 9.9153C5.76522 9.78152 5.9985 9.74535 6.21401 9.81557L6.31995 9.85958L6.42765 9.9296L6.49827 9.99363L6.55911 10.065C6.69044 10.2439 6.72528 10.4766 6.6549 10.6915L6.61089 10.7971L6.54085 10.9047L6.48299 10.9696L5.52834 11.9239L5.42586 12.031C4.94457 12.5694 4.76472 13.3157 4.94973 14.0165C5.14772 14.7665 5.73347 15.3523 6.48348 15.5503C7.11051 15.7158 7.77432 15.5893 8.29105 15.2173L8.44147 15.0984L8.57526 14.9725L11.5192 12.0287L11.6118 11.9297C12.2359 11.2148 12.2403 10.1553 11.6412 9.43538L11.5218 9.30455C11.5036 9.28639 11.4861 9.26326 11.4684 9.23407L11.4415 9.1856L11.4067 9.11012L11.3764 9.03149L11.3529 8.94993C11.2805 8.61962 11.4642 8.28234 11.7855 8.16446C12.0353 8.07285 12.3155 8.13461 12.5036 8.32274ZM15.9837 3.63585L16.1657 3.772L16.3368 3.91772L16.4648 4.03973L16.5848 4.16583C17.7431 5.44393 17.8033 7.36608 16.7575 8.71365L16.6148 8.88606L16.4625 9.0482L15.4961 10.0147L15.4236 10.0768C15.2428 10.2106 15.0096 10.2468 14.7941 10.1766L14.6881 10.1326L14.5805 10.0627L14.5099 9.99868L14.449 9.92732C14.3177 9.74853 14.2829 9.51599 14.3532 9.30122L14.3971 9.19564L14.4671 9.088L14.5251 9.02302L15.4798 8.06862L15.5823 7.96154C16.0636 7.42312 16.2434 6.67681 16.0584 5.976C15.8604 5.22601 15.2747 4.64026 14.5247 4.44228C13.8976 4.27676 13.2338 4.40323 12.7171 4.77521L12.5667 4.89413L12.4329 5.02003L9.48894 7.96382L9.39688 8.06221C8.84929 8.68911 8.77231 9.59425 9.18322 10.296L9.27875 10.443L9.39009 10.5845L9.48911 10.691L9.55137 10.7635C9.75679 11.0397 9.7307 11.425 9.48619 11.6694C9.24471 11.9108 8.86352 11.9407 8.5873 11.7398C8.55608 11.717 8.52844 11.6937 8.50453 11.6698C7.31984 10.485 7.2149 8.61518 8.22051 7.30854L8.35798 7.1414L8.50454 6.98511L11.4539 4.03588L11.5842 3.91209C12.8144 2.80068 14.6454 2.70064 15.9837 3.63585Z" fill="white"/>
</g>
</svg>
