<svg width="21" height="20" viewBox="0 0 21 20" fill="none" xmlns="http://www.w3.org/2000/svg">
<g id="S/Copy">
<path id="Union" fill-rule="evenodd" clip-rule="evenodd" d="M18 14.8214V3.03571C18 2.87929 17.9499 2.75089 17.8495 2.65054C17.7491 2.55018 17.6207 2.5 17.4643 2.5H7.82143C7.665 2.5 7.53661 2.55018 7.43625 2.65054C7.33589 2.75089 7.28571 2.87929 7.28571 3.03571V4.64286H8.35714V3.57143H16.9286V14.2857H15.8571V15.3571H17.4643C17.6207 15.3571 17.7491 15.307 17.8495 15.2066C17.9499 15.1062 18 14.9779 18 14.8214ZM3.53571 5.71429H14.25C14.4064 5.71429 14.5348 5.76446 14.6352 5.86482C14.7356 5.96518 14.7857 6.09357 14.7857 6.25V16.9643C14.7857 17.1207 14.7356 17.2491 14.6352 17.3495C14.5348 17.4499 14.4064 17.5 14.25 17.5H3.53571C3.37929 17.5 3.25089 17.4499 3.15054 17.3495C3.05018 17.2491 3 17.1207 3 16.9643V6.25C3 6.09357 3.05018 5.96518 3.15054 5.86482C3.25089 5.76446 3.37929 5.71429 3.53571 5.71429ZM4.07143 6.78571V16.4286H13.7143V6.78571H4.07143Z" fill="#5E5F6E"/>
</g>
</svg>
