<svg width="16" height="16" viewBox="0 0 16 16" fill="none" xmlns="http://www.w3.org/2000/svg">
<path fill-rule="evenodd" clip-rule="evenodd" d="M2.5 4H1.5C1.354 4 1.23417 3.95317 1.1405 3.8595C1.04683 3.76583 1 3.646 1 3.5C1 3.354 1.04683 3.23417 1.1405 3.1405C1.23417 3.04683 1.354 3 1.5 3H5.5V1.5C5.5 1.354 5.54683 1.23417 5.6405 1.1405C5.73417 1.04683 5.854 1 6 1H10C10.146 1 10.2658 1.04683 10.3595 1.1405C10.4532 1.23417 10.5 1.354 10.5 1.5V3H14.5C14.646 3 14.7658 3.04683 14.8595 3.1405C14.9532 3.23417 15 3.354 15 3.5C15 3.646 14.9532 3.76583 14.8595 3.8595C14.7658 3.95317 14.646 4 14.5 4H13.5V14.5C13.5 14.646 13.4532 14.7658 13.3595 14.8595C13.2658 14.9532 13.146 15 13 15H3C2.854 15 2.73417 14.9532 2.6405 14.8595C2.54683 14.7658 2.5 14.646 2.5 14.5V4ZM9.5 3V2H6.5V3H9.5ZM12.5 14H3.5V4H12.5V14ZM6.5 12C6.354 12 6.23417 11.9532 6.1405 11.8595C6.04683 11.7658 6 11.646 6 11.5V6.5C6 6.354 6.04683 6.23417 6.1405 6.1405C6.23417 6.04683 6.354 6 6.5 6C6.646 6 6.76583 6.04683 6.8595 6.1405C6.95317 6.23417 7 6.354 7 6.5V11.5C7 11.646 6.95317 11.7658 6.8595 11.8595C6.76583 11.9532 6.646 12 6.5 12ZM9.1405 11.8595C9.23417 11.9532 9.354 12 9.5 12C9.646 12 9.76583 11.9532 9.8595 11.8595C9.95317 11.7658 10 11.646 10 11.5V6.5C10 6.354 9.95317 6.23417 9.8595 6.1405C9.76583 6.04683 9.646 6 9.5 6C9.354 6 9.23417 6.04683 9.1405 6.1405C9.04683 6.23417 9 6.354 9 6.5V11.5C9 11.646 9.04683 11.7658 9.1405 11.8595Z" fill="#5E5F6E"/>
</svg>
