<svg width="20" height="20" viewBox="0 0 20 20" fill="none" xmlns="http://www.w3.org/2000/svg">
<path d="M12 15.3333C12.2951 15.3333 12.5496 15.5263 12.6364 15.8044L12.6589 15.9L12.6667 16L12.6665 17.3395L12.6615 17.4168C12.62 17.7485 12.3371 18 12 18C11.7049 18 11.4504 17.807 11.3636 17.529L11.3411 17.4333L11.3333 17.3333L11.3335 15.9938L11.3385 15.9165C11.38 15.5848 11.6629 15.3333 12 15.3333ZM15.1044 14.3218L15.2178 14.3549L15.3152 14.402L15.3846 14.4495L15.4475 14.5047L16.6715 15.7281L16.7264 15.7913C16.8616 15.969 16.8971 16.2011 16.8246 16.4125L16.7793 16.5161L16.7184 16.6078L16.6573 16.6753L16.5949 16.7293C16.397 16.8787 16.1311 16.9021 15.9051 16.7938L15.8109 16.7393L15.723 16.6657L14.5014 15.4438L14.4464 15.3805C14.2455 15.1166 14.2691 14.7423 14.5053 14.5053C14.6645 14.3457 14.8902 14.2801 15.1044 14.3218ZM11.8318 8.46647C12.9149 9.54977 13.0108 11.2593 12.0914 12.4539L11.9657 12.6067L11.8318 12.7496L9.13548 15.4459L9.01796 15.5582C8.20398 16.2978 7.06886 16.5745 6.00425 16.2904C4.88381 15.9913 4.00867 15.1162 3.70963 13.9958C3.44877 13.0183 3.66052 11.9806 4.27242 11.1848L4.40964 11.018L4.55549 10.8631L5.43941 9.97932L5.50572 9.92253C5.67109 9.80022 5.88436 9.76715 6.08139 9.83135L6.17826 9.87159L6.27672 9.9356L6.34129 9.99415L6.39691 10.0594C6.51698 10.223 6.54884 10.4357 6.48448 10.6322L6.44425 10.7287L6.38021 10.8272L6.32731 10.8865L5.45451 11.759L5.36082 11.8569C4.92079 12.3492 4.75636 13.0315 4.92551 13.6722C5.10652 14.3579 5.64206 14.8935 6.32776 15.0745C6.90104 15.2258 7.50793 15.1102 7.98036 14.7701L8.11788 14.6614L8.2402 14.5463L10.9317 11.8548L11.0164 11.7643C11.587 11.1107 11.591 10.1419 11.0433 9.48375L10.9341 9.36414C10.9175 9.34753 10.9015 9.32638 10.8853 9.29969L10.8607 9.25538L10.8289 9.18637L10.8012 9.11448L10.7797 9.0399C10.7135 8.73791 10.8814 8.42954 11.1752 8.32177C11.4036 8.23801 11.6598 8.29448 11.8318 8.46647ZM17.3333 11.3333C17.7015 11.3333 18 11.6318 18 12C18 12.2951 17.807 12.5496 17.529 12.6364L17.4333 12.6589L17.3333 12.6667L15.9938 12.6665L15.9165 12.6615C15.5848 12.62 15.3333 12.3371 15.3333 12C15.3333 11.7049 15.5263 11.4504 15.8044 11.3636L15.9 11.3411L16 11.3333H17.3333ZM15.0135 4.18132L15.1799 4.3058L15.3363 4.43903L15.4533 4.55058L15.563 4.66587C16.622 5.83443 16.6771 7.59181 15.7209 8.82388L15.5905 8.98152L15.4512 9.12976L14.5677 10.0134L14.5014 10.0702C14.3361 10.1925 14.1229 10.2256 13.9259 10.1615L13.829 10.1212L13.7306 10.0573L13.666 9.99877L13.6104 9.93353C13.4904 9.77006 13.4585 9.55745 13.5227 9.36108L13.5629 9.26456L13.6269 9.16614L13.6799 9.10673L14.5528 8.23414L14.6465 8.13624C15.0865 7.64396 15.2509 6.96163 15.0818 6.32088C14.9008 5.63518 14.3652 5.09964 13.6795 4.91863C13.1063 4.76729 12.4994 4.88293 12.0269 5.22302L11.8894 5.33175L11.7671 5.44686L9.07555 8.13832L8.99139 8.22828C8.49074 8.80145 8.42036 9.629 8.79604 10.2706L8.88338 10.405L8.98517 10.5344L9.07571 10.6318L9.13263 10.6981C9.32043 10.9506 9.29658 11.3028 9.07303 11.5263C8.85226 11.747 8.50375 11.7743 8.25121 11.5906C8.22267 11.5698 8.1974 11.5485 8.17554 11.5266C7.09242 10.4434 6.99648 8.73386 7.91587 7.53921L8.04155 7.3864L8.17555 7.2435L10.872 4.54706L10.9911 4.43388C12.1159 3.41773 13.7899 3.32627 15.0135 4.18132ZM4 7.33333C4.36819 7.33333 4.66667 7.63181 4.66667 8C4.66667 8.26485 4.51043 8.50013 4.27129 8.60807L4.17787 8.64239L4.07174 8.6627L3.99423 8.66683L2.66047 8.66647L2.58317 8.66148C2.25148 8.61997 2 8.33708 2 8C2 7.73515 2.15624 7.49987 2.39538 7.39193L2.4888 7.35761L2.59493 7.3373L2.67244 7.33317L4 7.33333ZM4.0118 3.1702L4.11825 3.21591L4.21902 3.28178L4.28138 3.3374L5.50006 4.55743L5.55503 4.62071C5.75575 4.8846 5.73187 5.2588 5.49533 5.49533C5.31524 5.67543 5.05189 5.73431 4.81216 5.65494L4.71117 5.61241L4.61047 5.54663L4.54814 5.49108L3.32803 4.27037L3.27311 4.20708C3.07255 3.94317 3.09666 3.56901 3.33333 3.33267C3.5137 3.15255 3.7773 3.09376 4.0118 3.1702ZM8 2C8.26485 2 8.50013 2.15624 8.60807 2.39538L8.64239 2.4888L8.6627 2.59493L8.66683 2.67244L8.66647 4.0062L8.66148 4.0835C8.61997 4.41518 8.33708 4.66667 8 4.66667C7.73515 4.66667 7.49987 4.51043 7.39193 4.27129L7.35761 4.17787L7.3373 4.07174L7.33317 3.99423L7.33353 2.66047L7.33852 2.58317C7.38003 2.25148 7.66292 2 8 2Z" fill="#E85050"/>
</svg>
