<svg width="278" height="278" viewBox="0 0 278 278" fill="none" xmlns="http://www.w3.org/2000/svg">
<path d="M75.1818 208.903V68.1045L75.1393 68.0833H153.182V103.278C153.182 111.052 159.549 117.375 167.378 117.375H202.769C202.776 117.488 202.818 117.636 202.818 117.741L202.875 208.917L75.1818 208.903ZM193.437 103.292L167.364 103.278V75.1532L193.437 103.292ZM210.292 100.679L173.979 61.4923C169.959 57.1547 162.769 54 156.876 54H75.1393C71.3823 54.013 67.7839 55.5053 65.1333 58.1493C62.4827 60.7934 60.9962 64.3735 61 68.1045V208.903C60.9962 212.63 62.4809 216.208 65.1287 218.85C67.7764 221.493 71.3712 222.985 75.1251 223H202.875C206.631 222.985 210.228 221.491 212.876 218.845C215.524 216.2 217.008 212.619 217 208.888V117.741C217 112.051 214.178 104.876 210.292 100.679Z" fill="#5E5F6E"/>
<path d="M167 138H111C109.143 138 107.363 138.753 106.05 140.092C104.737 141.432 104 143.248 104 145.143C104 147.037 104.737 148.854 106.05 150.194C107.363 151.533 109.143 152.286 111 152.286H167C168.857 152.286 170.637 151.533 171.95 150.194C173.263 148.854 174 147.037 174 145.143C174 143.248 173.263 141.432 171.95 140.092C170.637 138.753 168.857 138 167 138ZM167 173.714H111C109.143 173.714 107.363 174.467 106.05 175.806C104.737 177.146 104 178.963 104 180.857C104 182.752 104.737 184.568 106.05 185.908C107.363 187.247 109.143 188 111 188H167C168.857 188 170.637 187.247 171.95 185.908C173.263 184.568 174 182.752 174 180.857C174 178.963 173.263 177.146 171.95 175.806C170.637 174.467 168.857 173.714 167 173.714Z" fill="#5E5F6E"/>
</svg>
