<svg width="16" height="16" viewBox="0 0 16 16" fill="none" xmlns="http://www.w3.org/2000/svg">
<path d="M12.9281 8.19206C12.9281 8.04274 12.9761 7.92006 13.0721 7.82406C13.1681 7.72806 13.2907 7.68006 13.4401 7.68006C13.5894 7.68006 13.7121 7.72806 13.8081 7.82406C13.9041 7.92006 13.9521 8.04274 13.9521 8.19206V13.8241C13.9521 13.9734 13.9041 14.0961 13.8081 14.1921C13.7121 14.2881 13.5894 14.3361 13.4401 14.3361H2.17606C2.02673 14.3361 1.90406 14.2881 1.80806 14.1921C1.71206 14.0961 1.66406 13.9734 1.66406 13.8241V2.56006C1.66406 2.41073 1.71206 2.28806 1.80806 2.19206C1.90406 2.09606 2.02673 2.04806 2.17606 2.04806H7.80806C7.95739 2.04806 8.08006 2.09606 8.17606 2.19206C8.27206 2.28806 8.32006 2.41073 8.32006 2.56006C8.32006 2.70939 8.27206 2.83206 8.17606 2.92806C8.08006 3.02406 7.95739 3.07206 7.80806 3.07206H2.68806V13.3121H12.9281V8.19206ZM7.13606 8.86406L7.98406 8.75206L13.1681 3.55206C13.3067 3.41339 13.3521 3.25073 13.3041 3.06406C13.2561 2.87739 13.1361 2.75739 12.9441 2.70406C12.7521 2.65073 12.5867 2.69339 12.4481 2.83206L7.24806 8.01606L7.13606 8.86406ZM13.8881 2.11206C14.1867 2.41073 14.3361 2.77073 14.3361 3.19206C14.3361 3.61339 14.1867 3.97873 13.8881 4.28806L8.59206 9.58406C8.50673 9.66939 8.40539 9.72273 8.28806 9.74406L6.60806 9.98406C6.43739 10.0054 6.29339 9.95473 6.17606 9.83206C6.05873 9.70939 6.01073 9.56273 6.03206 9.39206L6.27206 7.71206C6.28273 7.59473 6.33073 7.49873 6.41606 7.42406L11.7281 2.11206C12.0374 1.81339 12.3974 1.66406 12.8081 1.66406C13.2187 1.66406 13.5787 1.81339 13.8881 2.11206Z" fill="#5E5F6E"/>
</svg>
