<svg width="120" height="120" viewBox="0 0 120 120" fill="none" xmlns="http://www.w3.org/2000/svg">
<g opacity="0.5">
<path fill-rule="evenodd" clip-rule="evenodd" d="M110.526 107.369C110.526 114.345 87.9048 120 60 120C32.0951 120 9.47363 114.345 9.47363 107.369C9.47363 100.393 32.0951 94.7373 60 94.7373C87.9048 94.7373 110.526 100.393 110.526 107.369Z" fill="#E5E5E5"/>
<path fill-rule="evenodd" clip-rule="evenodd" d="M36.6588 79.5782C37.3746 81.5449 39.5491 82.5589 41.5158 81.8431L85.5983 65.7983C87.565 65.0825 88.579 62.908 87.8632 60.9413L67.095 3.88109C66.3792 1.91443 64.2046 0.900424 62.2379 1.61623L18.1554 17.661C16.1888 18.3768 15.1748 20.5513 15.8906 22.518L36.6588 79.5782Z" fill="white" stroke="#999999" stroke-width="1.2"/>
<path fill-rule="evenodd" clip-rule="evenodd" d="M33.6442 21.8467V69.4443L37.9668 81.3211L41.1882 82.2723L88.1348 65.1848V59.8363L74.308 21.8467H33.6442Z" fill="#E5E5E5"/>
<path fill-rule="evenodd" clip-rule="evenodd" d="M36.6588 79.5782C37.3746 81.5449 39.5491 82.5589 41.5158 81.8431L85.5983 65.7983C87.565 65.0825 88.579 62.908 87.8632 60.9413L67.095 3.88109C66.3792 1.91443 64.2046 0.900424 62.2379 1.61623L18.1554 17.661C16.1888 18.3768 15.1748 20.5513 15.8906 22.518L36.6588 79.5782Z" stroke="#999999" stroke-width="1.26316"/>
<path fill-rule="evenodd" clip-rule="evenodd" d="M39.5919 69.5547C39.5919 71.6475 41.2885 73.3441 43.3814 73.3441H90.293C92.3859 73.3441 94.0825 71.6475 94.0825 69.5547V8.83244C94.0825 6.73957 92.3859 5.04297 90.293 5.04297H43.3814C41.2885 5.04297 39.5919 6.73957 39.5919 8.83244V69.5547Z" fill="white"/>
<path fill-rule="evenodd" clip-rule="evenodd" d="M39.5919 69.5547C39.5919 71.6475 41.2885 73.3441 43.3814 73.3441H90.293C92.3859 73.3441 94.0825 71.6475 94.0825 69.5547V8.83244C94.0825 6.73957 92.3859 5.04297 90.293 5.04297H43.3814C41.2885 5.04297 39.5919 6.73957 39.5919 8.83244V69.5547Z" stroke="#999999" stroke-width="1.2" stroke-linecap="round" stroke-linejoin="round"/>
<path fill-rule="evenodd" clip-rule="evenodd" d="M42.6179 70.6945H91.0566L54.0537 7.58105H42.6179V70.6945Z" fill="#F9F9F9"/>
<path fill-rule="evenodd" clip-rule="evenodd" d="M48.9015 27.0119H79.1622V19.4902H48.9015V27.0119Z" fill="#E5E5E5"/>
<path fill-rule="evenodd" clip-rule="evenodd" d="M48.9287 38.2521H82.5035V30.7305H48.9287V38.2521Z" fill="#E5E5E5"/>
<path fill-rule="evenodd" clip-rule="evenodd" d="M48.8551 49.4914H73.7304V41.9697H48.8551V49.4914Z" fill="#E5E5E5"/>
</g>
</svg>
