<svg width="16" height="16" viewBox="0 0 16 16" fill="none" xmlns="http://www.w3.org/2000/svg">
<path d="M13.2101 13.7055H2.79028C2.51673 13.7055 2.29541 13.4842 2.29541 13.2106V2.79077C2.29541 2.51722 2.51673 2.2959 2.79028 2.2959H7.10807C7.38162 2.2959 7.60294 2.51722 7.60294 2.79077C7.60294 3.06433 7.38162 3.28565 7.10807 3.28565H3.28516V12.7158H12.7153V8.91485C12.7153 8.64129 12.9366 8.41997 13.2101 8.41997C13.4837 8.41997 13.705 8.64129 13.705 8.91485V13.2106C13.705 13.4842 13.4837 13.7055 13.2101 13.7055Z" fill="#5E5F6E"/>
<path d="M13.7033 2.75632V2.74944C13.702 2.72607 13.6978 2.70408 13.6937 2.68209C13.6937 2.68071 13.6937 2.67934 13.6923 2.67796C13.6868 2.65459 13.68 2.6326 13.6717 2.6106V2.60923C13.6635 2.58723 13.6525 2.56661 13.6415 2.546C13.6415 2.54462 13.6401 2.54462 13.6401 2.54325C13.6291 2.524 13.6167 2.50476 13.603 2.48688C13.6016 2.48551 13.6002 2.48276 13.5989 2.48139C13.592 2.47314 13.5865 2.46627 13.5796 2.45802C13.5796 2.45664 13.5782 2.45664 13.5782 2.45527C13.5714 2.44702 13.5645 2.44015 13.5562 2.43327L13.5507 2.42777C13.5439 2.4209 13.5356 2.41403 13.5288 2.40716L13.5274 2.40578C13.5191 2.39891 13.5109 2.39203 13.5013 2.38654C13.4999 2.38516 13.4971 2.38379 13.4958 2.38241C13.4765 2.36866 13.4573 2.35767 13.4367 2.34667L13.4353 2.3453C13.4133 2.3343 13.3913 2.32468 13.3679 2.3178C13.3459 2.31093 13.3226 2.30406 13.2992 2.30131C13.2978 2.30131 13.2964 2.30131 13.2951 2.29993L13.2621 2.29581H13.2579C13.2483 2.29443 13.2401 2.29443 13.2305 2.29443H9.74708C9.47353 2.29443 9.25221 2.51575 9.25221 2.78931C9.25221 3.06286 9.47353 3.28418 9.74708 3.28418H12.0153L7.65074 7.65008C7.45691 7.84391 7.45691 8.15733 7.65074 8.34978C7.74697 8.446 7.87343 8.49412 8.00128 8.49412C8.12774 8.49412 8.25421 8.446 8.35181 8.34978L12.715 3.98526V6.22319C12.715 6.49675 12.9363 6.71806 13.2098 6.71806C13.4834 6.71806 13.7047 6.49675 13.7047 6.22319V2.79068C13.7047 2.77969 13.7047 2.76731 13.7033 2.75632Z" fill="#5E5F6E"/>
</svg>
