<svg width="20" height="20" viewBox="0 0 20 20" fill="none" xmlns="http://www.w3.org/2000/svg">
<g id="FAQ">
<path id="Vector" d="M10.0001 16.6129C11.3723 16.6129 16.6132 16.6129 16.6132 16.6129C16.6132 16.6129 14.3787 14.9735 14.6762 14.676C15.873 13.4792 16.6132 11.826 16.6132 9.99982C16.6132 8.17368 15.873 6.5204 14.6762 5.32365C13.4795 4.12692 11.8262 3.38672 10.0001 3.38672C8.17392 3.38672 6.52065 4.12692 5.32389 5.32365C4.12716 6.5204 3.38696 8.17368 3.38696 9.99982C3.38696 11.826 4.12716 13.4792 5.32389 14.676C6.52065 15.8727 8.17392 16.6129 10.0001 16.6129Z" stroke="#5E5F6E" stroke-width="1.3" stroke-linejoin="round"/>
<path id="Union" d="M8.53373 8.39605L8.57287 8.43834L8.60922 8.39364C9.01272 7.8975 9.41623 7.63504 9.9026 7.63504C10.2236 7.63504 10.4748 7.71665 10.6451 7.86496C10.8144 8.01241 10.91 8.2312 10.91 8.51947C10.91 8.70918 10.8349 8.87504 10.713 9.03575C10.5903 9.19747 10.4233 9.35018 10.2434 9.5144L10.2394 9.51814C9.76352 9.9526 9.20884 10.4591 9.31172 11.3677L9.31675 11.4121H9.3614H10.4438H10.4989L10.4936 11.3572C10.4293 10.7022 10.8363 10.3341 11.2815 9.93536L11.2863 9.93107C11.7194 9.54314 12.184 9.12698 12.184 8.3916C12.184 7.72557 11.9589 7.21683 11.575 6.87515C11.192 6.53423 10.6566 6.36455 10.0441 6.36455C9.13307 6.36455 8.38681 6.85797 7.84735 7.59485L7.82301 7.6281L7.851 7.65835L8.53373 8.39605ZM9.11981 12.8444C9.11981 13.3049 9.45026 13.6354 9.91082 13.6354C10.3547 13.6354 10.6935 13.3049 10.6935 12.8444C10.6935 12.3831 10.354 12.0617 9.91082 12.0617C9.45972 12.0617 9.11981 12.3827 9.11981 12.8444Z" fill="#5E5F6E" stroke="#5E5F6E" stroke-width="0.1"/>
</g>
</svg>
