<svg width="100" height="100" viewBox="0 0 100 100" fill="none" xmlns="http://www.w3.org/2000/svg">
<g clip-path="url(#clip0_1125_9356)">
<path d="M47.2486 49.513C47.2532 48.5134 47.5833 47.5427 48.1885 46.7485C49.0041 45.6956 49.9345 44.7373 50.9622 43.8915C51.8895 43.0917 52.7396 42.2062 53.5014 41.2466C53.9805 40.5725 54.2287 39.7608 54.2088 38.9332C54.2202 38.4265 54.1296 37.9227 53.9425 37.4519C53.7554 36.9811 53.4756 36.553 53.1198 36.193C52.764 35.8331 52.3395 35.5489 51.8717 35.3572C51.4039 35.1656 50.9024 35.0704 50.3971 35.0776C49.3886 35.0677 48.4138 35.4418 47.6695 36.1244C46.8024 36.9623 46.17 38.014 45.8357 39.1742L41.6992 37.364C42.2253 35.3439 43.3875 33.5481 45.0131 32.2437C46.6169 31.0343 48.5814 30.4044 50.5874 30.4566C52.1132 30.4407 53.6207 30.7917 54.9834 31.4803C56.2823 32.1345 57.3793 33.1307 58.1569 34.3624C58.9453 35.6164 59.3539 37.073 59.3333 38.5553C59.3501 39.8904 58.9917 41.2032 58.2992 42.3435C57.4237 43.6853 56.363 44.8958 55.1487 45.9389C54.2217 46.7277 53.3495 47.5792 52.5384 48.4874C52.0731 49.0218 51.8146 49.7059 51.8099 50.4152C51.823 50.85 51.8875 51.2816 52.0021 51.7011H47.7733C47.4435 51.0181 47.2645 50.2717 47.2486 49.513ZM50.0684 62.946C49.5855 62.9582 49.1052 62.8717 48.6568 62.6918C48.2084 62.5118 47.8012 62.2421 47.46 61.8992C47.113 61.5593 46.8398 61.1511 46.6575 60.7002C46.4752 60.2494 46.3879 59.7656 46.4009 59.2793C46.3894 58.7895 46.4774 58.3024 46.6595 57.8477C46.8416 57.393 47.1139 56.9802 47.46 56.6344C47.7979 56.2854 48.204 56.0102 48.6528 55.8257C49.1016 55.6413 49.5835 55.5517 50.0684 55.5625C50.5562 55.552 51.0411 55.6413 51.4934 55.8249C51.9457 56.0085 52.356 56.2825 52.6993 56.6302C53.0427 56.978 53.3118 57.3922 53.4903 57.8476C53.6689 58.303 53.7531 58.7902 53.7378 59.2793C53.7507 59.7654 53.6635 60.249 53.4816 60.6998C53.2997 61.1506 53.027 61.5589 52.6806 61.8992C52.3386 62.2421 51.9307 62.5116 51.4817 62.6916C51.0326 62.8715 50.5518 62.9581 50.0684 62.946Z" fill="#5E5F6E"/>
<path d="M20.8333 85C20.4174 84.9997 20.0065 84.9075 19.6301 84.7301C19.141 84.5039 18.7273 84.1413 18.4382 83.6856C18.1492 83.2299 17.9971 82.7004 18 82.1603V26.8861C18.0021 25.0604 18.7261 23.3101 20.0133 22.0192C21.3005 20.7282 23.0457 20.002 24.8661 20H76.169C77.9894 20.002 79.7346 20.7282 81.0218 22.0192C82.309 23.3101 83.033 25.0604 83.0351 26.8861V66.2443C83.0325 68.0697 82.3083 69.8195 81.0211 71.1101C79.734 72.4006 77.9891 73.1265 76.169 73.1285H37.7793C36.6291 73.1289 35.5155 73.5342 34.6327 74.2737L22.6383 84.3368C22.1326 84.7631 21.4939 84.9978 20.8333 85ZM24.8661 23.8556C24.065 23.8566 23.297 24.1763 22.7306 24.7444C22.1641 25.3125 21.8454 26.0827 21.8444 26.8861V79.9742L32.1665 71.3164C33.7414 69.9975 35.7276 69.2744 37.7793 69.2729H76.169C76.9699 69.2724 77.7379 68.9532 78.3044 68.3854C78.8709 67.8176 79.1897 67.0476 79.1907 66.2443V26.8861C79.1897 26.0827 78.871 25.3125 78.3045 24.7444C77.7381 24.1763 76.9701 23.8566 76.169 23.8556H24.8661Z" fill="#5E5F6E"/>
</g>
<defs>
<clipPath id="clip0_1125_9356">
<rect width="65" height="65" fill="white" transform="translate(18 20)"/>
</clipPath>
</defs>
</svg>
