<svg width="20" height="20" viewBox="0 0 20 20" fill="none" xmlns="http://www.w3.org/2000/svg">
<g id="S/Verify">
<g id="Vector (Stroke)">
<path d="M5.4884 13.1127C5.61837 13.0588 5.75771 13.0312 5.8984 13.0313C6.13782 13.0313 6.31674 13.0942 6.49272 13.2118C6.6687 13.3294 6.80586 13.4966 6.88685 13.6921C6.96785 13.8877 6.98905 14.1029 6.94776 14.3105C6.90648 14.5181 6.80455 14.7088 6.6549 14.8585L5.01557 16.4978C4.91716 16.5993 4.79962 16.6802 4.66973 16.736C4.53914 16.7921 4.39869 16.8217 4.25656 16.8229C4.11444 16.8241 3.97349 16.7971 3.84194 16.7432C3.7104 16.6894 3.59089 16.6099 3.49039 16.5094C3.38988 16.4089 3.31041 16.2894 3.25659 16.1579C3.20277 16.0263 3.17568 15.8854 3.17692 15.7433C3.17815 15.6011 3.20768 15.4607 3.26378 15.3301C3.31957 15.2002 3.40054 15.0827 3.502 14.9842L5.14132 13.3449C5.2406 13.2454 5.35854 13.1665 5.4884 13.1127Z" fill="white"/>
<path d="M14.1017 6.96825C13.8901 6.96816 13.6833 6.90536 13.5073 6.78778C13.3314 6.67017 13.1942 6.50301 13.1132 6.30745C13.0322 6.11189 13.011 5.89671 13.0523 5.68911C13.0936 5.4815 13.1955 5.2908 13.3451 5.1411L14.9845 3.50175C15.0829 3.40029 15.2004 3.31933 15.3303 3.26353C15.4609 3.20744 15.6014 3.17791 15.7435 3.17667C15.8856 3.17544 16.0266 3.20252 16.1581 3.25634C16.2897 3.31016 16.4092 3.38964 16.5097 3.49014C16.6102 3.59064 16.6897 3.71015 16.7435 3.8417C16.7973 3.97325 16.8244 4.11419 16.8231 4.25632C16.8219 4.39844 16.7924 4.5389 16.7363 4.66949C16.6805 4.79938 16.5995 4.91692 16.4981 5.01533L14.859 6.65438C14.7597 6.75402 14.6416 6.83304 14.5117 6.88691C14.3817 6.94077 14.2423 6.96841 14.1017 6.96825Z" fill="white"/>
<path d="M5.01422 9.24291C5.21495 9.44365 5.32773 9.7159 5.32773 9.99979C5.32773 10.2837 5.21495 10.5559 5.01422 10.7567C4.81348 10.9574 4.54123 11.0702 4.25734 11.0702H2.06965C1.78577 11.0702 1.51351 10.9574 1.31278 10.7567C1.11204 10.5559 0.999268 10.2837 0.999268 9.99979C0.999268 9.7159 1.11204 9.44365 1.31278 9.24291C1.51351 9.04217 1.78577 8.9294 2.06965 8.9294H4.25734C4.54123 8.9294 4.81348 9.04217 5.01422 9.24291Z" fill="white"/>
<path d="M4.66973 3.26353C4.79962 3.31933 4.91715 3.40029 5.01557 3.50175L6.65347 5.13965C6.75492 5.23806 6.83588 5.3556 6.89167 5.48548C6.94777 5.61607 6.9773 5.75652 6.97853 5.89865C6.97977 6.04077 6.95269 6.18172 6.89887 6.31326C6.84505 6.44481 6.76557 6.56432 6.66507 6.66482C6.56457 6.76532 6.44506 6.8448 6.31351 6.89862C6.18196 6.95244 6.04102 6.97953 5.89889 6.97829C5.75677 6.97706 5.61631 6.94753 5.48572 6.89143C5.35584 6.83564 5.23831 6.75468 5.1399 6.65323L3.50199 5.01532C3.40054 4.91691 3.31957 4.79937 3.26378 4.66949C3.20768 4.5389 3.17815 4.39844 3.17692 4.25632C3.17568 4.11419 3.20277 3.97325 3.25659 3.8417C3.31041 3.71015 3.38988 3.59064 3.49039 3.49014C3.59089 3.38964 3.7104 3.31016 3.84194 3.25634C3.97349 3.20252 4.11444 3.17544 4.25656 3.17667C4.39869 3.17791 4.53914 3.20744 4.66973 3.26353Z" fill="white"/>
<path d="M14.5143 13.1081C14.6442 13.1639 14.7618 13.2449 14.8602 13.3463L16.4981 14.9843C16.5995 15.0827 16.6805 15.2002 16.7363 15.3301C16.7924 15.4607 16.8219 15.6011 16.8231 15.7433C16.8244 15.8854 16.7973 16.0263 16.7435 16.1579C16.6897 16.2894 16.6102 16.4089 16.5097 16.5094C16.4092 16.6099 16.2897 16.6894 16.1581 16.7432C16.0266 16.7971 15.8856 16.8241 15.7435 16.8229C15.6014 16.8217 15.4609 16.7921 15.3303 16.736C15.2004 16.6802 15.0829 16.5993 14.9845 16.4978L13.3466 14.8599C13.2451 14.7615 13.1642 14.644 13.1084 14.5141C13.0523 14.3835 13.0228 14.2431 13.0215 14.1009C13.0203 13.9588 13.0474 13.8179 13.1012 13.6863C13.155 13.5548 13.2345 13.4353 13.335 13.3347C13.4355 13.2342 13.555 13.1548 13.6866 13.1009C13.8181 13.0471 13.959 13.02 14.1012 13.0213C14.2433 13.0225 14.3838 13.052 14.5143 13.1081Z" fill="white"/>
<path d="M9.24315 14.9856C9.44389 14.7849 9.71615 14.6721 10 14.6721C10.2839 14.6721 10.5562 14.7849 10.7569 14.9856C10.9576 15.1863 11.0704 15.4586 11.0704 15.7425V17.9302C11.0704 18.214 10.9576 18.4863 10.7569 18.687C10.5562 18.8878 10.2839 19.0005 10 19.0005C9.71615 19.0005 9.44389 18.8878 9.24315 18.687C9.04242 18.4863 8.92965 18.214 8.92965 17.9302V15.7425C8.92965 15.4586 9.04242 15.1863 9.24315 14.9856Z" fill="white"/>
<path d="M15.7427 8.9294H17.9304C18.2143 8.9294 18.4865 9.04217 18.6873 9.24291C18.888 9.44365 19.0008 9.7159 19.0008 9.99979C19.0008 10.2837 18.888 10.5559 18.6873 10.7567C18.4865 10.9574 18.2143 11.0702 17.9304 11.0702H15.7427C15.4588 11.0702 15.1866 10.9574 14.9858 10.7567C14.7851 10.5559 14.6723 10.2837 14.6723 9.99979C14.6723 9.7159 14.7851 9.44365 14.9858 9.24291C15.1866 9.04217 15.4588 8.9294 15.7427 8.9294Z" fill="white"/>
<path d="M9.24315 1.31253C9.44389 1.1118 9.71615 0.999023 10 0.999023C10.2839 0.999023 10.5562 1.1118 10.7569 1.31253C10.9576 1.51327 11.0704 1.78552 11.0704 2.06941V4.2571C11.0704 4.54098 10.9576 4.81324 10.7569 5.01397C10.5562 5.21471 10.2839 5.32748 10 5.32748C9.71615 5.32748 9.44389 5.21471 9.24315 5.01397C9.04242 4.81324 8.92965 4.54098 8.92965 4.2571V2.06941C8.92965 1.78552 9.04242 1.51327 9.24315 1.31253Z" fill="white"/>
</g>
</g>
</svg>
