<svg width="60" height="60" viewBox="0 0 60 60" fill="none" xmlns="http://www.w3.org/2000/svg">
<path d="M55.2501 3.33301L33.3501 19.533L37.4335 9.98301L55.2501 3.33301Z" fill="#E17726" stroke="#E17726" stroke-width="0.416667" stroke-linecap="round" stroke-linejoin="round"/>
<path d="M4.75014 3.33301L26.4501 19.6663L22.5668 9.99967L4.75014 3.33301ZM47.3668 40.883L41.5335 49.783L54.0168 53.2163L57.5835 41.083L47.3668 40.883ZM2.43347 41.083L5.98347 53.2163L18.4335 49.783L12.6335 40.883L2.43347 41.083Z" fill="#E27625" stroke="#E27625" stroke-width="0.416667" stroke-linecap="round" stroke-linejoin="round"/>
<path d="M17.7667 25.8502L14.3 31.0835L26.6334 31.6502L26.2334 18.3669L17.7667 25.8669V25.8502ZM42.2334 25.8669L33.6334 18.2002L33.35 31.6502L45.6833 31.0835L42.2334 25.8669ZM18.4334 49.7835L25.9167 46.1835L19.4834 41.1835L18.4334 49.7835ZM34.1 46.1669L41.5334 49.7835L40.5333 41.1669L34.1 46.1669Z" fill="#E27625" stroke="#E27625" stroke-width="0.416667" stroke-linecap="round" stroke-linejoin="round"/>
<path d="M41.5334 49.7836L34.1001 46.1836L34.7001 51.0169L34.6334 53.0669L41.5334 49.7836ZM18.4334 49.7836L25.3668 53.0669L25.3168 51.0169L25.9168 46.1836L18.4334 49.7836Z" fill="#D5BFB2" stroke="#D5BFB2" stroke-width="0.416667" stroke-linecap="round" stroke-linejoin="round"/>
<path d="M25.4835 37.9671L19.3168 36.1671L23.6835 34.1671L25.5001 37.9671H25.4835ZM34.5001 37.9671L36.3335 34.1504L40.7168 36.1504L34.5001 37.9837V37.9671Z" fill="#233447" stroke="#233447" stroke-width="0.416667" stroke-linecap="round" stroke-linejoin="round"/>
<path d="M18.4335 49.783L19.5168 40.883L12.6335 41.083L18.4335 49.783ZM40.4835 40.883L41.5335 49.783L47.3668 41.083L40.4835 40.883ZM45.7001 31.083L33.3668 31.6497L34.5001 37.983L36.3335 34.1497L40.7168 36.1497L45.7001 31.083ZM19.3168 36.1663L23.6835 34.1663L25.5001 37.9663L26.6501 31.633L14.3168 31.083L19.3168 36.1663Z" fill="#CC6228" stroke="#CC6228" stroke-width="0.416667" stroke-linecap="round" stroke-linejoin="round"/>
<path d="M14.3167 31.083L19.4834 41.1663L19.3167 36.1663L14.3167 31.083ZM40.7167 36.1663L40.5167 41.1663L45.6834 31.083L40.7167 36.1663ZM26.65 31.6497L25.4834 37.983L26.95 45.4497L27.2834 35.5997L26.65 31.6497ZM33.35 31.6497L32.75 35.583L33.05 45.4497L34.5 37.9663L33.35 31.633V31.6497Z" fill="#E27525" stroke="#E27525" stroke-width="0.416667" stroke-linecap="round" stroke-linejoin="round"/>
<path d="M34.5001 37.967L33.0501 45.4503L34.1001 46.1837L40.5168 41.1837L40.7168 36.167L34.5001 37.967ZM19.3168 36.167L19.4835 41.167L25.9168 46.167L26.9501 45.4503L25.5001 37.967L19.3001 36.167H19.3168Z" fill="#F5841F" stroke="#F5841F" stroke-width="0.416667" stroke-linecap="round" stroke-linejoin="round"/>
<path d="M34.6501 53.0665L34.7001 51.0165L34.1334 50.5499H25.8668L25.3168 51.0165L25.3668 53.0665L18.4334 49.7832L20.8668 51.7832L25.7834 55.1665H34.2001L39.1334 51.7665L41.5334 49.7832L34.6334 53.0665H34.6501Z" fill="#C0AC9D" stroke="#C0AC9D" stroke-width="0.416667" stroke-linecap="round" stroke-linejoin="round"/>
<path d="M34.1002 46.1669L33.0502 45.4502H26.9502L25.9169 46.1835L25.3169 51.0169L25.8669 50.5502H34.1335L34.7002 51.0169L34.1002 46.1835V46.1669Z" fill="#161616" stroke="#161616" stroke-width="0.416667" stroke-linecap="round" stroke-linejoin="round"/>
<path d="M56.1833 20.583L58.0167 11.6663L55.25 3.33301L34.0833 18.9997L42.2333 25.8497L53.7333 29.1997L56.2667 26.2497L55.1667 25.4497L56.9167 23.8497L55.5833 22.8163L57.3333 21.483L56.1667 20.583H56.1833ZM1.98334 11.6497L3.85 20.583L2.65 21.4663L4.43334 22.7997L3.1 23.8497L4.83334 25.4497L3.73334 26.2497L6.26667 29.1997L17.7667 25.8663L25.9167 18.983L4.75 3.33301L1.98334 11.6497Z" fill="#763E1A" stroke="#763E1A" stroke-width="0.416667" stroke-linecap="round" stroke-linejoin="round"/>
<path d="M53.7335 29.1991L42.2335 25.8658L45.7001 31.0824L40.5335 41.1658L47.3668 41.0824H57.5835L53.7335 29.1991ZM17.7668 25.8491L6.26681 29.1991L2.43347 41.0824H12.6501L19.4835 41.1658L14.3168 31.0824L17.7835 25.8491H17.7668ZM33.3501 31.6491L34.1001 18.9824L37.4335 9.98242H22.5668L25.9001 18.9824L26.6501 31.6491L26.9335 35.6158V45.4491H33.0501L33.0835 35.6158L33.3501 31.6491Z" fill="#F5841F" stroke="#F5841F" stroke-width="0.416667" stroke-linecap="round" stroke-linejoin="round"/>
</svg>
