<svg width="20" height="20" viewBox="0 0 20 20" fill="none" xmlns="http://www.w3.org/2000/svg">
    <g id="MetaMask">
        <path id="Union" fill-rule="evenodd" clip-rule="evenodd"
            d="M12.0833 5.41634H12.3154L12.532 5.33302L16.7278 3.71927L17.0323 4.63297L15.8706 9.27984L15.7823 9.63297L15.8974 9.97829L17.0075 13.3085L16.3178 15.1476L13.7809 14.4228L13.1344 14.2381L12.624 14.6756L10.7876 16.2497H9.21236L7.37595 14.6756L6.8655 14.2381L6.21906 14.4228L3.6821 15.1476L2.99242 13.3085L4.10248 9.97829L4.21759 9.63297L4.1293 9.27984L2.96759 4.63297L3.27215 3.71927L7.4679 5.33302L7.68453 5.41634H7.91663H12.0833ZM12.0833 4.16634L16.3321 2.53219L17.5 2.08301L17.8957 3.27009L18.3333 4.58301L17.0833 9.58301L18.3333 13.333L17.0833 16.6663L13.4375 15.6247L11.25 17.4997H8.74996L6.56246 15.6247L2.91663 16.6663L1.66663 13.333L2.91663 9.58301L1.66663 4.58301L2.10427 3.27009L2.49996 2.08301L3.66785 2.5322L7.91663 4.16634H12.0833ZM8.33324 9.99967H6.66658L5.83329 10.833L8.74991 11.6663L8.33324 9.99967ZM11.2499 11.6663L14.1666 10.833L13.3333 9.99967H11.6666L11.2499 11.6663ZM8.12496 14.7913L8.74996 12.9163H11.25L11.875 14.7913H8.12496Z"
            fill="#FFFFFF" />
    </g>
</svg>