<svg width="60" height="60" viewBox="0 0 60 60" fill="none" xmlns="http://www.w3.org/2000/svg">
<g id="MetaMask">
<path id="Vector" d="M55.2501 3.33398L33.3501 19.534L37.4334 9.98398L55.2501 3.33398Z" fill="#E17726" stroke="#E17726" stroke-width="1.25" stroke-linecap="round" stroke-linejoin="round"/>
<path id="Vector_2" d="M4.75014 3.33398L26.4501 19.6673L22.5668 10.0007L4.75014 3.33398ZM47.3668 40.884L41.5335 49.784L54.0168 53.2173L57.5835 41.084L47.3668 40.884ZM2.43347 41.084L5.98347 53.2173L18.4335 49.784L12.6335 40.884L2.43347 41.084Z" fill="#E27625" stroke="#E27625" stroke-width="1.25" stroke-linecap="round" stroke-linejoin="round"/>
<path id="Vector_3" d="M17.7667 25.8521L14.3001 31.0855L26.6334 31.6521L26.2334 18.3688L17.7667 25.8688V25.8521ZM42.2334 25.8688L33.6334 18.2021L33.3501 31.6521L45.6834 31.0855L42.2334 25.8688ZM18.4334 49.7855L25.9167 46.1855L19.4834 41.1855L18.4334 49.7855ZM34.1001 46.1688L41.5334 49.7855L40.5334 41.1688L34.1001 46.1688Z" fill="#E27625" stroke="#E27625" stroke-width="1.25" stroke-linecap="round" stroke-linejoin="round"/>
<path id="Vector_4" d="M41.5334 49.7836L34.1001 46.1836L34.7001 51.0169L34.6334 53.0669L41.5334 49.7836ZM18.4334 49.7836L25.3667 53.0669L25.3167 51.0169L25.9167 46.1836L18.4334 49.7836Z" fill="#D5BFB2" stroke="#D5BFB2" stroke-width="1.25" stroke-linecap="round" stroke-linejoin="round"/>
<path id="Vector_5" d="M25.4836 37.968L19.3169 36.168L23.6836 34.168L25.5002 37.968H25.4836ZM34.5002 37.968L36.3336 34.1514L40.7169 36.1514L34.5002 37.9847V37.968Z" fill="#233447" stroke="#233447" stroke-width="1.25" stroke-linecap="round" stroke-linejoin="round"/>
<path id="Vector_6" d="M18.4335 49.784L19.5169 40.884L12.6335 41.084L18.4335 49.784ZM40.4835 40.884L41.5335 49.784L47.3669 41.084L40.4835 40.884ZM45.7002 31.084L33.3669 31.6507L34.5002 37.984L36.3335 34.1507L40.7169 36.1507L45.7002 31.084ZM19.3169 36.1673L23.6835 34.1673L25.5002 37.9673L26.6502 31.634L14.3169 31.084L19.3169 36.1673Z" fill="#CC6228" stroke="#CC6228" stroke-width="1.25" stroke-linecap="round" stroke-linejoin="round"/>
<path id="Vector_7" d="M14.3167 31.084L19.4834 41.1673L19.3167 36.1673L14.3167 31.084ZM40.7167 36.1673L40.5167 41.1673L45.6834 31.084L40.7167 36.1673ZM26.6501 31.6507L25.4834 37.984L26.9501 45.4507L27.2834 35.6007L26.6501 31.6507ZM33.3501 31.6507L32.7501 35.584L33.0501 45.4507L34.5001 37.9673L33.3501 31.634V31.6507Z" fill="#E27525" stroke="#E27525" stroke-width="1.25" stroke-linecap="round" stroke-linejoin="round"/>
<path id="Vector_8" d="M34.5 37.967L33.05 45.4503L34.1 46.1837L40.5167 41.1837L40.7167 36.167L34.5 37.967ZM19.3167 36.167L19.4834 41.167L25.9167 46.167L26.95 45.4503L25.5 37.967L19.3 36.167H19.3167Z" fill="#F5841F" stroke="#F5841F" stroke-width="1.25" stroke-linecap="round" stroke-linejoin="round"/>
<path id="Vector_9" d="M34.6501 53.0646L34.7001 51.0146L34.1334 50.5479H25.8667L25.3167 51.0146L25.3667 53.0646L18.4334 49.7812L20.8667 51.7812L25.7834 55.1646H34.2001L39.1334 51.7646L41.5334 49.7812L34.6334 53.0646H34.6501Z" fill="#C0AC9D" stroke="#C0AC9D" stroke-width="1.25" stroke-linecap="round" stroke-linejoin="round"/>
<path id="Vector_10" d="M34.1002 46.1649L33.0502 45.4482H26.9502L25.9169 46.1816L25.3169 51.0149L25.8669 50.5482H34.1336L34.7002 51.0149L34.1002 46.1816V46.1649Z" fill="#161616" stroke="#161616" stroke-width="1.25" stroke-linecap="round" stroke-linejoin="round"/>
<path id="Vector_11" d="M56.1833 20.584L58.0166 11.6673L55.25 3.33398L34.0833 19.0006L42.2333 25.8506L53.7333 29.2006L56.2666 26.2506L55.1666 25.4506L56.9166 23.8506L55.5833 22.8173L57.3333 21.484L56.1666 20.584H56.1833ZM1.98331 11.6507L3.84997 20.584L2.64997 21.4673L4.43331 22.8006L3.09997 23.8506L4.83331 25.4506L3.73331 26.2506L6.26664 29.2006L17.7666 25.8673L25.9166 18.984L4.74997 3.33398L1.98331 11.6507Z" fill="#763E1A" stroke="#763E1A" stroke-width="1.25" stroke-linecap="round" stroke-linejoin="round"/>
<path id="Vector_12" d="M53.7335 29.201L42.2335 25.8677L45.7001 31.0844L40.5335 41.1677L47.3668 41.0844H57.5835L53.7335 29.201ZM17.7668 25.851L6.26681 29.201L2.43347 41.0844H12.6501L19.4835 41.1677L14.3168 31.0844L17.7835 25.851H17.7668ZM33.3501 31.651L34.1001 18.9844L37.4335 9.98438H22.5668L25.9001 18.9844L26.6501 31.651L26.9335 35.6177V45.451H33.0501L33.0835 35.6177L33.3501 31.651Z" fill="#F5841F" stroke="#F5841F" stroke-width="1.25" stroke-linecap="round" stroke-linejoin="round"/>
</g>
</svg>
