<svg width="120" height="120" viewBox="0 0 120 120" fill="none" xmlns="http://www.w3.org/2000/svg">
<g id="&#231;&#188;&#186;&#231;&#156;&#129;&#233;&#161;&#181;&#230;&#143;&#146;&#231;&#148;&#187;">
<g id="Group 2" opacity="0.5">
<path id="Fill 1&#229;&#164;&#135;&#228;&#187;&#189;" fill-rule="evenodd" clip-rule="evenodd" d="M110.526 107.052C110.526 114.203 87.9048 119.999 60 119.999C32.0951 119.999 9.47363 114.203 9.47363 107.052C9.47363 99.9012 32.0951 94.1045 60 94.1045C87.9048 94.1045 110.526 99.9012 110.526 107.052" fill="#E5E5E5"/>
<g id="Group 2_2">
<mask id="mask0_641_13591" style="mask-type:alpha" maskUnits="userSpaceOnUse" x="28" y="13" width="66" height="66">
<rect id="Rectangle 1" x="29.0776" y="14.0771" width="63.8447" height="63.8447" rx="6" fill="white" stroke="#999999" stroke-width="1.2"/>
</mask>
<g mask="url(#mask0_641_13591)">
<rect id="Rectangle 4" x="29.0776" y="14.0771" width="63.8447" height="63.8447" rx="6" fill="white"/>
<rect id="Rectangle 3" x="36.8904" y="4.24023" width="68.1926" height="68.1926" rx="6" transform="rotate(15 36.8904 4.24023)" fill="#E5E5E5"/>
<rect id="Rectangle 3_2" x="29.0776" y="14.0771" width="63.8447" height="63.8447" rx="6" stroke="#999999" stroke-width="1.2"/>
<rect id="Rectangle 2" x="34.9235" y="19.9229" width="52.1533" height="52.1533" rx="3" fill="#F9F9F9"/>
<path id="Union" fill-rule="evenodd" clip-rule="evenodd" d="M53.5 42.999C55.1569 42.999 56.5 41.6559 56.5 39.999C56.5 38.3422 55.1569 36.999 53.5 36.999C51.8431 36.999 50.5 38.3422 50.5 39.999C50.5 41.6559 51.8431 42.999 53.5 42.999ZM64.5 39.999L76.5 53.999H52.5L64.5 39.999ZM56.1154 48.6144L53.5 45.999L45.5 53.999H51.5L56.1154 48.6144Z" fill="#E5E5E5"/>
</g>
</g>
<g id="Group 1">
<rect id="Rectangle 1_2" x="38.8888" y="7.70117" width="62.54" height="62.54" rx="6" transform="rotate(15 38.8888 7.70117)" fill="white" stroke="#999999" stroke-width="1.2"/>
<g id="Group">
<path id="Vector" d="M46.2372 17.1971L44.0294 16.6055L43.4378 18.8133L45.6457 19.4049L46.2372 17.1971Z" fill="#E5E5E5"/>
<path id="Vector_2" d="M48.4452 17.7889L46.2374 17.1973L45.6458 19.4051L47.8537 19.9967L48.4452 17.7889Z" fill="#E5E5E5"/>
<path id="Vector_3" d="M50.6531 18.3806L48.4453 17.7891L47.8537 19.9969L50.0616 20.5885L50.6531 18.3806Z" fill="#E5E5E5"/>
<path id="Vector_4" d="M52.8609 18.9724L50.6531 18.3809L50.0615 20.5887L52.2693 21.1803L52.8609 18.9724Z" fill="#E5E5E5"/>
<path id="Vector_5" d="M55.0688 19.5633L52.861 18.9717L52.2694 21.1795L54.4772 21.7711L55.0688 19.5633Z" fill="#E5E5E5"/>
<path id="Vector_6" d="M57.2767 20.1551L55.0688 19.5635L54.4773 21.7713L56.6851 22.3629L57.2767 20.1551Z" fill="#E5E5E5"/>
<path id="Vector_7" d="M59.4841 20.7469L57.2762 20.1553L56.6847 22.3631L58.8925 22.9547L59.4841 20.7469Z" fill="#E5E5E5"/>
<path id="Vector_8" d="M63.8997 21.9295L61.6919 21.3379L61.1003 23.5457L63.3081 24.1373L63.8997 21.9295Z" fill="#E5E5E5"/>
<path id="Vector_9" d="M70.5234 23.7049L68.3156 23.1133L67.724 25.3211L69.9318 25.9127L70.5234 23.7049Z" fill="#E5E5E5"/>
<path id="Vector_10" d="M77.1469 25.4793L74.9391 24.8877L74.3475 27.0955L76.5553 27.6871L77.1469 25.4793Z" fill="#E5E5E5"/>
<path id="Vector_11" d="M79.3548 26.0711L77.147 25.4795L76.5554 27.6873L78.7632 28.2789L79.3548 26.0711Z" fill="#E5E5E5"/>
<path id="Vector_12" d="M81.5627 26.6629L79.3549 26.0713L78.7633 28.2791L80.9711 28.8707L81.5627 26.6629Z" fill="#E5E5E5"/>
<path id="Vector_13" d="M83.7706 27.2547L81.5627 26.6631L80.9712 28.8709L83.179 29.4625L83.7706 27.2547Z" fill="#E5E5E5"/>
<path id="Vector_14" d="M85.9785 27.8455L83.7706 27.2539L83.179 29.4617L85.3869 30.0533L85.9785 27.8455Z" fill="#E5E5E5"/>
<path id="Vector_15" d="M88.1857 28.4373L85.9779 27.8457L85.3863 30.0535L87.5941 30.6451L88.1857 28.4373Z" fill="#E5E5E5"/>
<path id="Vector_16" d="M90.3936 29.0291L88.1858 28.4375L87.5942 30.6453L89.802 31.2369L90.3936 29.0291Z" fill="#E5E5E5"/>
<path id="Vector_17" d="M45.6458 19.4051L43.438 18.8135L42.8464 21.0213L45.0542 21.6129L45.6458 19.4051Z" fill="#E5E5E5"/>
<path id="Vector_18" d="M58.8924 22.9549L56.6846 22.3633L56.093 24.5711L58.3008 25.1627L58.8924 22.9549Z" fill="#E5E5E5"/>
<path id="Vector_19" d="M76.5554 27.6873L74.3475 27.0957L73.7559 29.3035L75.9638 29.8951L76.5554 27.6873Z" fill="#E5E5E5"/>
<path id="Vector_20" d="M89.8021 31.2371L87.5942 30.6455L87.0027 32.8533L89.2105 33.4449L89.8021 31.2371Z" fill="#E5E5E5"/>
<path id="Vector_21" d="M45.0541 21.6131L42.8463 21.0215L42.2547 23.2293L44.4626 23.8209L45.0541 21.6131Z" fill="#E5E5E5"/>
<path id="Vector_22" d="M49.4699 22.7957L47.2621 22.2041L46.6705 24.4119L48.8783 25.0035L49.4699 22.7957Z" fill="#E5E5E5"/>
<path id="Vector_23" d="M51.6778 23.3875L49.47 22.7959L48.8784 25.0037L51.0862 25.5953L51.6778 23.3875Z" fill="#E5E5E5"/>
<path id="Vector_24" d="M53.8857 23.9793L51.6779 23.3877L51.0863 25.5955L53.2941 26.1871L53.8857 23.9793Z" fill="#E5E5E5"/>
<path id="Vector_25" d="M58.3008 25.1629L56.093 24.5713L55.5014 26.7791L57.7093 27.3707L58.3008 25.1629Z" fill="#E5E5E5"/>
<path id="Vector_26" d="M71.548 28.7117L69.3402 28.1201L68.7486 30.3279L70.9564 30.9195L71.548 28.7117Z" fill="#E5E5E5"/>
<path id="Vector_27" d="M75.9638 29.8953L73.756 29.3037L73.1644 31.5115L75.3722 32.1031L75.9638 29.8953Z" fill="#E5E5E5"/>
<path id="Vector_28" d="M80.3795 31.0779L78.1716 30.4863L77.58 32.6942L79.7879 33.2857L80.3795 31.0779Z" fill="#E5E5E5"/>
<path id="Vector_29" d="M82.5873 31.6697L80.3795 31.0781L79.7879 33.2859L81.9958 33.8775L82.5873 31.6697Z" fill="#E5E5E5"/>
<path id="Vector_30" d="M84.7952 32.2615L82.5874 31.6699L81.9958 33.8777L84.2036 34.4693L84.7952 32.2615Z" fill="#E5E5E5"/>
<path id="Vector_31" d="M89.2104 33.4441L87.0026 32.8525L86.411 35.0604L88.6188 35.6519L89.2104 33.4441Z" fill="#E5E5E5"/>
<path id="Vector_32" d="M44.4626 23.8211L42.2548 23.2295L41.6632 25.4373L43.871 26.0289L44.4626 23.8211Z" fill="#E5E5E5"/>
<path id="Vector_33" d="M48.8784 25.0037L46.6705 24.4121L46.0789 26.6199L48.2868 27.2115L48.8784 25.0037Z" fill="#E5E5E5"/>
<path id="Vector_34" d="M51.0861 25.5955L48.8783 25.0039L48.2867 27.2117L50.4945 27.8033L51.0861 25.5955Z" fill="#E5E5E5"/>
<path id="Vector_35" d="M53.294 26.1873L51.0862 25.5957L50.4946 27.8035L52.7024 28.3951L53.294 26.1873Z" fill="#E5E5E5"/>
<path id="Vector_36" d="M57.7093 27.3699L55.5015 26.7783L54.9099 28.9861L57.1177 29.5777L57.7093 27.3699Z" fill="#E5E5E5"/>
<path id="Vector_37" d="M62.1249 28.5535L59.9171 27.9619L59.3255 30.1697L61.5334 30.7613L62.1249 28.5535Z" fill="#E5E5E5"/>
<path id="Vector_38" d="M64.3328 29.1453L62.125 28.5537L61.5334 30.7615L63.7412 31.3531L64.3328 29.1453Z" fill="#E5E5E5"/>
<path id="Vector_39" d="M66.5407 29.7371L64.3329 29.1455L63.7413 31.3533L65.9491 31.9449L66.5407 29.7371Z" fill="#E5E5E5"/>
<path id="Vector_40" d="M75.3721 32.1033L73.1643 31.5117L72.5727 33.7195L74.7805 34.3111L75.3721 32.1033Z" fill="#E5E5E5"/>
<path id="Vector_41" d="M79.7879 33.2859L77.5801 32.6943L76.9885 34.9022L79.1963 35.4937L79.7879 33.2859Z" fill="#E5E5E5"/>
<path id="Vector_42" d="M81.9958 33.8777L79.788 33.2861L79.1964 35.494L81.4042 36.0855L81.9958 33.8777Z" fill="#E5E5E5"/>
<path id="Vector_43" d="M84.2037 34.4695L81.9958 33.8779L81.4043 36.0858L83.6121 36.6773L84.2037 34.4695Z" fill="#E5E5E5"/>
<path id="Vector_44" d="M88.6188 35.6521L86.411 35.0605L85.8194 37.2684L88.0272 37.86L88.6188 35.6521Z" fill="#E5E5E5"/>
<path id="Vector_45" d="M43.8709 26.0291L41.6631 25.4375L41.0715 27.6453L43.2793 28.2369L43.8709 26.0291Z" fill="#E5E5E5"/>
<path id="Vector_46" d="M48.2867 27.2117L46.0789 26.6201L45.4873 28.8279L47.6951 29.4195L48.2867 27.2117Z" fill="#E5E5E5"/>
<path id="Vector_47" d="M50.4946 27.8035L48.2867 27.2119L47.6952 29.4197L49.903 30.0113L50.4946 27.8035Z" fill="#E5E5E5"/>
<path id="Vector_48" d="M52.7025 28.3953L50.4946 27.8037L49.903 30.0115L52.1109 30.6031L52.7025 28.3953Z" fill="#E5E5E5"/>
<path id="Vector_49" d="M57.1176 29.5779L54.9098 28.9863L54.3182 31.1942L56.526 31.7857L57.1176 29.5779Z" fill="#E5E5E5"/>
<path id="Vector_50" d="M68.1569 32.5359L65.9491 31.9443L65.3575 34.1522L67.5653 34.7437L68.1569 32.5359Z" fill="#E5E5E5"/>
<path id="Vector_51" d="M70.3648 33.1277L68.157 32.5361L67.5654 34.744L69.7732 35.3355L70.3648 33.1277Z" fill="#E5E5E5"/>
<path id="Vector_52" d="M74.7806 34.3113L72.5728 33.7197L71.9812 35.9275L74.189 36.5191L74.7806 34.3113Z" fill="#E5E5E5"/>
<path id="Vector_53" d="M79.1962 35.4939L76.9884 34.9023L76.3968 37.1102L78.6046 37.7018L79.1962 35.4939Z" fill="#E5E5E5"/>
<path id="Vector_54" d="M81.4041 36.0857L79.1963 35.4941L78.6047 37.702L80.8125 38.2935L81.4041 36.0857Z" fill="#E5E5E5"/>
<path id="Vector_55" d="M83.612 36.6775L81.4042 36.0859L80.8126 38.2938L83.0204 38.8853L83.612 36.6775Z" fill="#E5E5E5"/>
<path id="Vector_56" d="M88.0273 37.8601L85.8195 37.2686L85.2279 39.4764L87.4357 40.068L88.0273 37.8601Z" fill="#E5E5E5"/>
<path id="Vector_57" d="M43.2794 28.2361L41.0715 27.6445L40.4799 29.8524L42.6878 30.4439L43.2794 28.2361Z" fill="#E5E5E5"/>
<path id="Vector_58" d="M56.5261 31.7859L54.3182 31.1943L53.7267 33.4022L55.9345 33.9937L56.5261 31.7859Z" fill="#E5E5E5"/>
<path id="Vector_59" d="M63.1496 33.5603L60.9418 32.9688L60.3502 35.1766L62.558 35.7682L63.1496 33.5603Z" fill="#E5E5E5"/>
<path id="Vector_60" d="M65.3575 34.1521L63.1497 33.5605L62.5581 35.7684L64.7659 36.36L65.3575 34.1521Z" fill="#E5E5E5"/>
<path id="Vector_61" d="M74.1889 36.5183L71.9811 35.9268L71.3895 38.1346L73.5973 38.7262L74.1889 36.5183Z" fill="#E5E5E5"/>
<path id="Vector_62" d="M87.4356 40.0681L85.2278 39.4766L84.6362 41.6844L86.844 42.276L87.4356 40.0681Z" fill="#E5E5E5"/>
<path id="Vector_63" d="M42.6878 30.4441L40.48 29.8525L39.8884 32.0604L42.0962 32.6519L42.6878 30.4441Z" fill="#E5E5E5"/>
<path id="Vector_64" d="M44.8957 31.0359L42.6879 30.4443L42.0963 32.6522L44.3041 33.2437L44.8957 31.0359Z" fill="#E5E5E5"/>
<path id="Vector_65" d="M47.1035 31.6277L44.8956 31.0361L44.304 33.244L46.5119 33.8355L47.1035 31.6277Z" fill="#E5E5E5"/>
<path id="Vector_66" d="M49.3113 32.2195L47.1035 31.6279L46.5119 33.8358L48.7198 34.4273L49.3113 32.2195Z" fill="#E5E5E5"/>
<path id="Vector_67" d="M51.5192 32.8103L49.3114 32.2188L48.7198 34.4266L50.9276 35.0182L51.5192 32.8103Z" fill="#E5E5E5"/>
<path id="Vector_68" d="M53.7271 33.4021L51.5193 32.8105L50.9277 35.0184L53.1355 35.61L53.7271 33.4021Z" fill="#E5E5E5"/>
<path id="Vector_69" d="M55.9344 33.9939L53.7266 33.4023L53.135 35.6102L55.3428 36.2018L55.9344 33.9939Z" fill="#E5E5E5"/>
<path id="Vector_70" d="M60.3502 35.1775L58.1423 34.5859L57.5507 36.7938L59.7586 37.3853L60.3502 35.1775Z" fill="#E5E5E5"/>
<path id="Vector_71" d="M64.7659 36.3601L62.5581 35.7686L61.9665 37.9764L64.1743 38.568L64.7659 36.3601Z" fill="#E5E5E5"/>
<path id="Vector_72" d="M69.1816 37.5437L66.9738 36.9521L66.3822 39.16L68.59 39.7516L69.1816 37.5437Z" fill="#E5E5E5"/>
<path id="Vector_73" d="M73.5973 38.7264L71.3895 38.1348L70.7979 40.3426L73.0058 40.9342L73.5973 38.7264Z" fill="#E5E5E5"/>
<path id="Vector_74" d="M75.8052 39.3181L73.5974 38.7266L73.0058 40.9344L75.2137 41.526L75.8052 39.3181Z" fill="#E5E5E5"/>
<path id="Vector_75" d="M78.0131 39.9099L75.8053 39.3184L75.2137 41.5262L77.4215 42.1178L78.0131 39.9099Z" fill="#E5E5E5"/>
<path id="Vector_76" d="M80.221 40.5017L78.0132 39.9102L77.4216 42.118L79.6294 42.7096L80.221 40.5017Z" fill="#E5E5E5"/>
<path id="Vector_77" d="M82.4288 41.0926L80.2209 40.501L79.6294 42.7088L81.8372 43.3004L82.4288 41.0926Z" fill="#E5E5E5"/>
<path id="Vector_78" d="M84.6362 41.6844L82.4283 41.0928L81.8368 43.3006L84.0446 43.8922L84.6362 41.6844Z" fill="#E5E5E5"/>
<path id="Vector_79" d="M86.8441 42.2762L84.6362 41.6846L84.0446 43.8924L86.2525 44.484L86.8441 42.2762Z" fill="#E5E5E5"/>
<path id="Vector_80" d="M61.9665 37.9764L59.7587 37.3848L59.1671 39.5926L61.3749 40.1842L61.9665 37.9764Z" fill="#E5E5E5"/>
<path id="Vector_81" d="M64.1743 38.5681L61.9664 37.9766L61.3748 40.1844L63.5827 40.776L64.1743 38.5681Z" fill="#E5E5E5"/>
<path id="Vector_82" d="M45.9203 36.0437L43.7125 35.4521L43.1209 37.66L45.3288 38.2516L45.9203 36.0437Z" fill="#E5E5E5"/>
<path id="Vector_83" d="M50.336 37.2264L48.1282 36.6348L47.5366 38.8426L49.7444 39.4342L50.336 37.2264Z" fill="#E5E5E5"/>
<path id="Vector_84" d="M52.5439 37.8181L50.3361 37.2266L49.7445 39.4344L51.9523 40.026L52.5439 37.8181Z" fill="#E5E5E5"/>
<path id="Vector_85" d="M54.7513 38.4099L52.5435 37.8184L51.9519 40.0262L54.1597 40.6178L54.7513 38.4099Z" fill="#E5E5E5"/>
<path id="Vector_86" d="M59.1669 39.5926L56.9591 39.001L56.3675 41.2088L58.5753 41.8004L59.1669 39.5926Z" fill="#E5E5E5"/>
<path id="Vector_87" d="M61.3748 40.1844L59.167 39.5928L58.5754 41.8006L60.7832 42.3922L61.3748 40.1844Z" fill="#E5E5E5"/>
<path id="Vector_88" d="M65.7906 41.368L63.5828 40.7764L62.9912 42.9842L65.199 43.5758L65.7906 41.368Z" fill="#E5E5E5"/>
<path id="Vector_89" d="M70.2064 42.5506L67.9985 41.959L67.407 44.1668L69.6148 44.7584L70.2064 42.5506Z" fill="#E5E5E5"/>
<path id="Vector_90" d="M79.0378 44.9168L76.83 44.3252L76.2384 46.533L78.4462 47.1246L79.0378 44.9168Z" fill="#E5E5E5"/>
<path id="Vector_91" d="M85.6608 46.6922L83.453 46.1006L82.8614 48.3084L85.0692 48.9L85.6608 46.6922Z" fill="#E5E5E5"/>
<path id="Vector_92" d="M45.3287 38.2508L43.1208 37.6592L42.5293 39.867L44.7371 40.4586L45.3287 38.2508Z" fill="#E5E5E5"/>
<path id="Vector_93" d="M51.9523 40.0262L49.7445 39.4346L49.1529 41.6424L51.3607 42.234L51.9523 40.0262Z" fill="#E5E5E5"/>
<path id="Vector_94" d="M58.5754 41.8006L56.3676 41.209L55.776 43.4168L57.9838 44.0084L58.5754 41.8006Z" fill="#E5E5E5"/>
<path id="Vector_95" d="M60.7833 42.3924L58.5754 41.8008L57.9839 44.0086L60.1917 44.6002L60.7833 42.3924Z" fill="#E5E5E5"/>
<path id="Vector_96" d="M62.9911 42.9842L60.7833 42.3926L60.1917 44.6004L62.3996 45.192L62.9911 42.9842Z" fill="#E5E5E5"/>
<path id="Vector_97" d="M65.199 43.575L62.9912 42.9834L62.3996 45.1912L64.6074 45.7828L65.199 43.575Z" fill="#E5E5E5"/>
<path id="Vector_98" d="M69.6147 44.7586L67.4069 44.167L66.8153 46.3748L69.0231 46.9664L69.6147 44.7586Z" fill="#E5E5E5"/>
<path id="Vector_99" d="M74.0305 45.9422L71.8226 45.3506L71.231 47.5584L73.4389 48.15L74.0305 45.9422Z" fill="#E5E5E5"/>
<path id="Vector_100" d="M85.0693 48.8992L82.8615 48.3076L82.2699 50.5154L84.4777 51.107L85.0693 48.8992Z" fill="#E5E5E5"/>
<path id="Vector_101" d="M40.3213 39.2762L38.1135 38.6846L37.5219 40.8924L39.7298 41.484L40.3213 39.2762Z" fill="#E5E5E5"/>
<path id="Vector_102" d="M42.5292 39.868L40.3214 39.2764L39.7298 41.4842L41.9376 42.0758L42.5292 39.868Z" fill="#E5E5E5"/>
<path id="Vector_103" d="M49.1529 41.6424L46.9451 41.0508L46.3535 43.2586L48.5613 43.8502L49.1529 41.6424Z" fill="#E5E5E5"/>
<path id="Vector_104" d="M51.3608 42.2342L49.153 41.6426L48.5614 43.8504L50.7692 44.442L51.3608 42.2342Z" fill="#E5E5E5"/>
<path id="Vector_105" d="M53.5681 42.825L51.3602 42.2334L50.7686 44.4412L52.9765 45.0328L53.5681 42.825Z" fill="#E5E5E5"/>
<path id="Vector_106" d="M66.8152 46.3748L64.6074 45.7832L64.0158 47.991L66.2237 48.5826L66.8152 46.3748Z" fill="#E5E5E5"/>
<path id="Vector_107" d="M69.0231 46.9666L66.8153 46.375L66.2237 48.5828L68.4315 49.1744L69.0231 46.9666Z" fill="#E5E5E5"/>
<path id="Vector_108" d="M71.231 47.5584L69.0232 46.9668L68.4316 49.1746L70.6394 49.7662L71.231 47.5584Z" fill="#E5E5E5"/>
<path id="Vector_109" d="M73.4389 48.1502L71.2311 47.5586L70.6395 49.7664L72.8473 50.358L73.4389 48.1502Z" fill="#E5E5E5"/>
<path id="Vector_110" d="M77.8546 49.3328L75.6467 48.7412L75.0551 50.949L77.263 51.5406L77.8546 49.3328Z" fill="#E5E5E5"/>
<path id="Vector_111" d="M41.9377 42.075L39.7299 41.4834L39.1383 43.6912L41.3461 44.2828L41.9377 42.075Z" fill="#E5E5E5"/>
<path id="Vector_112" d="M46.3535 43.2586L44.1456 42.667L43.554 44.8748L45.7619 45.4664L46.3535 43.2586Z" fill="#E5E5E5"/>
<path id="Vector_113" d="M48.5612 43.8504L46.3534 43.2588L45.7618 45.4666L47.9696 46.0582L48.5612 43.8504Z" fill="#E5E5E5"/>
<path id="Vector_114" d="M50.7691 44.4422L48.5613 43.8506L47.9697 46.0584L50.1775 46.65L50.7691 44.4422Z" fill="#E5E5E5"/>
<path id="Vector_115" d="M55.1844 45.6248L52.9766 45.0332L52.385 47.241L54.5928 47.8326L55.1844 45.6248Z" fill="#E5E5E5"/>
<path id="Vector_116" d="M57.3921 46.2166L55.1843 45.625L54.5927 47.8328L56.8006 48.4244L57.3921 46.2166Z" fill="#E5E5E5"/>
<path id="Vector_117" d="M68.4316 49.1746L66.2238 48.583L65.6322 50.7908L67.84 51.3824L68.4316 49.1746Z" fill="#E5E5E5"/>
<path id="Vector_118" d="M70.6393 49.7664L68.4315 49.1748L67.8399 51.3826L70.0478 51.9742L70.6393 49.7664Z" fill="#E5E5E5"/>
<path id="Vector_119" d="M72.8472 50.3572L70.6394 49.7656L70.0478 51.9734L72.2556 52.565L72.8472 50.3572Z" fill="#E5E5E5"/>
<path id="Vector_120" d="M75.0551 50.949L72.8473 50.3574L72.2557 52.5652L74.4635 53.1568L75.0551 50.949Z" fill="#E5E5E5"/>
<path id="Vector_121" d="M77.263 51.5408L75.0552 50.9492L74.4636 53.157L76.6714 53.7486L77.263 51.5408Z" fill="#E5E5E5"/>
<path id="Vector_122" d="M83.886 53.3152L81.6782 52.7236L81.0866 54.9315L83.2945 55.523L83.886 53.3152Z" fill="#E5E5E5"/>
<path id="Vector_123" d="M41.3464 44.282L39.1385 43.6904L38.547 45.8983L40.7548 46.4898L41.3464 44.282Z" fill="#E5E5E5"/>
<path id="Vector_124" d="M43.5543 44.8738L41.3464 44.2822L40.7549 46.49L42.9627 47.0816L43.5543 44.8738Z" fill="#E5E5E5"/>
<path id="Vector_125" d="M45.762 45.4656L43.5542 44.874L42.9626 47.0818L45.1704 47.6734L45.762 45.4656Z" fill="#E5E5E5"/>
<path id="Vector_126" d="M47.9699 46.0574L45.7621 45.4658L45.1705 47.6736L47.3783 48.2652L47.9699 46.0574Z" fill="#E5E5E5"/>
<path id="Vector_127" d="M52.3852 47.24L50.1774 46.6484L49.5858 48.8563L51.7936 49.4478L52.3852 47.24Z" fill="#E5E5E5"/>
<path id="Vector_128" d="M54.5931 47.8318L52.3853 47.2402L51.7937 49.4481L54.0015 50.0396L54.5931 47.8318Z" fill="#E5E5E5"/>
<path id="Vector_129" d="M56.8008 48.4236L54.593 47.832L54.0014 50.0399L56.2093 50.6314L56.8008 48.4236Z" fill="#E5E5E5"/>
<path id="Vector_130" d="M63.4245 50.198L61.2167 49.6064L60.6251 51.8143L62.8329 52.4059L63.4245 50.198Z" fill="#E5E5E5"/>
<path id="Vector_131" d="M65.6324 50.7898L63.4246 50.1982L62.833 52.4061L65.0408 52.9976L65.6324 50.7898Z" fill="#E5E5E5"/>
<path id="Vector_132" d="M72.2559 52.5642L70.0481 51.9727L69.4565 54.1805L71.6643 54.7721L72.2559 52.5642Z" fill="#E5E5E5"/>
<path id="Vector_133" d="M81.0869 54.9305L78.879 54.3389L78.2874 56.5467L80.4953 57.1383L81.0869 54.9305Z" fill="#E5E5E5"/>
<path id="Vector_134" d="M83.2947 55.5222L81.0869 54.9307L80.4953 57.1385L82.7032 57.7301L83.2947 55.5222Z" fill="#E5E5E5"/>
<path id="Vector_135" d="M56.2093 50.6306L54.0015 50.0391L53.4099 52.2469L55.6177 52.8385L56.2093 50.6306Z" fill="#E5E5E5"/>
<path id="Vector_136" d="M65.0407 52.9978L62.8329 52.4062L62.2413 54.6141L64.4491 55.2057L65.0407 52.9978Z" fill="#E5E5E5"/>
<path id="Vector_137" d="M69.4565 54.1805L67.2487 53.5889L66.6571 55.7967L68.8649 56.3883L69.4565 54.1805Z" fill="#E5E5E5"/>
<path id="Vector_138" d="M76.08 55.9558L73.8722 55.3643L73.2806 57.5721L75.4884 58.1637L76.08 55.9558Z" fill="#E5E5E5"/>
<path id="Vector_139" d="M80.4953 57.1385L78.2875 56.5469L77.6959 58.7547L79.9037 59.3463L80.4953 57.1385Z" fill="#E5E5E5"/>
<path id="Vector_140" d="M37.9553 48.1062L35.7474 47.5146L35.1559 49.7225L37.3637 50.3141L37.9553 48.1062Z" fill="#E5E5E5"/>
<path id="Vector_141" d="M40.1631 48.698L37.9553 48.1064L37.3637 50.3143L39.5716 50.9059L40.1631 48.698Z" fill="#E5E5E5"/>
<path id="Vector_142" d="M42.371 49.2898L40.1632 48.6982L39.5716 50.9061L41.7794 51.4976L42.371 49.2898Z" fill="#E5E5E5"/>
<path id="Vector_143" d="M44.5789 49.8806L42.3711 49.2891L41.7795 51.4969L43.9873 52.0885L44.5789 49.8806Z" fill="#E5E5E5"/>
<path id="Vector_144" d="M46.7868 50.4724L44.579 49.8809L43.9874 52.0887L46.1952 52.6803L46.7868 50.4724Z" fill="#E5E5E5"/>
<path id="Vector_145" d="M48.9946 51.0642L46.7867 50.4727L46.1952 52.6805L48.403 53.2721L48.9946 51.0642Z" fill="#E5E5E5"/>
<path id="Vector_146" d="M51.202 51.656L48.9941 51.0645L48.4026 53.2723L50.6104 53.8639L51.202 51.656Z" fill="#E5E5E5"/>
<path id="Vector_147" d="M57.8255 53.4305L55.6177 52.8389L55.0261 55.0467L57.2339 55.6383L57.8255 53.4305Z" fill="#E5E5E5"/>
<path id="Vector_148" d="M60.0334 54.0222L57.8256 53.4307L57.234 55.6385L59.4418 56.2301L60.0334 54.0222Z" fill="#E5E5E5"/>
<path id="Vector_149" d="M62.2413 54.614L60.0334 54.0225L59.4419 56.2303L61.6497 56.8219L62.2413 54.614Z" fill="#E5E5E5"/>
<path id="Vector_150" d="M68.8649 56.3885L66.6571 55.7969L66.0655 58.0047L68.2733 58.5963L68.8649 56.3885Z" fill="#E5E5E5"/>
<path id="Vector_151" d="M73.2806 57.5721L71.0728 56.9805L70.4812 59.1883L72.689 59.7799L73.2806 57.5721Z" fill="#E5E5E5"/>
<path id="Vector_152" d="M82.1115 59.9383L79.9037 59.3467L79.3121 61.5545L81.5199 62.1461L82.1115 59.9383Z" fill="#E5E5E5"/>
<path id="Vector_153" d="M37.3637 50.3142L35.1559 49.7227L34.5643 51.9305L36.7721 52.5221L37.3637 50.3142Z" fill="#E5E5E5"/>
<path id="Vector_154" d="M50.6104 53.864L48.4026 53.2725L47.811 55.4803L50.0188 56.0719L50.6104 53.864Z" fill="#E5E5E5"/>
<path id="Vector_155" d="M55.0261 55.0467L52.8182 54.4551L52.2267 56.6629L54.4345 57.2545L55.0261 55.0467Z" fill="#E5E5E5"/>
<path id="Vector_156" d="M59.4418 56.2303L57.234 55.6387L56.6424 57.8465L58.8502 58.4381L59.4418 56.2303Z" fill="#E5E5E5"/>
<path id="Vector_157" d="M61.6497 56.8221L59.4419 56.2305L58.8503 58.4383L61.0581 59.0299L61.6497 56.8221Z" fill="#E5E5E5"/>
<path id="Vector_158" d="M68.2733 58.5965L66.0654 58.0049L65.4738 60.2127L67.6817 60.8043L68.2733 58.5965Z" fill="#E5E5E5"/>
<path id="Vector_159" d="M79.3121 61.5545L77.1042 60.9629L76.5127 63.1707L78.7205 63.7623L79.3121 61.5545Z" fill="#E5E5E5"/>
<path id="Vector_160" d="M81.52 62.1463L79.3121 61.5547L78.7205 63.7625L80.9284 64.3541L81.52 62.1463Z" fill="#E5E5E5"/>
<path id="Vector_161" d="M36.7722 52.5222L34.5643 51.9307L33.9727 54.1385L36.1806 54.7301L36.7722 52.5222Z" fill="#E5E5E5"/>
<path id="Vector_162" d="M41.1878 53.7049L38.98 53.1133L38.3884 55.3211L40.5962 55.9127L41.1878 53.7049Z" fill="#E5E5E5"/>
<path id="Vector_163" d="M43.3957 54.2967L41.1879 53.7051L40.5963 55.9129L42.8041 56.5045L43.3957 54.2967Z" fill="#E5E5E5"/>
<path id="Vector_164" d="M45.6036 54.8885L43.3958 54.2969L42.8042 56.5047L45.012 57.0963L45.6036 54.8885Z" fill="#E5E5E5"/>
<path id="Vector_165" d="M50.0187 56.0711L47.8109 55.4795L47.2193 57.6873L49.4272 58.2789L50.0187 56.0711Z" fill="#E5E5E5"/>
<path id="Vector_166" d="M54.4345 57.2547L52.2267 56.6631L51.6351 58.8709L53.8429 59.4625L54.4345 57.2547Z" fill="#E5E5E5"/>
<path id="Vector_167" d="M58.8503 58.4383L56.6425 57.8467L56.0509 60.0545L58.2587 60.6461L58.8503 58.4383Z" fill="#E5E5E5"/>
<path id="Vector_168" d="M61.058 59.0291L58.8502 58.4375L58.2586 60.6453L60.4665 61.2369L61.058 59.0291Z" fill="#E5E5E5"/>
<path id="Vector_169" d="M63.2659 59.6209L61.0581 59.0293L60.4665 61.2371L62.6743 61.8287L63.2659 59.6209Z" fill="#E5E5E5"/>
<path id="Vector_170" d="M65.4738 60.2127L63.266 59.6211L62.6744 61.8289L64.8822 62.4205L65.4738 60.2127Z" fill="#E5E5E5"/>
<path id="Vector_171" d="M72.0975 61.9871L69.8896 61.3955L69.2981 63.6033L71.5059 64.1949L72.0975 61.9871Z" fill="#E5E5E5"/>
<path id="Vector_172" d="M74.3052 62.5789L72.0974 61.9873L71.5058 64.1951L73.7137 64.7867L74.3052 62.5789Z" fill="#E5E5E5"/>
<path id="Vector_173" d="M80.9284 64.3533L78.7206 63.7617L78.129 65.9695L80.3368 66.5611L80.9284 64.3533Z" fill="#E5E5E5"/>
<path id="Vector_174" d="M36.1805 54.7303L33.9727 54.1387L33.3811 56.3465L35.5889 56.9381L36.1805 54.7303Z" fill="#E5E5E5"/>
<path id="Vector_175" d="M40.5963 55.9129L38.3884 55.3213L37.7968 57.5291L40.0047 58.1207L40.5963 55.9129Z" fill="#E5E5E5"/>
<path id="Vector_176" d="M42.8041 56.5047L40.5963 55.9131L40.0047 58.1209L42.2126 58.7125L42.8041 56.5047Z" fill="#E5E5E5"/>
<path id="Vector_177" d="M45.012 57.0965L42.8042 56.5049L42.2126 58.7127L44.4204 59.3043L45.012 57.0965Z" fill="#E5E5E5"/>
<path id="Vector_178" d="M49.4272 58.2791L47.2194 57.6875L46.6278 59.8953L48.8356 60.4869L49.4272 58.2791Z" fill="#E5E5E5"/>
<path id="Vector_179" d="M56.0507 60.0545L53.8429 59.4629L53.2513 61.6707L55.4591 62.2623L56.0507 60.0545Z" fill="#E5E5E5"/>
<path id="Vector_180" d="M60.4665 61.2371L58.2587 60.6455L57.6671 62.8533L59.8749 63.4449L60.4665 61.2371Z" fill="#E5E5E5"/>
<path id="Vector_181" d="M64.8823 62.4207L62.6744 61.8291L62.0829 64.0369L64.2907 64.6285L64.8823 62.4207Z" fill="#E5E5E5"/>
<path id="Vector_182" d="M67.0901 63.0125L64.8823 62.4209L64.2907 64.6287L66.4986 65.2203L67.0901 63.0125Z" fill="#E5E5E5"/>
<path id="Vector_183" d="M69.2979 63.6033L67.0901 63.0117L66.4985 65.2195L68.7063 65.8111L69.2979 63.6033Z" fill="#E5E5E5"/>
<path id="Vector_184" d="M73.7137 64.7869L71.5059 64.1953L70.9143 66.4031L73.1221 66.9947L73.7137 64.7869Z" fill="#E5E5E5"/>
<path id="Vector_185" d="M78.1288 65.9695L75.921 65.3779L75.3294 67.5858L77.5373 68.1773L78.1288 65.9695Z" fill="#E5E5E5"/>
<path id="Vector_186" d="M35.5889 56.9373L33.3811 56.3457L32.7895 58.5535L34.9973 59.1451L35.5889 56.9373Z" fill="#E5E5E5"/>
<path id="Vector_187" d="M40.0047 58.1209L37.7969 57.5293L37.2053 59.7371L39.4131 60.3287L40.0047 58.1209Z" fill="#E5E5E5"/>
<path id="Vector_188" d="M42.2125 58.7127L40.0046 58.1211L39.4131 60.3289L41.6209 60.9205L42.2125 58.7127Z" fill="#E5E5E5"/>
<path id="Vector_189" d="M44.4203 59.3045L42.2125 58.7129L41.6209 60.9207L43.8288 61.5123L44.4203 59.3045Z" fill="#E5E5E5"/>
<path id="Vector_190" d="M48.8356 60.4871L46.6278 59.8955L46.0362 62.1033L48.244 62.6949L48.8356 60.4871Z" fill="#E5E5E5"/>
<path id="Vector_191" d="M53.2513 61.6707L51.0435 61.0791L50.4519 63.2869L52.6597 63.8785L53.2513 61.6707Z" fill="#E5E5E5"/>
<path id="Vector_192" d="M55.4592 62.2615L53.2513 61.6699L52.6598 63.8777L54.8676 64.4693L55.4592 62.2615Z" fill="#E5E5E5"/>
<path id="Vector_193" d="M66.4985 65.2195L64.2906 64.6279L63.6991 66.8358L65.9069 67.4273L66.4985 65.2195Z" fill="#E5E5E5"/>
<path id="Vector_194" d="M68.7064 65.8113L66.4985 65.2197L65.907 67.4275L68.1148 68.0191L68.7064 65.8113Z" fill="#E5E5E5"/>
<path id="Vector_195" d="M75.33 67.5867L73.1222 66.9951L72.5306 69.2029L74.7384 69.7945L75.33 67.5867Z" fill="#E5E5E5"/>
<path id="Vector_196" d="M79.7452 68.7693L77.5374 68.1777L76.9458 70.3856L79.1536 70.9771L79.7452 68.7693Z" fill="#E5E5E5"/>
<path id="Vector_197" d="M34.9974 59.1453L32.7896 58.5537L32.198 60.7615L34.4058 61.3531L34.9974 59.1453Z" fill="#E5E5E5"/>
<path id="Vector_198" d="M48.244 62.6951L46.0361 62.1035L45.4445 64.3113L47.6524 64.9029L48.244 62.6951Z" fill="#E5E5E5"/>
<path id="Vector_199" d="M57.0755 65.0613L54.8677 64.4697L54.2761 66.6775L56.4839 67.2691L57.0755 65.0613Z" fill="#E5E5E5"/>
<path id="Vector_200" d="M59.2833 65.6531L57.0754 65.0615L56.4839 67.2693L58.6917 67.8609L59.2833 65.6531Z" fill="#E5E5E5"/>
<path id="Vector_201" d="M63.699 66.8367L61.4912 66.2451L60.8996 68.4529L63.1074 69.0445L63.699 66.8367Z" fill="#E5E5E5"/>
<path id="Vector_202" d="M68.1148 68.0193L65.907 67.4277L65.3154 69.6356L67.5232 70.2271L68.1148 68.0193Z" fill="#E5E5E5"/>
<path id="Vector_203" d="M70.3227 68.6111L68.1149 68.0195L67.5233 70.2274L69.7311 70.8189L70.3227 68.6111Z" fill="#E5E5E5"/>
<path id="Vector_204" d="M72.5305 69.2029L70.3226 68.6113L69.731 70.8192L71.9389 71.4107L72.5305 69.2029Z" fill="#E5E5E5"/>
<path id="Vector_205" d="M34.4057 61.3533L32.1979 60.7617L31.6063 62.9695L33.8141 63.5611L34.4057 61.3533Z" fill="#E5E5E5"/>
<path id="Vector_206" d="M36.6136 61.9451L34.4058 61.3535L33.8142 63.5613L36.022 64.1529L36.6136 61.9451Z" fill="#E5E5E5"/>
<path id="Vector_207" d="M38.8215 62.5369L36.6136 61.9453L36.0221 64.1531L38.2299 64.7447L38.8215 62.5369Z" fill="#E5E5E5"/>
<path id="Vector_208" d="M41.0294 63.1287L38.8215 62.5371L38.2299 64.7449L40.4378 65.3365L41.0294 63.1287Z" fill="#E5E5E5"/>
<path id="Vector_209" d="M43.2372 63.7195L41.0294 63.1279L40.4378 65.3358L42.6457 65.9273L43.2372 63.7195Z" fill="#E5E5E5"/>
<path id="Vector_210" d="M45.445 64.3113L43.2372 63.7197L42.6456 65.9275L44.8534 66.5191L45.445 64.3113Z" fill="#E5E5E5"/>
<path id="Vector_211" d="M47.6524 64.9031L45.4446 64.3115L44.853 66.5193L47.0608 67.1109L47.6524 64.9031Z" fill="#E5E5E5"/>
<path id="Vector_212" d="M58.6917 67.8611L56.4839 67.2695L55.8923 69.4774L58.1001 70.0689L58.6917 67.8611Z" fill="#E5E5E5"/>
<path id="Vector_213" d="M60.8996 68.4529L58.6918 67.8613L58.1002 70.0692L60.308 70.6607L60.8996 68.4529Z" fill="#E5E5E5"/>
<path id="Vector_214" d="M63.1075 69.0437L60.8997 68.4521L60.3081 70.66L62.5159 71.2516L63.1075 69.0437Z" fill="#E5E5E5"/>
<path id="Vector_215" d="M65.3154 69.6355L63.1075 69.0439L62.516 71.2518L64.7238 71.8434L65.3154 69.6355Z" fill="#E5E5E5"/>
<path id="Vector_216" d="M67.5231 70.2273L65.3153 69.6357L64.7237 71.8436L66.9315 72.4351L67.5231 70.2273Z" fill="#E5E5E5"/>
<path id="Vector_217" d="M74.1468 72.0017L71.939 71.4102L71.3474 73.618L73.5552 74.2096L74.1468 72.0017Z" fill="#E5E5E5"/>
<path id="Vector_218" d="M78.5619 73.1853L76.3541 72.5938L75.7625 74.8016L77.9704 75.3932L78.5619 73.1853Z" fill="#E5E5E5"/>
</g>
</g>
</g>
</g>
</svg>
