<svg width="20" height="20" viewBox="0 0 20 20" fill="none" xmlns="http://www.w3.org/2000/svg">
<path fill-rule="evenodd" clip-rule="evenodd" d="M17.5158 4.14062C17.6808 3.66926 17.5612 3.14506 17.208 2.79193C16.8549 2.4388 16.3307 2.31918 15.8593 2.48415L3.28162 6.88635C2.77852 7.06244 2.43389 7.52779 2.41216 8.06038C2.39043 8.59296 2.69601 9.08484 3.1831 9.30132L7.74989 11.331L11.858 7.22291C12.1118 6.96907 12.5234 6.96907 12.7772 7.22291C13.0311 7.47675 13.0311 7.88831 12.7772 8.14215L8.66906 12.2503L10.6986 16.8169C10.9151 17.3039 11.407 17.6095 11.9396 17.5878C12.4722 17.5661 12.9375 17.2214 13.1136 16.7183L17.5158 4.14062Z" fill="#8864FF"/>
</svg>
