<svg xmlns="http://www.w3.org/2000/svg" fill="none" viewBox="0 0 41 40"><circle fill="#8247E5" r="20" cy="20" cx="20.714"/><path fill="#fff" d="M27.341 15.781c-.45-.258-1.03-.258-1.545 0l-3.607 2.126-2.448 1.352-3.543 2.126c-.45.257-1.03.257-1.546 0l-2.77-1.675a1.57 1.57 0 0 1-.772-1.353v-3.22c0-.515.257-1.03.773-1.353l2.77-1.61c.45-.258 1.03-.258 1.545 0l2.77 1.675c.45.257.773.773.773 1.352v2.126l2.448-1.417v-2.19c0-.516-.258-1.03-.773-1.353L16.263 9.34c-.451-.258-1.03-.258-1.546 0l-5.282 3.092c-.515.257-.773.772-.773 1.288v6.054c0 .516.258 1.031.773 1.353l5.217 3.027c.451.258 1.031.258 1.546 0l3.543-2.06 2.448-1.418 3.542-2.06c.451-.259 1.03-.259 1.546 0l2.77 1.61c.45.257.773.772.773 1.352v3.22a1.59 1.59 0 0 1-.773 1.353l-2.706 1.61c-.45.258-1.03.258-1.545 0l-2.77-1.61a1.57 1.57 0 0 1-.773-1.352v-2.062l-2.448 1.418v2.125c0 .515.258 1.03.773 1.353l5.218 3.027c.45.258 1.03.258 1.545 0l5.218-3.027a1.57 1.57 0 0 0 .773-1.353v-6.119c0-.515-.258-1.03-.773-1.353l-5.218-3.027Z" data-follow-fill="#fff"/></svg>