<svg width="16" height="16" viewBox="0 0 16 16" fill="none" xmlns="http://www.w3.org/2000/svg">
  <g id="S/Question-Outline">
    <g id="Union">
      <path id="9F7E0F31-DC03-4615-8C8C-BDD124859E96" fill-rule="evenodd" clip-rule="evenodd"
        d="M8 15C11.866 15 15 11.866 15 8C15 4.13401 11.866 1 8 1C4.13401 1 1 4.13401 1 8C1 11.866 4.13401 15 8 15ZM8 14C11.3137 14 14 11.3137 14 8C14 4.68629 11.3137 2 8 2C4.68629 2 2 4.68629 2 8C2 11.3137 4.68629 14 8 14Z"
        fill="#5E5F6E" />
      <path id="8733E5E8-C4E9-4672-BB50-0AC1A1D63A1D"
        d="M8.53226 11.7964C8.3871 11.9416 8.19355 12.0142 8 12.0142C7.80645 12.0142 7.6129 11.9295 7.46774 11.7964C7.32258 11.6513 7.25 11.4577 7.25 11.2642C7.25 11.0585 7.33468 10.8771 7.46774 10.7319C7.6129 10.5867 7.80645 10.5142 8 10.5142C8.19355 10.5142 8.3871 10.5988 8.53226 10.7319C8.67742 10.8771 8.75 11.0706 8.75 11.2642C8.75 11.4698 8.67742 11.6634 8.53226 11.7964Z"
        fill="#5E5F6E" />
      <path id="F7781DA2-A2FB-44AC-A5D3-08347752ACAD"
        d="M8.98 8.33C8.84 8.38 8.72 8.48 8.63 8.6C8.54 8.73 8.5 8.88 8.5 9.03C8.5 9.03 8.5 9.37 8.41 9.5C8.31 9.62 8.17 9.72 8 9.72C7.83 9.72 7.69 9.63 7.59 9.5C7.47 9.34 7.49 9.05 7.49 9.05C7.49 8.69 7.6 8.33 7.8 8.04C8 7.75 8.28 7.53 8.61 7.4C9.14 7.2 9.49 6.75 9.49 6.26C9.49 5.57 8.82 5.01 7.99 5.01C7.23 5.01 6.6 5.48 6.5 6.09C6.5 6.11 6.45 6.44 6.38 6.51C6.32 6.6 6.15 6.67 6 6.67C5.85 6.67 5.72 6.6 5.63 6.5C5.56 6.42 5.51 6.31 5.5 6.19C5.5 6.17 5.51 6.03 5.51 5.98C5.58 5.47 5.83 5 6.25 4.64C6.72 4.23 7.34 4 7.99 4C8.64 4 9.26 4.23 9.73 4.64C10.22 5.07 10.49 5.64 10.48 6.25C10.5 7.16 9.9 7.97 8.98 8.33Z"
        fill="#5E5F6E" />
    </g>
  </g>
</svg>