<svg width="60" height="60" viewBox="0 0 60 60" fill="none" xmlns="http://www.w3.org/2000/svg">
<path fill-rule="evenodd" clip-rule="evenodd" d="M10.1816 15.7769L48.3723 16.3763C49.7499 16.3979 50.8553 17.5208 50.8553 18.8986V44.0799C50.8553 45.6279 49.6005 46.8828 48.0525 46.8828H10.1816V15.7769Z" fill="#5B40B5"/>
<mask id="mask0_808_15152" style="mask-type:alpha" maskUnits="userSpaceOnUse" x="10" y="15" width="41" height="32">
<path fill-rule="evenodd" clip-rule="evenodd" d="M10.1816 15.7769L48.3723 16.3763C49.7499 16.3979 50.8553 17.5208 50.8553 18.8986V44.0799C50.8553 45.6279 49.6005 46.8828 48.0525 46.8828H10.1816V15.7769Z" fill="white"/>
</mask>
<g mask="url(#mask0_808_15152)">
<g filter="url(#filter0_d_808_15152)">
<path fill-rule="evenodd" clip-rule="evenodd" d="M10.1816 18.9844L50.8553 19.1985V44.0797C50.8553 45.6277 49.6005 46.8826 48.0525 46.8826H10.1816V18.9844Z" fill="url(#paint0_linear_808_15152)"/>
</g>
<g filter="url(#filter1_f_808_15152)">
<path fill-rule="evenodd" clip-rule="evenodd" d="M21.1606 17.5459L46.9454 23.5122C48.5976 23.8945 49.7677 25.3662 49.7677 27.0621V49.3069L14.6733 38.9141L21.1606 17.5459Z" fill="black" fill-opacity="0.3"/>
</g>
</g>
<g filter="url(#filter2_i_808_15152)">
<path fill-rule="evenodd" clip-rule="evenodd" d="M39.5043 55.6799L42.2602 56.4114C45.2839 57.2139 48.2474 54.9343 48.2474 51.806V28.3365C48.2474 26.63 47.063 25.1521 45.3975 24.7803L10.816 17.0606C10.4967 16.9893 10.3325 16.6339 10.4852 16.3445C10.5728 16.1783 10.7468 16.0759 10.9346 16.0799L48.6335 16.8729C49.8532 16.8985 50.8286 17.8947 50.8286 19.1147V44.0751C50.8286 45.6123 49.5927 46.8639 48.0555 46.8832C50.2885 46.8639 52.0884 45.0483 52.0884 42.8153V18.9618C52.0884 17.1358 50.6316 15.6434 48.8061 15.5993L10.495 14.6751C9.07845 14.6409 7.91162 15.78 7.91162 17.197V44.9353L8.75707 46.5621L39.5043 55.6799Z" fill="#7554E3"/>
</g>
<mask id="mask1_808_15152" style="mask-type:alpha" maskUnits="userSpaceOnUse" x="7" y="14" width="46" height="43">
<path fill-rule="evenodd" clip-rule="evenodd" d="M39.5043 55.6799L42.2602 56.4114C45.2839 57.2139 48.2474 54.9343 48.2474 51.806V28.3365C48.2474 26.63 47.063 25.1521 45.3975 24.7803L10.816 17.0606C10.4967 16.9893 10.3325 16.6339 10.4852 16.3445C10.5728 16.1783 10.7468 16.0759 10.9346 16.0799L48.6335 16.8729C49.8532 16.8985 50.8286 17.8947 50.8286 19.1147V44.0751C50.8286 45.6123 49.5927 46.8639 48.0555 46.8832C50.2885 46.8639 52.0884 45.0483 52.0884 42.8153V18.9618C52.0884 17.1358 50.6316 15.6434 48.8061 15.5993L10.495 14.6751C9.07845 14.6409 7.91162 15.78 7.91162 17.197V44.9353L8.75707 46.5621L39.5043 55.6799Z" fill="white"/>
</mask>
<g mask="url(#mask1_808_15152)">
<path fill-rule="evenodd" clip-rule="evenodd" d="M11.2671 16.416H6.97803L7.38358 18.3065L46.3258 28.4952L49.7679 28.8134L48.8065 24.7922L11.2671 16.416Z" fill="#7554E3"/>
<path fill-rule="evenodd" clip-rule="evenodd" d="M46.8994 28.3455C46.8762 28.1096 46.9716 27.8775 47.1538 27.7259C47.6155 27.342 48.3162 27.6637 48.3261 28.2641L48.7551 54.4251C48.783 56.1285 47.4098 57.5244 45.7061 57.5244C43.8067 57.5244 42.3695 55.8067 42.7046 53.937L47.0382 29.7631L46.8994 28.3455Z" fill="#5F3ECA"/>
<path fill-rule="evenodd" clip-rule="evenodd" d="M50.8561 18.5771C50.8558 18.3499 50.9807 18.1409 51.1809 18.0335C51.5913 17.8132 52.0884 18.1105 52.0884 18.5764V47.0373H48.8062L49.0242 45.5093L50.5923 44.5113V23.8984H50.8624L50.8561 18.5771Z" fill="#5F3ECA"/>
</g>
<path fill-rule="evenodd" clip-rule="evenodd" d="M14.6733 7.69026C14.6733 6.74841 14.6733 6.27749 14.8566 5.91775C15.0179 5.60131 15.2751 5.34404 15.5916 5.18281C15.9513 4.99951 16.4222 4.99951 17.3641 4.99951H43.9674C44.9092 4.99951 45.3802 4.99951 45.7399 5.18281C46.0563 5.34404 46.3136 5.60131 46.4748 5.91775C46.6581 6.27749 46.6581 6.74841 46.6581 7.69026V11C45.8297 11 45.1582 11.6716 45.1582 12.5C45.1582 13.3284 45.8297 14 46.6581 14V19.1752H20.3003L14.6733 17.9272V14C15.5018 14 16.1733 13.3284 16.1733 12.5C16.1733 11.6716 15.5018 11 14.6733 11V7.69026Z" fill="url(#paint1_linear_808_15152)"/>
<path fill-rule="evenodd" clip-rule="evenodd" d="M14.6733 7.69026C14.6733 6.74841 14.6733 6.27749 14.8566 5.91775C15.0179 5.60131 15.2751 5.34404 15.5916 5.18281C15.9513 4.99951 16.4222 4.99951 17.3641 4.99951H43.9674C44.9092 4.99951 45.3802 4.99951 45.7399 5.18281C46.0563 5.34404 46.3136 5.60131 46.4748 5.91775C46.6581 6.27749 46.6581 6.74841 46.6581 7.69026V11C45.8297 11 45.1582 11.6716 45.1582 12.5C45.1582 13.3284 45.8297 14 46.6581 14V19.1752H20.3003L14.6733 17.9272V14C15.5018 14 16.1733 13.3284 16.1733 12.5C16.1733 11.6716 15.5018 11 14.6733 11V7.69026Z" fill="url(#paint2_linear_808_15152)"/>
<path fill-rule="evenodd" clip-rule="evenodd" d="M14.6733 7.69026C14.6733 6.74841 14.6733 6.27749 14.8566 5.91775C15.0179 5.60131 15.2751 5.34404 15.5916 5.18281C15.9513 4.99951 16.4222 4.99951 17.3641 4.99951H43.9674C44.9092 4.99951 45.3802 4.99951 45.7399 5.18281C46.0563 5.34404 46.3136 5.60131 46.4748 5.91775C46.6581 6.27749 46.6581 6.74841 46.6581 7.69026V11C45.8297 11 45.1582 11.6716 45.1582 12.5C45.1582 13.3284 45.8297 14 46.6581 14V19.1752H20.3003L14.6733 17.9272V14C15.5018 14 16.1733 13.3284 16.1733 12.5C16.1733 11.6716 15.5018 11 14.6733 11V7.69026Z" fill="url(#paint3_linear_808_15152)"/>
<g filter="url(#filter3_ii_808_15152)">
<path fill-rule="evenodd" clip-rule="evenodd" d="M7.91162 16.9475V45.1522C7.91162 46.9733 9.1645 48.555 10.9372 48.972L42.5605 56.4101C44.8476 56.948 47.0385 55.2127 47.0385 52.8631V29.2709C47.0385 27.6977 45.9614 26.3377 44.4266 25.9923C36.0952 24.1171 10.6384 18.3849 9.67104 18.1336C8.51366 17.8329 7.91162 16.9475 7.91162 16.9475Z" fill="url(#paint4_linear_808_15152)"/>
</g>
<mask id="mask2_808_15152" style="mask-type:alpha" maskUnits="userSpaceOnUse" x="7" y="16" width="41" height="41">
<path fill-rule="evenodd" clip-rule="evenodd" d="M7.91162 16.9475V45.1522C7.91162 46.9733 9.1645 48.555 10.9372 48.972L42.5605 56.4101C44.8476 56.948 47.0385 55.2127 47.0385 52.8631V29.2709C47.0385 27.6977 45.9614 26.3377 44.4266 25.9923C36.0952 24.1171 10.6384 18.3849 9.67104 18.1336C8.51366 17.8329 7.91162 16.9475 7.91162 16.9475Z" fill="white"/>
</mask>
<g mask="url(#mask2_808_15152)">
<path fill-rule="evenodd" clip-rule="evenodd" d="M8.43956 19.6276C8.50997 19.5326 8.49004 19.3985 8.39504 19.3281C8.06674 19.0848 7.79455 18.7171 7.58014 18.221C7.53323 18.1125 7.4072 18.0625 7.29866 18.1094C7.20011 18.152 7.14986 18.2598 7.17654 18.3605C7.1719 18.3781 7.16943 18.3965 7.16943 18.4155V19.9142C7.16943 20.0325 7.26529 20.1283 7.38354 20.1283C7.50179 20.1283 7.59765 20.0325 7.59765 19.9142V19.12C7.7588 19.3393 7.93953 19.5235 8.14006 19.6722C8.23506 19.7426 8.36915 19.7226 8.43956 19.6276ZM7.59765 19.12C7.44277 18.9092 7.30598 18.666 7.18707 18.3909C7.18275 18.3809 7.17925 18.3708 7.17654 18.3605C7.20079 18.2689 7.28428 18.2014 7.38354 18.2014C7.50179 18.2014 7.59765 18.2972 7.59765 18.4155V19.12ZM11.0955 20.546C11.2108 20.5723 11.3255 20.5001 11.3518 20.3848C11.378 20.2695 11.3059 20.1548 11.1906 20.1285L9.72988 19.7944C9.61465 19.7679 9.49971 19.8397 9.47316 19.955C9.4466 20.0702 9.51848 20.1851 9.63371 20.2117L11.0955 20.546ZM14.275 21.048C14.2489 21.1633 14.1343 21.2356 14.0189 21.2095L12.5568 20.8782C12.4415 20.852 12.3692 20.7374 12.3953 20.622C12.4215 20.5067 12.5362 20.4344 12.6515 20.4606L14.1135 20.7919C14.2288 20.818 14.3012 20.9326 14.275 21.048ZM16.9426 21.8703C17.0579 21.8964 17.1725 21.824 17.1986 21.7087C17.2246 21.5933 17.1522 21.4787 17.0369 21.4527L15.5746 21.1222C15.4593 21.0961 15.3447 21.1685 15.3186 21.2838C15.2925 21.3992 15.3649 21.5138 15.4802 21.5399L16.9426 21.8703ZM20.123 22.3688C20.097 22.4841 19.9824 22.5566 19.867 22.5305L18.405 22.2006C18.2896 22.1746 18.2172 22.06 18.2433 21.9446C18.2693 21.8293 18.3839 21.7569 18.4993 21.7829L19.9613 22.1128C20.0766 22.1388 20.149 22.2535 20.123 22.3688ZM22.7889 23.1897C22.9043 23.2157 23.0189 23.1432 23.0449 23.0279C23.0709 22.9125 22.9985 22.7979 22.8831 22.7719L21.4215 22.4424C21.3062 22.4164 21.1916 22.4889 21.1656 22.6042C21.1396 22.7196 21.212 22.8342 21.3274 22.8602L22.7889 23.1897ZM25.9713 23.687C25.9453 23.8024 25.8307 23.8748 25.7154 23.8489L24.2535 23.5195C24.1381 23.4935 24.0657 23.3789 24.0917 23.2636C24.1177 23.1482 24.2323 23.0758 24.3476 23.1018L25.8095 23.4311C25.9248 23.4571 25.9973 23.5717 25.9713 23.687ZM28.6393 24.5076C28.7547 24.5335 28.8693 24.4611 28.8952 24.3457C28.9212 24.2304 28.8488 24.1158 28.7334 24.0898L27.2713 23.7606C27.156 23.7346 27.0414 23.8071 27.0154 23.9224C26.9894 24.0378 27.0619 24.1524 27.1773 24.1783L28.6393 24.5076ZM31.8204 25.004C31.7944 25.1194 31.6798 25.1919 31.5645 25.1659L30.102 24.8367C29.9866 24.8107 29.9141 24.6962 29.9401 24.5808C29.9661 24.4655 30.0806 24.393 30.196 24.419L31.6585 24.7481C31.7738 24.7741 31.8463 24.8887 31.8204 25.004ZM34.4882 25.8235C34.6035 25.8494 34.7181 25.7769 34.744 25.6616C34.77 25.5462 34.6975 25.4316 34.5822 25.4057L33.1197 25.0766C33.0044 25.0507 32.8898 25.1231 32.8639 25.2385C32.8379 25.3539 32.9104 25.4684 33.0257 25.4944L34.4882 25.8235ZM37.6685 26.32C37.6426 26.4354 37.528 26.5079 37.4127 26.4819L35.9504 26.153C35.8351 26.127 35.7626 26.0125 35.7885 25.8971C35.8145 25.7817 35.9291 25.7093 36.0444 25.7352L37.5066 26.0642C37.622 26.0901 37.6945 26.2047 37.6685 26.32ZM40.3379 27.1395C40.4533 27.1655 40.5678 27.093 40.5938 26.9776C40.6197 26.8623 40.5472 26.7477 40.4319 26.7218L38.9696 26.3929C38.8542 26.3669 38.7396 26.4394 38.7137 26.5548C38.6877 26.6702 38.7602 26.7847 38.8756 26.8107L40.3379 27.1395ZM43.3617 27.3823C43.4762 27.412 43.5449 27.5289 43.5152 27.6433C43.4855 27.7578 43.3686 27.8265 43.2542 27.7968L43.1784 27.7784L41.7994 27.4683C41.684 27.4424 41.6115 27.3278 41.6374 27.2125C41.6634 27.0971 41.7779 27.0246 41.8933 27.0506L43.2723 27.3606C43.3023 27.3674 43.3321 27.3746 43.3617 27.3823ZM45.2349 29.9161C45.3519 29.8991 45.4329 29.7904 45.4159 29.6734C45.3367 29.1302 45.0984 28.625 44.7344 28.2187C44.6555 28.1307 44.5202 28.1232 44.4321 28.2021C44.344 28.281 44.3366 28.4164 44.4155 28.5045C44.7236 28.8484 44.9251 29.2757 44.9921 29.7351C45.0092 29.8522 45.1179 29.9332 45.2349 29.9161ZM45.4451 32.7051C45.4451 32.8233 45.3492 32.9192 45.231 32.9192C45.1127 32.9192 45.0169 32.8233 45.0169 32.7051V31.2063C45.0169 31.0881 45.1127 30.9922 45.231 30.9922C45.3492 30.9922 45.4451 31.0881 45.4451 31.2063V32.7051ZM45.231 35.9166C45.3492 35.9166 45.4451 35.8207 45.4451 35.7025V34.2037C45.4451 34.0855 45.3492 33.9896 45.231 33.9896C45.1127 33.9896 45.0169 34.0855 45.0169 34.2037V35.7025C45.0169 35.8207 45.1127 35.9166 45.231 35.9166ZM45.4451 38.7001C45.4451 38.8183 45.3492 38.9142 45.231 38.9142C45.1127 38.9142 45.0169 38.8183 45.0169 38.7001V37.2013C45.0169 37.0831 45.1127 36.9872 45.231 36.9872C45.3492 36.9872 45.4451 37.0831 45.4451 37.2013V38.7001ZM45.231 41.9118C45.3492 41.9118 45.4451 41.8159 45.4451 41.6977V40.1989C45.4451 40.0807 45.3492 39.9848 45.231 39.9848C45.1127 39.9848 45.0169 40.0807 45.0169 40.1989V41.6977C45.0169 41.8159 45.1127 41.9118 45.231 41.9118ZM45.4451 44.6951C45.4451 44.8133 45.3492 44.9092 45.231 44.9092C45.1127 44.9092 45.0169 44.8133 45.0169 44.6951V43.1963C45.0169 43.0781 45.1127 42.9822 45.231 42.9822C45.3492 42.9822 45.4451 43.0781 45.4451 43.1963V44.6951ZM45.231 47.9068C45.3492 47.9068 45.4451 47.8109 45.4451 47.6927V46.1939C45.4451 46.0757 45.3492 45.9798 45.231 45.9798C45.1127 45.9798 45.0169 46.0757 45.0169 46.1939V47.6927C45.0169 47.8109 45.1127 47.9068 45.231 47.9068ZM45.4451 50.69C45.4451 50.8083 45.3492 50.9041 45.231 50.9041C45.1127 50.9041 45.0169 50.8083 45.0169 50.69V49.1913C45.0169 49.073 45.1127 48.9772 45.231 48.9772C45.3492 48.9772 45.4451 49.073 45.4451 49.1913V50.69ZM44.6237 53.773C44.7213 53.8398 44.8546 53.8149 44.9214 53.7174C45.1243 53.4211 45.273 53.0892 45.3599 52.7326C45.4024 52.5583 45.4291 52.3806 45.4397 52.2016C45.4467 52.0836 45.3568 51.9822 45.2387 51.9752C45.1207 51.9681 45.0193 52.0581 45.0123 52.1762C45.0031 52.3296 44.9802 52.4818 44.9439 52.6312C44.8692 52.9373 44.7419 53.2216 44.5681 53.4754C44.5013 53.5729 44.5262 53.7062 44.6237 53.773ZM42.1048 55.0013C41.9874 54.9877 41.9032 54.8814 41.9169 54.764C41.9305 54.6465 42.0368 54.5623 42.1543 54.576C42.6201 54.6302 43.087 54.555 43.5096 54.3628C43.6172 54.3139 43.7442 54.3614 43.7931 54.4691C43.8421 54.5767 43.7945 54.7037 43.6869 54.7526C43.1938 54.9769 42.6487 55.0646 42.1048 55.0013ZM39.0048 54.0486C38.9768 54.1635 39.0473 54.2793 39.1621 54.3074L40.6182 54.6624C40.7331 54.6904 40.849 54.6199 40.877 54.5051C40.905 54.3902 40.8346 54.2743 40.7197 54.2463L39.2636 53.8913C39.1487 53.8633 39.0329 53.9337 39.0048 54.0486ZM36.2501 53.5976C36.1352 53.5696 36.0648 53.4538 36.0928 53.3389C36.1208 53.224 36.2367 53.1536 36.3515 53.1816L37.8076 53.5366C37.9225 53.5646 37.993 53.6805 37.9649 53.7953C37.9369 53.9102 37.8211 53.9807 37.7062 53.9526L36.2501 53.5976ZM33.1808 52.629C33.1528 52.7438 33.2232 52.8597 33.3381 52.8877L34.7942 53.2427C34.9091 53.2707 35.0249 53.2003 35.0529 53.0854C35.0809 52.9705 35.0105 52.8547 34.8956 52.8267L33.4395 52.4717C33.3246 52.4436 33.2088 52.5141 33.1808 52.629ZM30.4256 52.1775C30.3107 52.1495 30.2403 52.0336 30.2683 51.9188C30.2963 51.8039 30.4121 51.7335 30.527 51.7615L31.9831 52.1165C32.098 52.1445 32.1684 52.2603 32.1404 52.3752C32.1124 52.4901 31.9966 52.5605 31.8817 52.5325L30.4256 52.1775ZM27.3563 51.2088C27.3283 51.3237 27.3987 51.4395 27.5136 51.4675L28.9697 51.8226C29.0845 51.8506 29.2004 51.7801 29.2284 51.6653C29.2564 51.5504 29.186 51.4345 29.0711 51.4065L27.615 51.0515C27.5001 51.0235 27.3843 51.0939 27.3563 51.2088ZM24.6011 50.7576C24.4862 50.7296 24.4158 50.6137 24.4438 50.4989C24.4718 50.384 24.5876 50.3136 24.7025 50.3416L26.1586 50.6966C26.2735 50.7246 26.3439 50.8404 26.3159 50.9553C26.2879 51.0702 26.172 51.1406 26.0572 51.1126L24.6011 50.7576ZM21.5317 49.7887C21.5037 49.9036 21.5742 50.0194 21.689 50.0474L23.1451 50.4024C23.26 50.4304 23.3759 50.36 23.4039 50.2451C23.4319 50.1302 23.3614 50.0144 23.2466 49.9864L21.7905 49.6314C21.6756 49.6034 21.5597 49.6738 21.5317 49.7887ZM18.777 49.3375C18.6621 49.3094 18.5917 49.1936 18.6197 49.0787C18.6477 48.9638 18.7636 48.8934 18.8784 48.9214L20.3345 49.2764C20.4494 49.3044 20.5198 49.4203 20.4918 49.5352C20.4638 49.65 20.348 49.7205 20.2331 49.6925L18.777 49.3375ZM15.7072 48.3688C15.6792 48.4836 15.7496 48.5995 15.8645 48.6275L17.3206 48.9825C17.4355 49.0105 17.5513 48.9401 17.5793 48.8252C17.6073 48.7103 17.5369 48.5945 17.422 48.5665L15.9659 48.2115C15.8511 48.1835 15.7352 48.2539 15.7072 48.3688ZM12.9525 47.9171C12.8376 47.8891 12.7672 47.7732 12.7952 47.6583C12.8232 47.5435 12.939 47.473 13.0539 47.501L14.51 47.8561C14.6249 47.8841 14.6953 47.9999 14.6673 48.1148C14.6393 48.2297 14.5235 48.3001 14.4086 48.2721L12.9525 47.9171ZM9.88268 46.9489C9.85467 47.0637 9.9251 47.1796 10.04 47.2076L11.4961 47.5626C11.611 47.5906 11.7268 47.5202 11.7548 47.4053C11.7828 47.2904 11.7124 47.1746 11.5975 47.1466L10.1414 46.7916C10.0265 46.7636 9.91069 46.834 9.88268 46.9489ZM7.5157 45.4357C7.46224 45.3302 7.50441 45.2013 7.60989 45.1479C7.71536 45.0944 7.8442 45.1366 7.89766 45.2421C8.11054 45.6621 8.42706 46.0224 8.8167 46.2873C8.91449 46.3538 8.93987 46.487 8.87339 46.5848C8.80691 46.6826 8.67374 46.708 8.57595 46.6415C8.12635 46.3358 7.76127 45.9202 7.5157 45.4357ZM7.38354 42.1813C7.26529 42.1813 7.16943 42.2771 7.16943 42.3954V43.8941C7.16943 44.0124 7.26529 44.1082 7.38354 44.1082C7.50179 44.1082 7.59765 44.0124 7.59765 43.8941V42.3954C7.59765 42.2771 7.50179 42.1813 7.38354 42.1813ZM7.16943 39.398C7.16943 39.2798 7.26529 39.1839 7.38354 39.1839C7.50179 39.1839 7.59765 39.2798 7.59765 39.398V40.8968C7.59765 41.015 7.50179 41.1109 7.38354 41.1109C7.26529 41.1109 7.16943 41.015 7.16943 40.8968V39.398ZM7.38354 36.1863C7.26529 36.1863 7.16943 36.2822 7.16943 36.4004V37.8992C7.16943 38.0174 7.26529 38.1133 7.38354 38.1133C7.50179 38.1133 7.59765 38.0174 7.59765 37.8992V36.4004C7.59765 36.2822 7.50179 36.1863 7.38354 36.1863ZM7.16943 33.4028C7.16943 33.2845 7.26529 33.1887 7.38354 33.1887C7.50179 33.1887 7.59765 33.2845 7.59765 33.4028V34.9015C7.59765 35.0198 7.50179 35.1157 7.38354 35.1157C7.26529 35.1157 7.16943 35.0198 7.16943 34.9015V33.4028ZM7.38354 30.1913C7.26529 30.1913 7.16943 30.2872 7.16943 30.4054V31.9042C7.16943 32.0224 7.26529 32.1183 7.38354 32.1183C7.50179 32.1183 7.59765 32.0224 7.59765 31.9042V30.4054C7.59765 30.2872 7.50179 30.1913 7.38354 30.1913ZM7.16943 27.408C7.16943 27.2898 7.26529 27.1939 7.38354 27.1939C7.50179 27.1939 7.59765 27.2898 7.59765 27.408V28.9068C7.59765 29.025 7.50179 29.1209 7.38354 29.1209C7.26529 29.1209 7.16943 29.025 7.16943 28.9068V27.408ZM7.38354 24.1963C7.26529 24.1963 7.16943 24.2922 7.16943 24.4104V25.9092C7.16943 26.0274 7.26529 26.1233 7.38354 26.1233C7.50179 26.1233 7.59765 26.0274 7.59765 25.9092V24.4104C7.59765 24.2922 7.50179 24.1963 7.38354 24.1963ZM7.16943 21.4128C7.16943 21.2946 7.26529 21.1987 7.38354 21.1987C7.50179 21.1987 7.59765 21.2946 7.59765 21.4128V22.9116C7.59765 23.0298 7.50179 23.1257 7.38354 23.1257C7.26529 23.1257 7.16943 23.0298 7.16943 22.9116V21.4128Z" fill="#ACF080"/>
<ellipse cx="-3.59772" cy="18.3058" rx="52.9916" ry="33.829" fill="white" fill-opacity="0.0746669"/>
<rect x="7.91162" y="16.4155" width="1.17759" height="32.7585" fill="black" fill-opacity="0.096628"/>
</g>
<path fill-rule="evenodd" clip-rule="evenodd" d="M14 58C20.6274 58 26 52.6274 26 46C26 39.3726 20.6274 34 14 34C7.37259 34 2 39.3726 2 46C2 52.6274 7.37259 58 14 58Z" fill="#4AAC4C"/>
<path fill-rule="evenodd" clip-rule="evenodd" d="M20.249 41.5592C20.6786 41.9888 20.6786 42.6853 20.249 43.1149L12.9348 50.4292C12.7285 50.6355 12.4487 50.7514 12.157 50.7514C11.8652 50.7514 11.5854 50.6355 11.3791 50.4292L7.74844 46.7985C7.31887 46.3689 7.31888 45.6724 7.74846 45.2428C8.17804 44.8133 8.87452 44.8133 9.3041 45.2429L12.157 48.0958L18.6934 41.5593C19.123 41.1297 19.8194 41.1297 20.249 41.5592Z" fill="white"/>
<line x1="16.1348" y1="12.5007" x2="45.2056" y2="12.5007" stroke="#89CA5F" stroke-dasharray="2 2"/>
<defs>
<filter id="filter0_d_808_15152" x="10.1816" y="18.4322" width="40.6738" height="28.4504" filterUnits="userSpaceOnUse" color-interpolation-filters="sRGB">
<feFlood flood-opacity="0" result="BackgroundImageFix"/>
<feColorMatrix in="SourceAlpha" type="matrix" values="0 0 0 0 0 0 0 0 0 0 0 0 0 0 0 0 0 0 127 0" result="hardAlpha"/>
<feOffset dy="-0.55221"/>
<feColorMatrix type="matrix" values="0 0 0 0 0 0 0 0 0 0 0 0 0 0 0 0 0 0 0.0418479 0"/>
<feBlend mode="normal" in2="BackgroundImageFix" result="effect1_dropShadow_808_15152"/>
<feBlend mode="normal" in="SourceGraphic" in2="effect1_dropShadow_808_15152" result="shape"/>
</filter>
<filter id="filter1_f_808_15152" x="7.05437" y="9.92692" width="50.3322" height="46.9989" filterUnits="userSpaceOnUse" color-interpolation-filters="sRGB">
<feFlood flood-opacity="0" result="BackgroundImageFix"/>
<feBlend mode="normal" in="SourceGraphic" in2="BackgroundImageFix" result="shape"/>
<feGaussianBlur stdDeviation="3.80949" result="effect1_foregroundBlur_808_15152"/>
</filter>
<filter id="filter2_i_808_15152" x="7.91162" y="14.6743" width="44.1768" height="41.8992" filterUnits="userSpaceOnUse" color-interpolation-filters="sRGB">
<feFlood flood-opacity="0" result="BackgroundImageFix"/>
<feBlend mode="normal" in="SourceGraphic" in2="BackgroundImageFix" result="shape"/>
<feColorMatrix in="SourceAlpha" type="matrix" values="0 0 0 0 0 0 0 0 0 0 0 0 0 0 0 0 0 0 127 0" result="hardAlpha"/>
<feOffset dy="0.55221"/>
<feComposite in2="hardAlpha" operator="arithmetic" k2="-1" k3="1"/>
<feColorMatrix type="matrix" values="0 0 0 0 1 0 0 0 0 1 0 0 0 0 1 0 0 0 0.242961 0"/>
<feBlend mode="normal" in2="shape" result="effect1_innerShadow_808_15152"/>
</filter>
<filter id="filter3_ii_808_15152" x="7.91162" y="16.9475" width="39.127" height="39.561" filterUnits="userSpaceOnUse" color-interpolation-filters="sRGB">
<feFlood flood-opacity="0" result="BackgroundImageFix"/>
<feBlend mode="normal" in="SourceGraphic" in2="BackgroundImageFix" result="shape"/>
<feColorMatrix in="SourceAlpha" type="matrix" values="0 0 0 0 0 0 0 0 0 0 0 0 0 0 0 0 0 0 127 0" result="hardAlpha"/>
<feOffset dy="0.55221"/>
<feComposite in2="hardAlpha" operator="arithmetic" k2="-1" k3="1"/>
<feColorMatrix type="matrix" values="0 0 0 0 1 0 0 0 0 1 0 0 0 0 1 0 0 0 0.155126 0"/>
<feBlend mode="normal" in2="shape" result="effect1_innerShadow_808_15152"/>
<feColorMatrix in="SourceAlpha" type="matrix" values="0 0 0 0 0 0 0 0 0 0 0 0 0 0 0 0 0 0 127 0" result="hardAlpha"/>
<feOffset dx="-0.55221" dy="-0.55221"/>
<feComposite in2="hardAlpha" operator="arithmetic" k2="-1" k3="1"/>
<feColorMatrix type="matrix" values="0 0 0 0 0 0 0 0 0 0 0 0 0 0 0 0 0 0 0.158294 0"/>
<feBlend mode="normal" in2="effect1_innerShadow_808_15152" result="effect2_innerShadow_808_15152"/>
</filter>
<linearGradient id="paint0_linear_808_15152" x1="10.1816" y1="18.9844" x2="10.1816" y2="46.8826" gradientUnits="userSpaceOnUse">
<stop stop-color="#8060EA"/>
<stop offset="1" stop-color="#6B4AD8"/>
</linearGradient>
<linearGradient id="paint1_linear_808_15152" x1="30.6657" y1="4.99951" x2="30.6657" y2="19.1752" gradientUnits="userSpaceOnUse">
<stop stop-color="#94DC65"/>
<stop offset="1" stop-color="#94DC65" stop-opacity="0.74"/>
</linearGradient>
<linearGradient id="paint2_linear_808_15152" x1="9.44687" y1="16.509" x2="8.83576" y2="24.3553" gradientUnits="userSpaceOnUse">
<stop stop-opacity="0.01"/>
<stop offset="1" stop-opacity="0.739691"/>
</linearGradient>
<linearGradient id="paint3_linear_808_15152" x1="24.3636" y1="16.866" x2="24.3636" y2="22.4523" gradientUnits="userSpaceOnUse">
<stop stop-opacity="0.01"/>
<stop offset="1" stop-opacity="0.493181"/>
</linearGradient>
<linearGradient id="paint4_linear_808_15152" x1="67.3436" y1="37.2054" x2="26.7998" y2="-3.43282" gradientUnits="userSpaceOnUse">
<stop stop-color="#8864FF"/>
<stop offset="1" stop-color="#9A7CFF"/>
</linearGradient>
</defs>
</svg>
