<svg width="20" height="20" viewBox="0 0 20 20" fill="none" xmlns="http://www.w3.org/2000/svg">
<path d="M11.2752 14.9248L15.1832 16.6142C15.4245 16.7163 15.6937 16.5678 15.7308 16.3079L17.7916 2.57897C17.838 2.25408 17.4852 2.01273 17.2068 2.17982L2.75383 10.6826C2.48464 10.8404 2.5032 11.2396 2.78168 11.3788L6.02129 12.9012C6.16981 12.9661 6.3369 12.9476 6.45757 12.8362L16.2785 3.90637L8.32336 13.8387C8.26767 13.9037 8.23982 13.9872 8.23982 14.0708L8.16556 17.0969C8.15628 17.4682 8.6204 17.6445 8.86175 17.3568L10.8389 15.0361C10.9318 14.9062 11.1174 14.8598 11.2752 14.9248Z" fill="white"/>
</svg>
