<svg width="24" height="24" viewBox="0 0 24 24" fill="none" xmlns="http://www.w3.org/2000/svg">
<g id="L/Skip">
<path id="Union" fill-rule="evenodd" clip-rule="evenodd" d="M12.3 3.9998C12.3 3.61321 12.6134 3.2998 13 3.2998H20C20.3866 3.2998 20.7 3.61321 20.7 3.9998V10.9998C20.7 11.3864 20.3866 11.6998 20 11.6998C19.6134 11.6998 19.3 11.3864 19.3 10.9998V5.68961L12.3949 12.5947C12.1216 12.8681 11.6783 12.8681 11.405 12.5947C11.1316 12.3214 11.1316 11.8781 11.405 11.6048L18.31 4.6998H13C12.6134 4.6998 12.3 4.3864 12.3 3.9998ZM5.16672 6.6998C4.90898 6.6998 4.70005 6.90874 4.70005 7.16647V18.8331C4.70005 19.0909 4.90898 19.2998 5.16672 19.2998H16.8334C17.0911 19.2998 17.3 19.0909 17.3 18.8331V14.1285C17.3 13.7419 17.6134 13.4285 18 13.4285C18.3866 13.4285 18.7 13.7419 18.7 14.1285V18.8331C18.7 19.8641 17.8643 20.6998 16.8334 20.6998H5.16672C4.13579 20.6998 3.30005 19.8641 3.30005 18.8331V7.16647C3.30005 6.13554 4.13579 5.2998 5.16672 5.2998H9.66672C10.0533 5.2998 10.3667 5.61321 10.3667 5.9998C10.3667 6.3864 10.0533 6.6998 9.66672 6.6998H5.16672Z" fill="#5E5F6E"/>
</g>
</svg>
