<svg width="20" height="20" viewBox="0 0 20 20" fill="none" xmlns="http://www.w3.org/2000/svg">
<g id="&#231;&#164;&#190;&#228;&#186;&#164;&#230;&#129;&#162;&#229;&#164;&#141;">
<path id="&#232;&#183;&#175;&#229;&#190;&#132;" d="M10.8059 2.21924C10.7929 2.21385 10.7801 2.2085 10.7673 2.20318C10.5789 2.12468 10.4128 2.05547 10.2353 2.02728C10.0794 2.00251 9.92057 2.00251 9.76466 2.02728C9.58717 2.05547 9.42107 2.12468 9.23268 2.20318C9.21992 2.2085 9.20707 2.21385 9.1941 2.21924L4.16922 4.3075C4.14837 4.31617 4.12769 4.32473 4.10719 4.33322C3.81288 4.45504 3.55429 4.56208 3.35602 4.74566C3.1825 4.90632 3.04942 5.10574 2.96765 5.32763C2.87422 5.58117 2.87461 5.86104 2.87506 6.17956C2.87509 6.20175 2.87512 6.22414 2.87512 6.24671V9.30877C2.87512 13.2368 5.67628 16.8897 9.51072 17.9596L9.52464 17.9635C9.62491 17.9915 9.7156 18.0168 9.83743 18.0302C9.93302 18.0408 10.0659 18.041 10.1616 18.0307C10.2834 18.0176 10.3741 17.9926 10.4743 17.9649L10.4882 17.9611C14.3248 16.9026 17.1249 13.2356 17.1249 9.30877V6.24671C17.1249 6.22414 17.1249 6.20176 17.1249 6.17956C17.1254 5.86104 17.1258 5.58117 17.0323 5.32763C16.9506 5.10574 16.8175 4.90632 16.644 4.74566C16.4457 4.56208 16.1871 4.45504 15.8928 4.33321C15.8723 4.32473 15.8516 4.31617 15.8308 4.3075L10.8059 2.21924Z" fill="#8864FF" stroke="#8864FF"/>
<circle id="Ellipse 33" cx="9.99978" cy="7.33864" r="2.01091" stroke="white" stroke-width="1.3"/>
<path id="Ellipse 34" d="M13.6449 13.8387C13.6449 11.8254 12.0128 10.1934 9.99956 10.1934C7.98631 10.1934 6.35425 11.8254 6.35425 13.8387" stroke="white" stroke-width="1.3" stroke-linecap="round"/>
</g>
</svg>
