<svg width="40" height="40" viewBox="0 0 40 40" fill="none" xmlns="http://www.w3.org/2000/svg">
<path fill-rule="evenodd" clip-rule="evenodd" d="M20 40C31.0457 40 40 31.0457 40 20C40 8.95432 31.0457 0 20 0C8.95432 0 0 8.95432 0 20C0 31.0457 8.95432 40 20 40Z" fill="#EDF7ED"/>
<path fill-rule="evenodd" clip-rule="evenodd" d="M30.4152 12.5995C31.1312 13.3154 31.1312 14.4762 30.4152 15.1922L18.2248 27.3828C17.881 27.7266 17.4147 27.9198 16.9284 27.9198C16.4422 27.9198 15.9759 27.7266 15.6321 27.3828L9.5809 21.3315C8.86495 20.6156 8.86496 19.4548 9.58093 18.7388C10.2969 18.0228 11.4577 18.0229 12.1737 18.7388L16.9284 23.4937L27.8225 12.5995C28.5384 11.8835 29.6992 11.8835 30.4152 12.5995Z" fill="#4AAC4C"/>
</svg>
