<svg width="20" height="20" viewBox="0 0 20 20" fill="none" xmlns="http://www.w3.org/2000/svg">
<g id="&#229;&#184;&#174;&#229;&#138;&#169;_Help">
<path id="Vector" d="M10.0003 13.6723C7.9817 13.6723 6.3453 12.0359 6.3453 10.0173C6.3453 7.9987 7.9817 6.3623 10.0003 6.3623C11.7318 6.3623 13.3824 7.77054 13.3824 9.59371M10.0003 13.6723C7.82905 13.6723 5.96423 14.983 5.15332 16.8563M10.0003 13.6723C12.1715 13.6723 14.037 14.983 14.8479 16.8563" stroke="#5E5F6E" stroke-width="1.3" stroke-linecap="round"/>
<path id="Vector_2" d="M4.78141 11.4663C4.18477 11.3468 3.73169 10.7586 3.73169 10.0509C3.73169 9.43153 4.07867 8.90368 4.56519 8.70141C4.59786 5.72743 7.01884 3.32666 10.0005 3.32666C12.9821 3.32666 15.403 5.72717 15.4359 8.70091C15.923 8.90281 16.2706 9.43103 16.2706 10.0509C16.2706 10.7586 15.8175 11.3468 15.2209 11.4663H10.9621" stroke="#5E5F6E" stroke-width="1.3" stroke-linecap="round"/>
<rect id="Rectangle 612" x="10.2463" y="10.9587" width="1.42082" height="1.01409" rx="0.507043" fill="#5E5F6E" stroke="#5E5F6E" stroke-width="1.01409"/>
</g>
</svg>
