<svg width="20" height="20" viewBox="0 0 20 20" fill="none" xmlns="http://www.w3.org/2000/svg">
<path d="M9.44061 4.4951C9.07599 4.17593 8.60789 4 8.12331 4H4.75C4.33579 4 4 4.28277 4 4.63158V15.3684C4 15.7172 4.33579 16 4.75 16H15.25C15.6642 16 16 15.7172 16 15.3684V11.1441" fill="#8864FF"/>
<path d="M4.75 4H8.12331C8.60789 4 9.07599 4.17593 9.44061 4.4951L15.3173 9.63925C15.7512 10.019 16 10.5676 16 11.1441V15.3684C16 15.7172 15.6642 16 15.25 16H4.75C4.33579 16 4 15.7172 4 15.3684V4.63158C4 4.28277 4.33579 4 4.75 4Z" stroke="#8864FF" stroke-width="1.3" stroke-linecap="round" stroke-linejoin="round"/>
<path d="M13.2465 10.8413H8.9024V6.49725" stroke="white" stroke-width="1.3" stroke-linecap="round" stroke-linejoin="round"/>
<path d="M8.9024 10.8413L15.4185 4.32526" stroke="white" stroke-width="1.3" stroke-linecap="round" stroke-linejoin="round"/>
<path d="M13.0809 6.66291L15.4185 4.32532" stroke="#8864FF" stroke-width="1.3" stroke-linecap="round" stroke-linejoin="round"/>
</svg>
