<svg width="115" height="24" viewBox="0 0 115 24" fill="none" xmlns="http://www.w3.org/2000/svg">
<path fill-rule="evenodd" clip-rule="evenodd" d="M3.41051 3.90552C5.29408 3.90552 6.82101 5.43245 6.82101 7.31602L6.81474 12.5518C6.81474 14.7555 8.60124 16.542 10.805 16.542C11.3043 16.542 11.7921 16.5048 12.2328 16.3383C8.66201 18.0756 2.12698 17.2164 0.0920624 12.6656L0 12.4496V7.31602C0 5.43245 1.52694 3.90552 3.41051 3.90552Z" fill="url(#paint0_linear_198_3678)"/>
<path d="M19.4202 0C21.9193 0 23.9556 1.98193 24.0429 4.45978L24.0458 4.62569V12.4837C24.0458 14.6648 23.5178 16.6481 22.4592 18.3956C21.4137 20.1213 19.9856 21.4949 18.1998 22.4957C16.4038 23.5022 14.3407 24 12.0407 24C9.76671 24 7.70744 23.5032 5.89248 22.5018C4.07676 21.5 2.63139 20.1167 1.58326 18.3729C0.527149 16.6159 0 14.6289 0 12.4495C2.19489 17.8617 10.6 18.285 13.5706 15.4281C14.2896 14.7367 14.7499 13.7782 14.7921 12.7122L14.7953 12.5517L14.7945 4.62569C14.7945 2.07099 16.8655 0 19.4202 0Z" fill="url(#paint1_linear_198_3678)"/>
<path d="M38.2869 20.0002C37.0219 20.0002 35.922 19.7964 34.9872 19.3887C34.0525 18.9811 33.3285 18.3767 32.8155 17.5754C32.3024 16.7742 32.0459 15.7903 32.0459 14.6236V6.21085H35.4405V14.3073C35.4405 15.2491 35.6865 15.9519 36.1785 16.4158C36.6705 16.8797 37.3733 17.1116 38.2869 17.1116C39.2006 17.1116 39.9034 16.8797 40.3954 16.4158C40.8874 15.9519 41.1334 15.2491 41.1334 14.3073V6.21085H44.528V14.6236C44.528 15.7903 44.2715 16.7742 43.7584 17.5754C43.2453 18.3767 42.5214 18.9811 41.5867 19.3887C40.6519 19.7964 39.552 20.0002 38.2869 20.0002ZM46.7427 19.7893V6.21085H49.6524L55.4296 14.3284V6.21085H58.8453V19.7893H55.9145L50.1373 11.6928V19.7893H46.7427ZM61.0689 19.7893V6.21085H64.4635V19.7893H61.0689ZM73.3613 6.21085C74.4436 6.21085 75.3362 6.4252 76.039 6.85392C76.7419 7.28264 77.2655 7.86247 77.6098 8.59341C77.9542 9.32434 78.1264 10.1466 78.1264 11.0603C78.1264 11.988 77.9296 12.8103 77.536 13.5272C77.1425 14.2441 76.5837 14.8028 75.8598 15.2034C75.1359 15.604 74.275 15.8043 73.277 15.8043H70.0721V19.7893H66.6775L66.676 11.9453H70.0721L71.0517 13.1899H72.5179C73.2348 13.1899 73.7724 12.9931 74.1309 12.5995C74.4893 12.2059 74.6685 11.6858 74.6685 11.0392C74.6685 10.3364 74.5034 9.79171 74.1731 9.40516C73.8427 9.01861 73.3262 8.82534 72.6233 8.82534L66.676 8.82323L66.6775 6.21085H73.3613ZM86.2206 6.21085L91.4074 19.7893H87.8612L84.3652 9.47896L81.9826 16.6309L84.3652 16.6315L85.4292 19.7893H77.3651L82.5519 6.21085H86.2206ZM96.9235 20.0002C96.0239 20.0002 95.184 19.9334 94.4039 19.7999C93.6237 19.6663 92.9525 19.4731 92.3903 19.22V16.3315C93.0088 16.5985 93.694 16.8164 94.446 16.9851C95.198 17.1538 95.9114 17.2381 96.5861 17.2381C97.4295 17.2381 98.0585 17.1608 98.4732 17.0062C98.8878 16.8515 99.0952 16.5142 99.0952 15.9941C99.0952 15.6427 98.9933 15.3616 98.7895 15.1507C98.5856 14.9399 98.2553 14.7536 97.7985 14.592C97.3417 14.4303 96.7197 14.2371 95.9325 14.0122C95.0048 13.731 94.2668 13.4183 93.7186 13.0739C93.1704 12.7295 92.7768 12.3113 92.5379 11.8193C92.2989 11.3274 92.1794 10.723 92.1794 10.0061C92.1794 8.71289 92.6433 7.72191 93.571 7.03314C94.4987 6.34438 95.8692 6 97.6825 6C98.4697 6 99.2358 6.05974 99.9807 6.17922C100.726 6.2987 101.33 6.43575 101.794 6.59037V9.50004C101.19 9.26108 100.582 9.08538 99.9702 8.97293C99.3587 8.86048 98.7649 8.80425 98.1885 8.80425C97.4295 8.80425 96.8145 8.87454 96.3437 9.0151C95.8728 9.15566 95.6373 9.47896 95.6373 9.98499C95.6373 10.2802 95.7216 10.5156 95.8903 10.6913C96.059 10.867 96.3507 11.0252 96.7653 11.1657C97.18 11.3063 97.7458 11.475 98.4627 11.6718C99.5731 11.9669 100.424 12.3219 101.014 12.7365C101.604 13.1512 102.012 13.6291 102.237 14.1703C102.462 14.7115 102.574 15.3194 102.574 15.9941C102.574 17.1889 102.11 18.1553 101.183 18.8932C100.255 19.6312 98.8351 20.0002 96.9235 20.0002ZM108.421 20.0002C107.522 20.0002 106.682 19.9334 105.902 19.7999C105.122 19.6663 104.451 19.4731 103.888 19.22V16.3315C104.507 16.5985 105.192 16.8164 105.944 16.9851C106.696 17.1538 107.409 17.2381 108.084 17.2381C108.927 17.2381 109.557 17.1608 109.971 17.0062C110.386 16.8515 110.593 16.5142 110.593 15.9941C110.593 15.6427 110.491 15.3616 110.287 15.1507C110.084 14.9399 109.753 14.7536 109.296 14.592C108.84 14.4303 108.218 14.2371 107.43 14.0122C106.503 13.731 105.765 13.4183 105.217 13.0739C104.668 12.7295 104.275 12.3113 104.036 11.8193C103.797 11.3274 103.677 10.723 103.677 10.0061C103.677 8.71289 104.141 7.72191 105.069 7.03314C105.997 6.34438 107.367 6 109.181 6C109.968 6 110.734 6.05974 111.479 6.17922C112.224 6.2987 112.828 6.43575 113.292 6.59037V9.50004C112.688 9.26108 112.08 9.08538 111.468 8.97293C110.857 8.86048 110.263 8.80425 109.687 8.80425C108.927 8.80425 108.313 8.87454 107.842 9.0151C107.371 9.15566 107.135 9.47896 107.135 9.98499C107.135 10.2802 107.22 10.5156 107.388 10.6913C107.557 10.867 107.849 11.0252 108.263 11.1657C108.678 11.3063 109.244 11.475 109.961 11.6718C111.071 11.9669 111.922 12.3219 112.512 12.7365C113.102 13.1512 113.51 13.6291 113.735 14.1703C113.96 14.7115 114.072 15.3194 114.072 15.9941C114.072 17.1889 113.608 18.1553 112.681 18.8932C111.753 19.6312 110.333 20.0002 108.421 20.0002Z" fill="#1F202A"/>
<defs>
<linearGradient id="paint0_linear_198_3678" x1="3.0404" y1="8.33224" x2="4.4646" y2="16.1143" gradientUnits="userSpaceOnUse">
<stop stop-color="#6D50CC"/>
<stop offset="1" stop-color="#523C99"/>
</linearGradient>
<linearGradient id="paint1_linear_198_3678" x1="20.0197" y1="-0.335869" x2="7.32106" y2="22.159" gradientUnits="userSpaceOnUse">
<stop stop-color="#A083FF"/>
<stop offset="1" stop-color="#8864FF"/>
</linearGradient>
</defs>
</svg>
