<svg width="128" height="32" viewBox="0 0 128 32" fill="none" xmlns="http://www.w3.org/2000/svg">
<path fill-rule="evenodd" clip-rule="evenodd" d="M28.4958 7.34612C28.4958 6.85435 28.0972 6.45569 27.6054 6.45569L22.708 6.45569C22.2162 6.45569 21.8176 6.85435 21.8176 7.34612V12.0549C21.8176 12.5466 22.2162 12.9453 22.708 12.9453H27.5509C28.0604 12.9453 28.472 13.3746 28.3714 13.8741C27.8263 16.5816 25.5486 18.6863 22.706 19.0535C22.2182 19.1165 21.8176 19.5091 21.8176 20.0009L21.8176 24.7096C21.8176 25.2014 22.2175 25.603 22.7082 25.5716C29.3666 25.1457 34.6922 19.9783 35.1431 13.5114C35.1774 13.0208 34.7754 12.6208 34.2837 12.6208L29.3863 12.6208C28.8945 12.6208 28.4958 12.2222 28.4958 11.7304V7.34612Z" fill="#1F202A"/>
<path fill-rule="evenodd" clip-rule="evenodd" d="M15.3619 24.7096C15.3619 25.2014 14.9633 25.6 14.4715 25.6L9.57409 25.6C9.08232 25.6 8.68365 25.2014 8.68365 24.7096L8.68365 20.0009C8.68365 19.5091 9.08232 19.1104 9.57409 19.1104L14.417 19.1104C14.9265 19.1104 15.3381 18.6811 15.2375 18.1817C14.6924 15.4741 12.4146 13.3694 9.57205 13.0022C9.08433 12.9392 8.68365 12.5466 8.68365 12.0549L8.68365 7.34612C8.68365 6.85435 9.08354 6.45269 9.57431 6.48409C16.2327 6.91007 21.5583 12.0774 22.0092 18.5444C22.0434 19.0349 21.6415 19.4349 21.1497 19.4349L16.2524 19.4349C15.7606 19.4349 15.3619 19.8336 15.3619 20.3253L15.3619 24.7096Z" fill="#1F202A"/>
<path d="M52.9509 13.3557V18.4895C52.9509 20.255 51.5569 21.76 49.7643 21.8219C49.3199 21.8379 48.8769 21.7654 48.4616 21.6089C48.0463 21.4524 47.6673 21.2149 47.3472 20.9109C47.0272 20.6068 46.7728 20.2422 46.5991 19.8391C46.4254 19.4359 46.336 19.0024 46.3363 18.5644V11.2434C46.3363 11.182 46.2864 11.1321 46.225 11.1321H43.9671C43.9056 11.1321 43.8558 11.182 43.8558 11.2434V18.452C43.8558 21.6476 46.5116 24.3252 49.756 24.2634C51.2715 24.2344 52.7149 23.621 53.7762 22.555C54.8374 21.4891 55.4317 20.0557 55.4314 18.5628V11.2418C55.4314 11.1803 55.3816 11.1305 55.3201 11.1305H53.0622C53.0008 11.1305 52.9509 11.1803 52.9509 11.2418V13.3557Z" fill="#1F202A"/>
<path d="M62.8151 13.5794C61.7424 13.5697 60.6964 13.9143 59.8391 14.5599H57.9915C57.93 14.5599 57.8802 14.6097 57.8802 14.6712V23.9272C57.8802 23.9887 57.93 24.0385 57.9915 24.0385H60.2176C60.2791 24.0385 60.3289 23.9887 60.3289 23.9272V18.5507C60.3225 17.9127 60.5603 17.2964 60.9935 16.8284C61.4267 16.3604 62.0224 16.0761 62.6584 16.034C62.9899 16.0178 63.3211 16.0693 63.6321 16.1852C63.9431 16.3011 64.2273 16.4791 64.4675 16.7084C64.7076 16.9377 64.8987 17.2134 65.0292 17.5189C65.1596 17.8243 65.2267 18.1531 65.2263 18.4854V23.9305C65.2263 23.9919 65.2761 24.0418 65.3376 24.0418H67.5637C67.6251 24.0418 67.675 23.9919 67.675 23.9305V18.585C67.675 15.8755 65.5217 13.599 62.8151 13.5794Z" fill="#1F202A"/>
<path d="M72.461 13.5351H70.235C70.1735 13.5351 70.1237 13.5849 70.1237 13.6464V23.9305C70.1237 23.992 70.1735 24.0418 70.235 24.0418H72.461C72.5225 24.0418 72.5724 23.992 72.5724 23.9305V13.6464C72.5724 13.5849 72.5225 13.5351 72.461 13.5351Z" fill="#1F202A"/>
<path d="M72.461 9.5722H70.235C70.1735 9.5722 70.1237 9.62204 70.1237 9.68351V11.9199C70.1237 11.9814 70.1735 12.0312 70.235 12.0312H72.461C72.5225 12.0312 72.5724 11.9814 72.5724 11.9199V9.68351C72.5724 9.62204 72.5225 9.5722 72.461 9.5722Z" fill="#1F202A"/>
<path d="M106.87 18.5047C106.725 18.4577 106.567 18.4107 106.4 18.3672C103.998 17.6187 102.314 17.8259 102.434 16.536C102.614 15.8015 103.474 15.5856 104.295 15.5543H104.519C104.985 15.5639 105.45 15.6058 105.909 15.6796C106.639 15.7978 107.428 15.8717 107.996 16.1286C108.074 16.1638 108.167 16.1091 108.167 16.0235V14.3848C108.167 14.3403 108.141 14.3 108.1 14.2828C107.68 14.1074 107.245 13.9696 106.8 13.8711C106.07 13.6906 105.321 13.593 104.568 13.5804C103.102 13.5583 101.93 13.8391 101.053 14.4229C100.645 14.6729 100.31 15.0194 100.079 15.4295C99.8476 15.8397 99.7278 16.3001 99.7308 16.7675C99.7236 17.5184 99.9212 18.1142 100.323 18.5552C100.717 18.9682 101.211 19.2793 101.76 19.4604C102.477 19.6719 103.209 19.8336 103.95 19.9443C104.578 20.033 105.196 20.1805 105.794 20.3847C105.965 20.4326 106.115 20.5345 106.219 20.6742C106.324 20.8139 106.377 20.9834 106.371 21.1558C106.358 21.9252 105.592 22.2977 104.074 22.2733C103.386 22.2592 102.704 22.1562 102.044 21.9669C101.446 21.7846 100.666 21.5749 100.16 21.3073C100.082 21.2658 99.9822 21.3208 99.9822 21.4095V23.3356C99.9822 23.3789 100.007 23.4182 100.047 23.4362C100.451 23.6212 100.871 23.7731 101.302 23.8904C102.141 24.1253 103.007 24.2506 103.88 24.2629C105.399 24.2873 106.604 24.0134 107.495 23.4413C108.386 22.8692 108.84 22.0946 108.857 21.1175C108.871 20.376 108.677 19.7981 108.277 19.389C107.895 18.9805 107.411 18.6757 106.87 18.5047Z" fill="#1F202A"/>
<path d="M117.333 18.5047C117.187 18.4577 117.029 18.4107 116.862 18.3672C114.461 17.6187 112.776 17.8259 112.897 16.536C113.076 15.8015 113.937 15.5856 114.757 15.5543H114.982C115.448 15.5639 115.912 15.6058 116.372 15.6796C117.102 15.7978 117.891 15.8717 118.458 16.1286C118.536 16.1638 118.63 16.1091 118.63 16.0235V14.3848C118.63 14.3403 118.603 14.3 118.562 14.2828C118.143 14.1074 117.708 13.9696 117.263 13.8711C116.533 13.6906 115.784 13.593 115.03 13.5804C113.565 13.5583 112.393 13.8391 111.515 14.4229C111.108 14.6729 110.773 15.0194 110.542 15.4295C110.31 15.8397 110.19 16.3001 110.193 16.7675C110.186 17.5184 110.384 18.1142 110.786 18.5552C111.18 18.9682 111.674 19.2793 112.223 19.4604C112.94 19.6719 113.672 19.8336 114.412 19.9443C115.041 20.033 115.658 20.1805 116.257 20.3847C116.428 20.4326 116.578 20.5345 116.682 20.6742C116.787 20.8139 116.84 20.9834 116.834 21.1558C116.82 21.9252 116.055 22.2977 114.536 22.2733C113.849 22.2592 113.166 22.1562 112.507 21.9669C111.909 21.7846 111.129 21.5749 110.623 21.3073C110.545 21.2658 110.445 21.3208 110.445 21.4095V23.3356C110.445 23.3789 110.47 23.4182 110.509 23.4362C110.914 23.6212 111.334 23.7731 111.765 23.8904C112.603 24.1253 113.47 24.2506 114.342 24.2629C115.862 24.2873 117.067 24.0134 117.958 23.4413C118.849 22.8692 119.303 22.0946 119.319 21.1175C119.334 20.376 119.14 19.7981 118.739 19.389C118.358 18.9805 117.873 18.6757 117.333 18.5047Z" fill="#1F202A"/>
<path d="M85.7615 13.9954C85.407 13.1422 84.8028 12.4135 84.0266 11.903C83.2504 11.3925 82.3377 11.1235 81.4058 11.1306H75.5776C75.5161 11.1306 75.4662 11.1805 75.4662 11.2419V23.9305C75.4662 23.992 75.5161 24.0418 75.5776 24.0418H77.7917C77.8532 24.0418 77.903 23.992 77.903 23.9305V20.7502H81.2901C84.6086 20.7502 87.1566 17.4497 85.7615 13.9954ZM81.2261 18.4237H77.9076V13.4586H81.2947C81.6485 13.4591 81.9982 13.5335 82.3209 13.6771C82.6436 13.8207 82.9321 14.0302 83.1673 14.2919C83.4026 14.5535 83.5793 14.8614 83.686 15.1954C83.7926 15.5294 83.8268 15.8819 83.7862 16.2299C83.64 17.4934 82.51 18.4237 81.2261 18.4237Z" fill="#1F202A"/>
<path fill-rule="evenodd" clip-rule="evenodd" d="M92.9529 13.5868C93.9174 13.6399 94.8484 13.9692 95.6411 14.5376H97.8384C97.8999 14.5376 97.9497 14.5874 97.9497 14.6489V23.8868C97.9497 23.9482 97.8999 23.9981 97.8384 23.9981H96.0865C96.025 23.9981 95.9752 23.9482 95.9752 23.8868V22.7203C95.5408 23.4258 94.1764 24.1313 93.3704 24.2163C92.4131 24.3494 91.4388 24.2048 90.5571 23.7987C89.6754 23.3926 88.9213 22.7411 88.3797 21.9177C87.838 21.0942 87.5304 20.1314 87.4914 19.1376C87.4523 18.1439 87.6835 17.1586 88.1588 16.2928C88.6341 15.427 89.3346 14.715 90.1816 14.2369C91.0286 13.7588 91.9884 13.5337 92.9529 13.5868ZM90.402 17.089C90.9376 16.3118 91.8069 15.8063 92.7884 15.8063C94.4158 15.8063 95.7351 17.1962 95.7351 18.9106C95.7351 20.625 94.4158 22.0148 92.7884 22.0148C91.8851 22.0148 91.0768 21.5867 90.5362 20.9125C90.3483 20.6991 90.1905 20.4574 90.0689 20.1942C89.8131 19.6405 89.7301 19.0188 89.8312 18.4145C89.9125 17.9291 90.1094 17.474 90.402 17.089Z" fill="#1F202A"/>
</svg>
