<svg width="38" height="38" viewBox="0 0 38 38" fill="none" xmlns="http://www.w3.org/2000/svg">
<path fill-rule="evenodd" clip-rule="evenodd" d="M27.1724 5.26562C27.8786 5.26562 28.4511 5.83766 28.4511 6.54329V12.8342C28.4511 13.5398 29.0236 14.1119 29.7298 14.1119H36.7627C37.4689 14.1119 38.0461 14.6858 37.997 15.3897C37.3494 24.669 29.7016 32.0835 20.1399 32.6948C19.4351 32.7398 18.8608 32.1635 18.8608 31.4578V24.7014C18.8608 23.9957 19.4362 23.4324 20.1366 23.342C24.2187 22.8152 27.4896 19.7951 28.2725 15.9101C28.4169 15.1935 27.8258 14.5774 27.0942 14.5774H20.1395C19.4333 14.5774 18.8608 14.0054 18.8608 13.2998V6.54329C18.8608 5.83766 19.4333 5.26562 20.1395 5.26562H27.1724ZM8.31159 32.7358C9.0178 32.7358 9.59029 32.1638 9.59029 31.4582L9.59029 25.1673C9.59029 24.4616 10.1628 23.8896 10.869 23.8896H17.9019C18.6081 23.8896 19.1853 23.3157 19.1361 22.6118C18.4885 13.3325 10.8407 5.91794 1.27903 5.30671C0.574256 5.26165 -6.16887e-08 5.83799 0 6.54363L2.2898e-06 13.3001C2.2898e-06 14.0057 0.575391 14.5691 1.27578 14.6595C5.35788 15.1863 8.62877 18.2063 9.41161 22.0914C9.55602 22.808 8.965 23.424 8.23337 23.424L1.27871 23.424C0.572498 23.424 2.2898e-06 23.996 2.2898e-06 24.7017V31.4582C2.2898e-06 32.1638 0.572498 32.7358 1.27871 32.7358H8.31159Z" fill="#1F202A"/>
</svg>
