<svg width="114" height="20" viewBox="0 0 114 20" fill="none" xmlns="http://www.w3.org/2000/svg">
<path fill-rule="evenodd" clip-rule="evenodd" d="M20.6641 1.14884C20.6641 0.908382 20.5687 0.677747 20.399 0.507541C20.2292 0.337335 19.9989 0.241464 19.7586 0.240967H14.7741C14.5335 0.240967 14.3027 0.336617 14.1326 0.506877C13.9624 0.677137 13.8668 0.908058 13.8668 1.14884V5.9452C13.8673 6.18566 13.9631 6.4161 14.1332 6.58595C14.3033 6.75581 14.5338 6.8512 14.7741 6.8512H19.7024C19.8225 6.84612 19.9421 6.86778 20.0528 6.91462C20.1635 6.96146 20.2624 7.0323 20.3424 7.12203C20.4224 7.21176 20.4815 7.31814 20.5154 7.4335C20.5493 7.54885 20.5572 7.67031 20.5385 7.78909C19.9761 10.5484 17.6647 12.6905 14.7722 13.0656C14.5303 13.0895 14.3052 13.2004 14.1387 13.3777C13.9722 13.555 13.8756 13.7867 13.8668 14.0298V18.8261C13.8649 18.9445 13.8872 19.062 13.9325 19.1714C13.9778 19.2808 14.0451 19.3797 14.1302 19.462C14.2152 19.5443 14.3163 19.6082 14.427 19.6499C14.5378 19.6915 14.6559 19.7099 14.7741 19.704C21.5507 19.2707 26.972 14.0073 27.4313 7.42143C27.4378 7.30321 27.4198 7.18492 27.3785 7.07397C27.3372 6.96301 27.2735 6.86176 27.1913 6.77656C27.1092 6.69135 27.0103 6.62402 26.901 6.57877C26.7917 6.53352 26.6742 6.51132 26.5559 6.51356H21.5714C21.3307 6.51356 21.0999 6.41791 20.9298 6.24765C20.7596 6.07739 20.6641 5.84647 20.6641 5.60568V1.14884Z" fill="black"/>
<path fill-rule="evenodd" clip-rule="evenodd" d="M7.03832 18.8336C7.03832 19.0741 6.94299 19.3047 6.77324 19.4749C6.6035 19.6451 6.37321 19.741 6.1329 19.7415H1.14651C0.906205 19.741 0.675913 19.6451 0.506167 19.4749C0.336421 19.3047 0.241083 19.0741 0.241084 18.8336V14.0373C0.241084 13.797 0.336482 13.5665 0.506281 13.3966C0.676081 13.2267 0.906377 13.1313 1.14651 13.1313H6.07666C6.19755 13.1363 6.31803 13.1142 6.42933 13.0667C6.54063 13.0192 6.63994 12.9475 6.72003 12.8568C6.80012 12.766 6.85898 12.6585 6.89232 12.5422C6.92565 12.4258 6.93263 12.3034 6.91273 12.184C6.6202 10.8131 5.90707 9.56787 4.87296 8.62222C3.83885 7.67657 2.53539 7.07772 1.14463 6.90932C0.90302 6.88499 0.678384 6.77394 0.512277 6.59669C0.34617 6.41944 0.249831 6.188 0.241084 5.94517V1.14881C0.239139 1.03043 0.261515 0.912914 0.306815 0.803537C0.352115 0.69416 0.419379 0.595256 0.504439 0.512955C0.5895 0.430654 0.690545 0.366708 0.801313 0.32508C0.912081 0.283452 1.03021 0.265027 1.14839 0.27095C7.925 0.706129 13.3425 5.96768 13.8056 12.5535C13.812 12.6717 13.7941 12.79 13.7528 12.901C13.7115 13.0119 13.6478 13.1132 13.5656 13.1984C13.4835 13.2836 13.3846 13.3509 13.2753 13.3962C13.1659 13.4414 13.0484 13.4636 12.9301 13.4614H7.94562C7.70531 13.4614 7.47482 13.5568 7.30473 13.7266C7.13463 13.8965 7.03882 14.1269 7.03832 14.3674V18.8336Z" fill="black"/>
<path d="M45.9388 7.27137V12.501C45.9417 13.0489 45.8113 13.5893 45.5588 14.0755C45.3064 14.5617 44.9395 14.9791 44.4898 15.2918C44.0401 15.6044 43.5211 15.8028 42.9776 15.8698C42.4342 15.9369 41.8826 15.8706 41.3705 15.6767C40.9496 15.5189 40.5648 15.2779 40.2389 14.9683C39.913 14.6586 39.6527 14.2865 39.4734 13.8741C39.2966 13.4643 39.206 13.0224 39.2072 12.5761V5.11798C39.2072 5.10304 39.2042 5.08825 39.1985 5.07447C39.1927 5.06069 39.1842 5.0482 39.1736 5.03772C39.1629 5.02725 39.1503 5.019 39.1365 5.01345C39.1226 5.00791 39.1078 5.00518 39.0928 5.00543H36.7946C36.7798 5.00543 36.7652 5.00834 36.7516 5.014C36.7379 5.01965 36.7255 5.02794 36.7151 5.03839C36.7046 5.04885 36.6963 5.06125 36.6907 5.0749C36.685 5.08856 36.6821 5.1032 36.6821 5.11798V12.4598C36.6805 13.631 37.0265 14.7764 37.6764 15.7505C38.3262 16.7247 39.2506 17.4838 40.3322 17.9315C41.4138 18.3792 42.604 18.4954 43.7517 18.2653C44.8994 18.0351 45.9529 17.4691 46.7786 16.639C47.8573 15.5607 48.4642 14.098 48.4658 12.5723V5.1161C48.4658 5.10132 48.4629 5.08669 48.4572 5.07303C48.4515 5.05938 48.4433 5.04697 48.4328 5.03652C48.4224 5.02607 48.41 5.01778 48.3963 5.01212C48.3827 5.00646 48.3681 5.00356 48.3533 5.00356H46.0532C46.0382 5.00331 46.0234 5.00603 46.0096 5.01158C45.9957 5.01712 45.9831 5.02537 45.9724 5.03585C45.9618 5.04632 45.9533 5.05881 45.9476 5.07259C45.9418 5.08637 45.9388 5.10116 45.9388 5.1161V7.27137Z" fill="black"/>
<path d="M56.0446 7.43269C54.9514 7.42302 53.886 7.77665 53.0153 8.43811H51.1407C51.1258 8.4381 51.111 8.44107 51.0972 8.44685C51.0834 8.45262 51.071 8.46108 51.0605 8.47173C51.05 8.48238 51.0418 8.49501 51.0362 8.50888C51.0307 8.52275 51.028 8.53759 51.0282 8.55253V18.0364C51.0282 18.0665 51.04 18.0953 51.061 18.1167C51.0821 18.1381 51.1107 18.1504 51.1407 18.1509H53.4071C53.4374 18.1509 53.4665 18.1388 53.4879 18.1174C53.5094 18.0959 53.5214 18.0668 53.5214 18.0364V12.5235C53.5135 11.8703 53.7556 11.2388 54.1981 10.7584C54.6354 10.2807 55.2394 9.98925 55.8853 9.94435C56.223 9.92848 56.5604 9.98168 56.8769 10.1007C57.1934 10.2197 57.4824 10.402 57.7261 10.6365C57.9711 10.8718 58.1658 11.1544 58.2985 11.4671C58.4313 11.7798 58.4993 12.1162 58.4984 12.456V18.0364C58.4984 18.0665 58.5102 18.0953 58.5313 18.1167C58.5523 18.1381 58.5809 18.1504 58.6109 18.1509H60.8773C60.9073 18.1504 60.9359 18.1381 60.9569 18.1167C60.978 18.0953 60.9898 18.0665 60.9897 18.0364V12.5592C60.9897 9.78679 58.7984 7.45895 56.0446 7.43269Z" fill="black"/>
<path d="M66.0747 7.43454H63.8083C63.7785 7.43454 63.7499 7.4464 63.7288 7.46751C63.7077 7.48861 63.6959 7.51724 63.6959 7.54709V18.0402C63.6959 18.0702 63.7076 18.099 63.7287 18.1204C63.7497 18.1418 63.7783 18.1541 63.8083 18.1546H66.0747C66.1047 18.1541 66.1333 18.1418 66.1544 18.1204C66.1754 18.099 66.1872 18.0702 66.1872 18.0402V7.54709C66.1872 7.51724 66.1753 7.48861 66.1542 7.46751C66.1331 7.4464 66.1045 7.43454 66.0747 7.43454Z" fill="black"/>
<path d="M66.0747 3.41666H63.8084C63.7785 3.41666 63.7499 3.42851 63.7288 3.44962C63.7077 3.47072 63.6959 3.49935 63.6959 3.5292V5.80639C63.6956 5.82133 63.6984 5.83616 63.7039 5.85003C63.7094 5.86391 63.7177 5.87654 63.7282 5.88719C63.7386 5.89784 63.7511 5.9063 63.7649 5.91207C63.7786 5.91784 63.7934 5.92081 63.8084 5.92081H66.0747C66.0897 5.92081 66.1044 5.91784 66.1182 5.91207C66.132 5.9063 66.1445 5.89784 66.1549 5.88719C66.1654 5.87654 66.1736 5.86391 66.1792 5.85003C66.1847 5.83616 66.1875 5.82133 66.1872 5.80639V3.5292C66.1872 3.49935 66.1753 3.47072 66.1543 3.44962C66.1332 3.42851 66.1046 3.41666 66.0747 3.41666Z" fill="black"/>
<path d="M101.01 12.4823C100.862 12.4335 100.7 12.3848 100.53 12.3416C98.0929 11.5744 96.3721 11.7789 96.4939 10.4658C96.6814 9.71553 97.553 9.49231 98.3872 9.46043H98.6159C99.0901 9.47 99.563 9.51262 100.031 9.58798C100.781 9.7099 101.578 9.77555 102.155 10.0475C102.173 10.0563 102.194 10.0603 102.214 10.0593C102.234 10.0582 102.254 10.0521 102.271 10.0415C102.289 10.0309 102.303 10.0161 102.313 9.99845C102.323 9.98083 102.329 9.96095 102.329 9.94062V8.25243C102.33 8.2302 102.323 8.2084 102.311 8.18995C102.299 8.17151 102.281 8.1573 102.26 8.14926C101.833 7.969 101.391 7.82774 100.939 7.72721C100.195 7.54171 99.4327 7.44165 98.6665 7.42896C97.1744 7.40645 95.9815 7.69407 95.088 8.29182C94.6757 8.54644 94.3345 8.90136 94.0963 9.32349C93.8624 9.74182 93.7404 10.2135 93.742 10.6928C93.7345 11.4619 93.9357 12.0721 94.3456 12.5236C94.7487 12.949 95.2512 13.2674 95.8078 13.4502C96.5384 13.6672 97.2831 13.8333 98.0367 13.9473C98.6743 14.038 99.302 14.1887 99.9113 14.3975C100.084 14.4458 100.237 14.55 100.344 14.6938C100.449 14.8366 100.503 15.0102 100.498 15.1872C100.484 15.975 99.7044 16.3564 98.1585 16.3314C97.4605 16.3175 96.7672 16.2122 96.0965 16.0181C95.4873 15.8306 94.6924 15.6167 94.1769 15.3429C94.1583 15.331 94.1369 15.3243 94.1148 15.3237C94.0928 15.3231 94.071 15.3284 94.0518 15.3392C94.0325 15.35 94.0166 15.3658 94.0056 15.3849C93.9946 15.4041 93.989 15.4258 93.9895 15.4479V17.4193C93.9891 17.4411 93.9951 17.4625 94.0067 17.4808C94.0184 17.4992 94.0352 17.5137 94.0551 17.5225C94.4678 17.7122 94.8954 17.8678 95.3335 17.9877C96.1882 18.2268 97.0705 18.3529 97.958 18.3628C99.5051 18.3891 100.732 18.109 101.638 17.5225C102.544 16.936 103.006 16.1426 103.025 15.1421C103.037 14.3831 102.841 13.7935 102.434 13.3733C102.043 12.9594 101.553 12.6526 101.01 12.4823Z" fill="black"/>
<path d="M111.473 12.4823C111.325 12.4335 111.163 12.3847 110.993 12.3416C108.556 11.5744 106.835 11.7788 106.957 10.4658C107.144 9.71549 108.016 9.49227 108.85 9.46038H109.079C109.553 9.46995 110.026 9.51257 110.494 9.58793C111.244 9.70986 112.041 9.77551 112.618 10.0475C112.636 10.0563 112.657 10.0603 112.677 10.0592C112.697 10.0582 112.717 10.0521 112.734 10.0414C112.752 10.0308 112.766 10.016 112.776 9.9984C112.786 9.98079 112.792 9.96091 112.792 9.94058V8.25238C112.793 8.23016 112.786 8.20835 112.774 8.18991C112.762 8.17146 112.744 8.15726 112.723 8.14921C112.299 7.96949 111.86 7.82824 111.411 7.72716C110.665 7.54453 109.901 7.44762 109.133 7.4383C107.641 7.41579 106.448 7.7034 105.555 8.30115C105.142 8.55578 104.801 8.91069 104.563 9.33283C104.329 9.75116 104.207 10.2228 104.209 10.7021C104.201 11.4712 104.402 12.0815 104.812 12.5329C105.215 12.9583 105.718 13.2767 106.274 13.4595C107.005 13.6765 107.75 13.8426 108.503 13.9566C109.141 14.0473 109.769 14.198 110.378 14.4068C110.551 14.4552 110.703 14.5593 110.811 14.7032C110.916 14.8459 110.97 15.0195 110.965 15.1965C110.952 15.9843 110.172 16.3657 108.625 16.3407C107.927 16.3265 107.234 16.2212 106.563 16.0275C105.956 15.8399 105.161 15.626 104.645 15.3522C104.627 15.3403 104.605 15.3337 104.583 15.333C104.561 15.3324 104.54 15.3378 104.52 15.3485C104.501 15.3593 104.485 15.3751 104.474 15.3943C104.463 15.4134 104.458 15.4352 104.458 15.4572V17.4287C104.458 17.4504 104.464 17.4718 104.475 17.4901C104.487 17.5085 104.504 17.523 104.524 17.5318C104.936 17.7218 105.364 17.8774 105.802 17.997C106.657 18.2363 107.539 18.3624 108.427 18.3722C109.974 18.3984 111.2 18.1183 112.106 17.5318C113.012 16.9453 113.475 16.1519 113.494 15.1515C113.507 14.3924 113.31 13.8028 112.901 13.3826C112.51 12.9645 112.018 12.6544 111.473 12.4823Z" fill="black"/>
<path d="M79.3371 7.92034C78.974 7.04975 78.3591 6.30769 77.5713 5.78946C76.7793 5.26938 75.851 4.99587 74.9037 5.00351H68.9707C68.9559 5.00351 68.9413 5.00642 68.9276 5.01208C68.914 5.01773 68.9016 5.02602 68.8912 5.03647C68.8807 5.04692 68.8724 5.05934 68.8668 5.07299C68.8611 5.08664 68.8582 5.10128 68.8582 5.11606V18.0401C68.8582 18.0702 68.87 18.099 68.891 18.1204C68.9121 18.1418 68.9407 18.1541 68.9707 18.1546H71.2202C71.2502 18.1541 71.2788 18.1418 71.2998 18.1204C71.3209 18.099 71.3327 18.0702 71.3327 18.0401V14.8007H74.78C78.1636 14.8007 80.7562 11.4393 79.3371 7.92034ZM74.72 12.4316H71.3458V7.36699H74.7913C75.1511 7.36738 75.5068 7.44343 75.8354 7.59021C76.3301 7.80642 76.7426 8.17549 77.0125 8.64334C77.2824 9.11119 77.3954 9.65322 77.3351 10.19C77.1776 11.4843 76.0285 12.4316 74.72 12.4316Z" fill="black"/>
<path fill-rule="evenodd" clip-rule="evenodd" d="M86.6567 7.44584C87.6432 7.50218 88.5929 7.84001 89.3936 8.41937H91.63C91.6449 8.41936 91.6597 8.42233 91.6734 8.42811C91.6872 8.43388 91.6997 8.44234 91.7102 8.45299C91.7206 8.46364 91.7289 8.47627 91.7344 8.49014C91.74 8.50401 91.7427 8.51885 91.7424 8.53379V17.9933C91.7427 18.0083 91.74 18.0231 91.7344 18.037C91.7289 18.0508 91.7206 18.0635 91.7102 18.0741C91.6997 18.0848 91.6872 18.0932 91.6734 18.099C91.6597 18.1048 91.6449 18.1077 91.63 18.1077H89.8454C89.8304 18.1077 89.8156 18.1048 89.8019 18.099C89.7881 18.0932 89.7756 18.0848 89.7652 18.0741C89.7547 18.0635 89.7464 18.0508 89.7409 18.037C89.7354 18.0231 89.7326 18.0083 89.7329 17.9933V16.7985C89.2905 17.5225 87.9014 18.2447 87.0822 18.331C86.1062 18.4677 85.1115 18.3191 84.2179 17.9033C83.3135 17.4816 82.5457 16.8141 82.0021 15.9769C81.4503 15.1257 81.1382 14.1413 81.0986 13.1275C81.059 12.1137 81.2934 11.108 81.7772 10.2164C82.2548 9.33606 82.9691 8.60704 83.8392 8.11174C84.6951 7.62405 85.6731 7.39289 86.6567 7.44584ZM84.0604 11.0323C84.3283 10.6307 84.6906 10.3011 85.1155 10.0721C85.5403 9.84322 86.0148 9.72206 86.4973 9.71928C88.1526 9.71928 89.4967 11.143 89.4967 12.8987C89.4967 14.6544 88.1526 16.0782 86.4973 16.0782C86.0551 16.0761 85.619 15.9738 85.2219 15.7789C84.8248 15.5839 84.477 15.3015 84.2047 14.9527C84.0111 14.7321 83.8507 14.4844 83.7286 14.2174C83.4677 13.6475 83.3835 13.0124 83.4868 12.3941C83.5648 11.9004 83.7616 11.433 84.0604 11.0323Z" fill="black"/>
</svg>
