<svg xmlns="http://www.w3.org/2000/svg" fill="none" viewBox="0 0 41 40"><circle fill="#2775CA" r="20" cy="20" cx="20.997"/><path fill="#fff" d="M17.165 30.52c-5.862-2.104-8.868-8.641-6.688-14.428 1.127-3.156 3.607-5.56 6.688-6.687.3-.15.45-.376.45-.752V7.601c0-.3-.15-.526-.45-.601-.076 0-.226 0-.301.075-7.139 2.254-11.046 9.844-8.792 16.983a13.518 13.518 0 0 0 8.792 8.792c.3.15.601 0 .676-.3.075-.076.075-.151.075-.301v-1.053c0-.225-.225-.525-.45-.676ZM25.13 7.075c-.3-.15-.601 0-.676.3-.076.076-.076.15-.076.301v1.052c0 .3.226.601.451.752 5.861 2.104 8.867 8.641 6.688 14.428-1.127 3.156-3.607 5.56-6.688 6.687-.3.15-.45.376-.45.752v1.052c0 .3.15.526.45.601.075 0 .226 0 .3-.075 7.14-2.254 11.047-9.844 8.793-16.983-1.353-4.283-4.66-7.514-8.792-8.867Zm-3.908 11.647c3.156.376 4.735 1.278 4.735 3.908 0 2.029-1.503 3.607-3.758 3.983v1.803c-.075.376-.3.601-.6.601H20.47c-.376-.075-.601-.3-.601-.6v-1.804c-2.48-.376-3.682-1.729-3.983-3.607v-.076c0-.3.226-.526.526-.526h1.278c.225 0 .45.15.526.451.225 1.127.901 1.954 2.855 1.954 1.428 0 2.48-.826 2.48-2.029 0-1.202-.676-1.653-2.78-2.029-3.156-.376-4.66-1.352-4.66-3.832 0-1.879 1.428-3.382 3.683-3.682v-1.729c.075-.375.3-.6.6-.6h1.128c.376.074.601.3.601.6v1.804a3.754 3.754 0 0 1 3.382 3.08v.076c0 .3-.226.526-.526.526h-1.203a.565.565 0 0 1-.526-.376c-.375-1.127-1.127-1.578-2.48-1.578-1.502 0-2.254.676-2.254 1.729 0 1.052.451 1.653 2.705 1.953Z" clip-rule="evenodd" fill-rule="evenodd" data-follow-fill="#fff"/></svg>