<svg xmlns="http://www.w3.org/2000/svg" fill="none" viewBox="0 0 41 40"><circle fill="#26A17B" r="20" cy="20" cx="20.997"/><path fill="#fff" d="M23.452 14.284v2.957c5.492.254 9.618 1.343 9.618 2.647 0 1.303-4.126 2.392-9.618 2.645v9.48h-4.89v-9.478c-5.5-.254-9.637-1.342-9.637-2.647 0-1.305 4.136-2.395 9.636-2.648v-2.956h-6.767v-4.51H30.22v4.51h-6.768Zm0 7.442v.003c4.85-.215 8.47-1.059 8.47-2.071 0-1.01-3.62-1.857-8.47-2.073v3.304c-.14.012-.897.075-2.406.075a37.4 37.4 0 0 1-2.485-.076v-3.305c-4.86.217-8.487 1.063-8.487 2.075 0 1.012 3.627 1.858 8.487 2.072v-.004a52.39 52.39 0 0 0 2.464.053c1.581 0 2.29-.043 2.427-.053Z" clip-rule="evenodd" fill-rule="evenodd" data-follow-fill="#fff"/></svg>